<?xml version="1.0" encoding="utf-8"?>
<svg version="1.1" id="Icon" xmlns="http://www.w3.org/2000/svg" width="80px" height="80px" viewBox="0 0 80 80" enable-background="new 0 0 80 80" xml:space="preserve">
<g>
	<polygon fill="#007FFF" points="2.226,39.943 8.667,13.058 15.107,39.943"/>
	<polygon fill="#36AEFF" points="77.773,39.943 71.333,13.058 8.667,13.058 15.107,39.943"/>
</g>
<g>
	<rect x="52.156" y="57.158" fill="#0086FF" width="9.25"   height="21"/>
	<rect x="61.406" y="57.158" fill="#5000FF" width="7.938"  height="21"/>
	<rect x="69.344" y="57.158" fill="#D300FF" width="8.531"  height="21"/>
	<rect x="19.375" y="57.158" fill="#FFFF00" width="8.188"  height="21"/>
	<rect x="10.844" y="57.158" fill="#FFAA00" width="8.531"  height="21"/>
	<rect x="2.125"  y="57.158" fill="#FF0000" width="8.719"  height="21"/>
	<rect x="27.563" y="57.158" fill="#00FF7F" width="16.969" height="21"/>
</g>
<polygon fill="none" points="42.328,39.943 44.573,39.943 41.635,27.75"/>
<g>
	<polygon fill="#0086FF" points="44.573,39.943 52.156,57.158 61.406,57.158 49.283,39.943"/>
	<polygon fill="#5000FF" points="49.283,39.943 61.406,57.158 69.344,57.158 53.607,39.943"/>
	<polygon fill="#D300FF" points="58.105,39.943 53.607,39.943 69.344,57.158 77.875,57.158"/>
	<polygon fill="#FF0000" points="21.896,39.943 2.125, 57.158 10.844,57.158 26.448,39.943"/>
	<polygon fill="#FFD400" points="26.448,39.943 10.844,57.158 19.375,57.158 30.946,39.943"/>
	<polygon fill="#FFFF00" points="30.946,39.943 19.375,57.158 27.563,57.158 35.344,39.943"/>
	<polygon fill="#00FF7F" points="27.563,57.158 44.531,57.158 42.328,39.943 35.344,39.943"/>
</g>
<g>
	<polygon fill="#0086FF" points="44.904,27.75  41.635,27.75  44.573,39.943 49.283,39.943"/>
	<polygon fill="#5000FF" points="53.607,39.943 48.174,27.75  44.904,27.75  49.283,39.943"/>
	<polygon fill="#D300FF" points="58.105,39.943 51.443,27.75  48.174,27.75  53.607,39.943"/>
	<polygon fill="#FF0000" points="31.826,27.75  28.557,27.75  21.896,39.943 26.448,39.943"/>
	<polygon fill="#FFD400" points="30.946,39.943 35.096,27.75  31.826,27.75  26.448,39.943"/>
	<polygon fill="#FFFF00" points="35.344,39.943 38.365,27.75  35.096,27.75  30.946,39.943"/>
	<polygon fill="#00FF7F" points="38.365,27.75  35.344,39.943 42.328,39.943 41.635,27.75"/>
</g>
<rect x="28.557" fill="#FFFFFF" width="22.887" height="16.058"/>
<g>
	<linearGradient id="C_1" x1="46.5391" y1="27.75" x2="46.5391" y2="16.0576">
		<stop offset="0" style="stop-color:#5000FF"/>
		<stop offset="1" style="stop-color:#FFFFFF"/>
	</linearGradient>
	<rect x="44.904" y="16.058" fill="url(#C_1)" width="3.27" height="11.692"/>
	<linearGradient id="C_2" x1="49.8086" y1="27.75" x2="49.8086" y2="16.0576">
		<stop offset="0" style="stop-color:#D300FF"/>
		<stop offset="1" style="stop-color:#FFFFFF"/>
	</linearGradient>
	<rect x="48.174" y="16.058" fill="url(#C_2)" width="3.27" height="11.692"/>
	<linearGradient id="C_3" x1="30.1914" y1="27.75" x2="30.1914" y2="16.0576">
		<stop offset="0" style="stop-color:#FF0000"/>
		<stop offset="1" style="stop-color:#FFFFFF"/>
	</linearGradient>
	<rect x="28.557" y="16.058" fill="url(#C_3)" width="3.27" height="11.692"/>
	<linearGradient id="C_4" x1="33.4609" y1="27.75" x2="33.4609" y2="16.0576">
		<stop offset="0" style="stop-color:#FFD400"/>
		<stop offset="1" style="stop-color:#FFFFFF"/>
	</linearGradient>
	<rect x="31.826" y="16.058" fill="url(#C_4)" width="3.27" height="11.692"/>
	<linearGradient id="C_5" x1="36.7305" y1="27.75" x2="36.7305" y2="16.0576">
		<stop offset="0" style="stop-color:#FFFF00"/>
		<stop offset="1" style="stop-color:#FFFFFF"/>
	</linearGradient>
	<rect x="35.096" y="16.058" fill="url(#C_5)" width="3.27" height="11.692"/>
	<linearGradient id="C_6" x1="40.0005" y1="27.75" x2="40.0005" y2="16.0576">
		<stop offset="0" style="stop-color:#00FF7F"/>
		<stop offset="1" style="stop-color:#FFFFFF"/>
	</linearGradient>
	<rect x="38.365" y="16.058" fill="url(#C_6)" width="3.27" height="11.692"/>
	<linearGradient id="C_7" x1="43.2695" y1="27.75" x2="43.2695" y2="16.0576">
		<stop offset="0" style="stop-color:#0086FF"/>
		<stop offset="1" style="stop-color:#FFFFFF"/>
	</linearGradient>
	<rect x="41.635" y="16.058" fill="url(#C_7)" width="3.27" height="11.692"/>
</g>
<g opacity="0.8">
	<polygon fill="#007FFF" points="2.226,39.943 8.667,13.058 15.107,39.943"/>
	<polygon fill="#36AEFF" points="77.773,39.943 71.333,13.058 8.667,13.058 15.107,39.943"/>
</g>
<g>
	<path d="M6.502,72.418c-0.672,0-1.291-0.121-1.855-0.364C4.082,71.812,3.59,71.48,3.17,71.06l0.7-0.812
		c0.345,0.346,0.747,0.623,1.204,0.833c0.458,0.21,0.952,0.315,1.484,0.315c0.634,0,1.127-0.136,1.477-0.406
		c0.35-0.271,0.525-0.621,0.525-1.05c0-0.243-0.042-0.448-0.126-0.616s-0.201-0.313-0.35-0.435
		c-0.149-0.121-0.324-0.229-0.525-0.321c-0.201-0.094-0.418-0.191-0.651-0.294L5.592,67.7c-0.233-0.094-0.467-0.205-0.7-0.336
		c-0.233-0.131-0.446-0.289-0.637-0.477c-0.191-0.187-0.348-0.408-0.469-0.665c-0.122-0.256-0.182-0.553-0.182-0.889
		c0-0.345,0.075-0.667,0.224-0.966c0.149-0.299,0.357-0.558,0.623-0.777c0.266-0.219,0.583-0.39,0.952-0.511
		s0.772-0.182,1.211-0.182c0.579,0,1.111,0.104,1.596,0.314s0.896,0.483,1.232,0.819l-0.616,0.756
		c-0.299-0.271-0.63-0.483-0.994-0.637c-0.364-0.154-0.784-0.231-1.26-0.231c-0.532,0-0.961,0.119-1.288,0.357
		c-0.327,0.237-0.49,0.566-0.49,0.986c0,0.225,0.049,0.413,0.147,0.567s0.224,0.289,0.378,0.406
		c0.154,0.116,0.329,0.217,0.525,0.301c0.196,0.084,0.392,0.168,0.588,0.252l1.288,0.56c0.28,0.112,0.544,0.241,0.791,0.386
		c0.248,0.145,0.462,0.313,0.644,0.504c0.182,0.191,0.327,0.415,0.434,0.672S9.75,69.464,9.75,69.8c0,0.364-0.075,0.705-0.224,1.022
		s-0.364,0.595-0.644,0.833c-0.28,0.237-0.621,0.425-1.022,0.56C7.458,72.351,7.006,72.418,6.502,72.418z"/>
	<path d="M12.06,72.25v-9.184h2.772c0.504,0,0.966,0.047,1.386,0.14c0.42,0.094,0.779,0.245,1.078,0.455
		c0.298,0.21,0.529,0.487,0.693,0.833c0.163,0.346,0.245,0.77,0.245,1.273c0,0.485-0.082,0.906-0.245,1.261
		c-0.164,0.354-0.397,0.648-0.7,0.882c-0.304,0.233-0.663,0.408-1.078,0.524c-0.416,0.117-0.875,0.176-1.379,0.176h-1.61v3.64H12.06
		z M13.222,67.658h1.47c0.812,0,1.409-0.151,1.792-0.455c0.382-0.304,0.574-0.781,0.574-1.436c0-0.662-0.196-1.122-0.588-1.379
		c-0.392-0.256-0.985-0.385-1.778-0.385h-1.47V67.658z"/>
	<path d="M20.628,72.25v-9.184h5.684v0.979h-4.508v2.884h3.808v0.994h-3.808v3.332h4.648v0.994H20.628z"/>
	<path d="M28.818,72.25v-9.184h2.604c0.466,0,0.894,0.042,1.281,0.126s0.719,0.215,0.994,0.392c0.275,0.178,0.49,0.408,0.644,0.693
		c0.154,0.284,0.231,0.628,0.231,1.028c0,0.458-0.131,0.871-0.392,1.239c-0.261,0.369-0.667,0.623-1.218,0.763v0.057
		c0.672,0.103,1.195,0.336,1.568,0.7c0.373,0.363,0.56,0.863,0.56,1.497c0,0.448-0.084,0.841-0.252,1.177
		c-0.168,0.336-0.404,0.615-0.707,0.84c-0.304,0.224-0.667,0.392-1.092,0.504s-0.894,0.168-1.407,0.168H28.818z M29.979,66.93h1.246
		c0.784,0,1.346-0.126,1.687-0.378s0.511-0.635,0.511-1.147c0-0.504-0.18-0.856-0.539-1.058c-0.359-0.2-0.894-0.301-1.603-0.301
		h-1.302V66.93z M29.979,71.27h1.484c0.793,0,1.404-0.137,1.834-0.412c0.429-0.275,0.644-0.726,0.644-1.352
		c0-0.569-0.21-0.978-0.63-1.225s-1.036-0.371-1.848-0.371h-1.484V71.27z"/>
	<path d="M40.549,72.418c-0.579,0-1.11-0.107-1.596-0.322c-0.485-0.214-0.905-0.524-1.26-0.931c-0.354-0.406-0.63-0.905-0.826-1.498
		c-0.196-0.593-0.294-1.262-0.294-2.009c0-0.737,0.1-1.402,0.301-1.995s0.48-1.092,0.84-1.498s0.789-0.719,1.288-0.938
		c0.5-0.219,1.048-0.328,1.645-0.328c0.308,0,0.588,0.032,0.84,0.098c0.253,0.065,0.483,0.151,0.693,0.259s0.396,0.227,0.56,0.357
		c0.164,0.131,0.311,0.266,0.441,0.405l-0.658,0.742c-0.225-0.242-0.48-0.443-0.77-0.602c-0.289-0.159-0.658-0.238-1.106-0.238
		c-0.429,0-0.819,0.087-1.169,0.259c-0.35,0.173-0.651,0.42-0.903,0.742s-0.446,0.712-0.581,1.169
		c-0.135,0.458-0.203,0.971-0.203,1.54c0,0.579,0.063,1.099,0.189,1.562c0.126,0.462,0.308,0.856,0.546,1.183
		c0.238,0.327,0.534,0.579,0.889,0.756c0.354,0.178,0.756,0.267,1.204,0.267c0.327,0,0.63-0.05,0.91-0.147
		c0.28-0.098,0.509-0.231,0.686-0.399v-2.394h-1.833V67.49h2.912v3.863c-0.289,0.299-0.67,0.552-1.141,0.757
		S41.146,72.418,40.549,72.418z"/>
	<path d="M45.617,74.49l4.592-12.181h1.037L46.653,74.49H45.617z"/>
	<path d="M56.243,72.25v-8.204h-3.024v-0.979h7.225v0.979H57.42v8.204H56.243z"/>
	<path d="M62.432,72.25v-9.184h2.855c0.467,0,0.896,0.044,1.288,0.133s0.73,0.235,1.015,0.44c0.285,0.206,0.507,0.472,0.666,0.799
		c0.158,0.326,0.237,0.728,0.237,1.203c0,0.719-0.187,1.293-0.56,1.723c-0.373,0.429-0.873,0.724-1.498,0.882l2.338,4.004h-1.33
		l-2.212-3.878h-1.638v3.878H62.432z M63.594,67.42h1.525c0.719,0,1.268-0.146,1.645-0.441c0.379-0.294,0.567-0.739,0.567-1.337
		c0-0.606-0.188-1.031-0.567-1.273c-0.377-0.243-0.926-0.364-1.645-0.364h-1.525V67.42z"/>
	<path d="M69.879,72.25l3.094-9.184h1.316l3.094,9.184H76.15l-0.867-2.8h-3.332l-0.883,2.8H69.879z M72.679,67.112l-0.435,1.399
		h2.744l-0.434-1.399c-0.158-0.514-0.314-1.024-0.469-1.533s-0.301-1.029-0.441-1.562h-0.056c-0.149,0.532-0.299,1.053-0.448,1.562
		S72.838,66.599,72.679,67.112z"/>
</g>
</svg>
