<?xml version="1.0" encoding="utf-8"?>
<!-- Generator: Adobe Illustrator 16.0.0, SVG Export Plug-In . SVG Version: 6.00 Build 0)  -->
<!DOCTYPE svg PUBLIC "-//W3C//DTD SVG 1.1//EN" "http://www.w3.org/Graphics/SVG/1.1/DTD/svg11.dtd">
<svg version="1.1" id="Steno_Board" xmlns="http://www.w3.org/2000/svg" xmlns:xlink="http://www.w3.org/1999/xlink" x="0px"
	 y="0px" width="310px" height="120px" viewBox="0 0 310 120" enable-background="new 0 0 310 120" xml:space="preserve">
<g id="Base">
	<path id="Base_x5F_S" fill="#7F7F7F" stroke="#000000" stroke-miterlimit="10" d="M18.799,81.893
		c7.165,0,12.972-5.807,12.972-12.972v-43.24H5.825v43.24C5.825,76.083,11.635,81.893,18.799,81.893z"/>
	<path id="Base_x5F_T" fill="#7F7F7F" stroke="#000000" stroke-miterlimit="10" d="M36.094,25.679h25.945v25.945H36.094V25.679z"/>
	<path id="Base_x5F_K" fill="#7F7F7F" stroke="#000000" stroke-miterlimit="10" d="M49.066,81.893
		c7.165,0,12.972-5.807,12.972-12.972V55.947H36.094v12.972C36.094,76.083,41.902,81.893,49.066,81.893z"/>
	<path id="Base_x5F_P" fill="#7F7F7F" stroke="#000000" stroke-miterlimit="10" d="M66.362,25.679h25.944v25.945H66.362V25.679z"/>
	<path id="Base_x5F_W" fill="#7F7F7F" stroke="#000000" stroke-miterlimit="10" d="M79.333,81.813
		c7.164,0,12.972-5.807,12.972-12.972V55.867H66.363v12.972C66.362,76.003,72.17,81.813,79.333,81.813z"/>
	<path id="Base_x5F_H" fill="#7F7F7F" stroke="#000000" stroke-miterlimit="10" d="M96.633,25.679h25.943v25.945H96.633V25.679z"/>
	<path id="Base_x5F_R" fill="#7F7F7F" stroke="#000000" stroke-miterlimit="10" d="M109.602,81.982
		c7.164,0,12.972-5.81,12.972-12.974l0,0V56.04H96.633v12.97C96.631,76.175,102.438,81.982,109.602,81.982z"/>
	<path id="Base_x5F_A" fill="#7F7F7F" stroke="#000000" stroke-miterlimit="10" d="M92.307,114.32
		c7.164,0,12.972-5.81,12.972-12.973V88.376H79.334v12.972C79.334,108.514,85.143,114.32,92.307,114.32z"/>
	<path id="Base_x5F_O" fill="#7F7F7F" stroke="#000000" stroke-miterlimit="10" d="M122.576,114.32
		c7.164,0,12.972-5.81,12.972-12.973l0,0V88.376h-25.943v12.972C109.604,108.514,115.411,114.32,122.576,114.32z"/>
	<path id="Base_x5F__x2A_" fill="#7F7F7F" stroke="#000000" stroke-miterlimit="10" d="M139.871,81.893
		c7.164,0,12.972-5.807,12.972-12.972v-43.24H126.9v43.24C126.899,76.083,132.707,81.893,139.871,81.893z"/>
	<path id="Base_x5F_E" fill="#7F7F7F" stroke="#000000" stroke-miterlimit="10" d="M157.168,114.32
		c7.164,0,12.973-5.81,12.973-12.973V88.376H144.2v12.974C144.195,108.514,150.004,114.32,157.168,114.32z"/>
	<path id="Base_x5F_U" fill="#7F7F7F" stroke="#000000" stroke-miterlimit="10" d="M187.436,114.32
		c7.164,0,12.974-5.81,12.974-12.973V88.376h-25.944v12.972C174.465,108.514,180.271,114.32,187.436,114.32z"/>
	<path id="Base_x5F_f" fill="#7F7F7F" stroke="#000000" stroke-miterlimit="10" d="M157.168,25.679h25.943v25.945h-25.943V25.679z"
		/>
	<path id="Base_x5F_r" fill="#7F7F7F" stroke="#000000" stroke-miterlimit="10" d="M170.139,81.813
		c7.164,0,12.973-5.807,12.973-12.972V55.867H157.17l0.001,12.972C157.168,76.003,162.975,81.813,170.139,81.813z"/>
	<path id="Base_x5F_p" fill="#7F7F7F" stroke="#000000" stroke-miterlimit="10" d="M187.404,25.679h25.945v25.945h-25.945V25.679
		L187.404,25.679z"/>
	<path id="Base_x5F_b" fill="#7F7F7F" stroke="#000000" stroke-miterlimit="10" d="M200.344,81.813
		c7.164,0,12.973-5.807,12.973-12.972v-12.97h-25.941v12.975C187.371,76.005,193.18,81.813,200.344,81.813z"/>
	<path id="Base_x5F_l" fill="#7F7F7F" stroke="#000000" stroke-miterlimit="10" d="M217.705,25.679h25.943v25.945h-25.943V25.679
		L217.705,25.679z"/>
	<path id="Base_x5F_g" fill="#7F7F7F" stroke="#000000" stroke-miterlimit="10" d="M230.678,81.893
		c7.164,0,12.973-5.807,12.973-12.972V55.947h-25.941l0.002,12.972C217.705,76.083,223.512,81.893,230.678,81.893z"/>
	<path id="Base_x5F_t" fill="#7F7F7F" stroke="#000000" stroke-miterlimit="10" d="M247.973,25.679h25.942v25.945h-25.942V25.679z"
		/>
	<path id="Base_x5F_s" fill="#7F7F7F" stroke="#000000" stroke-miterlimit="10" d="M260.945,81.893
		c7.164,0,12.972-5.807,12.972-12.972V55.947h-25.944v12.972C247.973,76.083,253.779,81.893,260.945,81.893z"/>
	<path id="Base_x5F_d" fill="#7F7F7F" stroke="#000000" stroke-miterlimit="10" d="M278.232,25.679h25.938v25.945h-25.938V25.679z"
		/>
	<path id="Base_x5F_z" fill="#7F7F7F" stroke="#000000" stroke-miterlimit="10" d="M291.205,81.813
		c7.164,0,12.972-5.807,12.972-12.972l0,0V55.867h-25.94l0.003,12.972C278.23,76.003,284.039,81.813,291.205,81.813z"/>
	<path id="Base_x5F__x23_" fill="#7F7F7F" stroke="#000000" stroke-miterlimit="10" d="M5.826,6.356h298.347v15H5.826V6.356z"/>
</g>
<g id="Active">
	<g id="S">
		<path fill="#007FFF" stroke="#000000" stroke-miterlimit="10" d="M18.798,81.891c7.165,0,12.972-5.808,12.972-12.972V25.678H5.825
			v43.24C5.825,76.084,11.634,81.891,18.798,81.891z"/>
		<path d="M18.87,61.945c-1.152,0-2.212-0.209-3.18-0.625c-0.968-0.416-1.812-0.983-2.532-1.703l1.2-1.392
			c0.592,0.592,1.28,1.067,2.064,1.428c0.784,0.36,1.632,0.54,2.544,0.54c1.088,0,1.932-0.231,2.532-0.696
			c0.6-0.464,0.9-1.063,0.9-1.8c0-0.416-0.072-0.768-0.216-1.056s-0.344-0.536-0.6-0.744s-0.556-0.393-0.9-0.552
			c-0.344-0.16-0.716-0.328-1.116-0.505l-2.256-0.983c-0.4-0.16-0.8-0.352-1.2-0.576c-0.4-0.224-0.764-0.496-1.092-0.816
			c-0.328-0.319-0.596-0.699-0.804-1.14c-0.208-0.439-0.312-0.948-0.312-1.524c0-0.591,0.128-1.144,0.384-1.655
			c0.256-0.511,0.612-0.956,1.068-1.332s1-0.668,1.632-0.876c0.632-0.208,1.324-0.313,2.076-0.313c0.992,0,1.904,0.181,2.736,0.54
			c0.832,0.36,1.536,0.828,2.112,1.404l-1.056,1.296c-0.512-0.464-1.08-0.828-1.704-1.092c-0.624-0.265-1.344-0.396-2.16-0.396
			c-0.912,0-1.648,0.204-2.208,0.612c-0.56,0.408-0.84,0.972-0.84,1.692c0,0.384,0.084,0.708,0.252,0.972
			c0.168,0.264,0.384,0.496,0.648,0.696c0.264,0.2,0.564,0.372,0.9,0.516c0.336,0.144,0.672,0.288,1.008,0.432l2.208,0.96
			c0.48,0.192,0.932,0.412,1.356,0.66s0.792,0.536,1.104,0.864c0.312,0.328,0.56,0.712,0.744,1.152
			c0.184,0.439,0.276,0.947,0.276,1.523c0,0.624-0.128,1.208-0.384,1.752c-0.256,0.544-0.624,1.021-1.104,1.429
			c-0.48,0.407-1.064,0.729-1.752,0.961C20.51,61.828,19.734,61.945,18.87,61.945z"/>
	</g>
	<g id="T">
		<path fill="#007FFF" stroke="#000000" stroke-miterlimit="10" d="M36.094,25.678h25.945v25.945H36.094V25.678z"/>
		<path d="M48.058,46.523V32.458h-5.185v-1.68h12.385v1.68h-5.185v14.064L48.058,46.523z"/>
	</g>
	<g id="K">
		<path fill="#007FFF" stroke="#000000" stroke-miterlimit="10" d="M49.066,81.891c7.165,0,12.972-5.808,12.972-12.972V55.947
			H36.094v12.972C36.094,76.084,41.902,81.891,49.066,81.891z"/>
		<path d="M43.282,76.291V60.547h2.017v7.896h0.071l6.624-7.896h2.28l-4.992,5.977l5.568,9.771h-2.256l-4.584-8.257l-2.712,3.239
			v5.018h-2.016V76.291z"/>
	</g>
	<g id="P">
		<path fill="#007FFF" stroke="#000000" stroke-miterlimit="10" d="M66.362,25.678h25.945v25.945H66.362V25.678z"/>
		<path d="M74.043,46.523V30.779h4.752c0.864,0,1.656,0.08,2.376,0.24c0.72,0.16,1.335,0.42,1.848,0.78
			c0.512,0.359,0.908,0.836,1.188,1.428c0.28,0.592,0.42,1.32,0.42,2.184c0,0.832-0.141,1.553-0.42,2.16
			c-0.28,0.608-0.68,1.112-1.2,1.512s-1.136,0.7-1.848,0.9c-0.712,0.2-1.5,0.3-2.364,0.3h-2.76v6.24H74.043z M76.034,38.651h2.52
			c1.392,0,2.416-0.26,3.072-0.78c0.656-0.52,0.984-1.34,0.984-2.46c0-1.136-0.336-1.924-1.008-2.363
			c-0.672-0.44-1.688-0.66-3.048-0.66h-2.52V38.651z"/>
	</g>
	<g id="W">
		<path fill="#007FFF" stroke="#000000" stroke-miterlimit="10" d="M79.333,81.811c7.164,0,12.972-5.807,12.972-12.972l0,0V55.867
			H66.363v12.972C66.362,76.004,72.17,81.811,79.333,81.811z"/>
		<path d="M74.775,76.223l-2.4-15.768h2.256l1.152,9.888c0.032,0.337,0.064,0.642,0.096,0.913c0.032,0.271,0.06,0.547,0.084,0.828
			c0.024,0.279,0.048,0.572,0.072,0.875c0.024,0.305,0.044,0.648,0.06,1.031h0.072c0.063-0.383,0.127-0.729,0.192-1.031
			c0.063-0.303,0.124-0.596,0.18-0.875c0.056-0.281,0.116-0.557,0.18-0.828c0.064-0.271,0.136-0.568,0.216-0.889l1.536-5.855h1.92
			l1.488,5.855c0.08,0.318,0.152,0.615,0.216,0.889s0.124,0.547,0.18,0.828c0.056,0.279,0.112,0.572,0.168,0.875
			c0.056,0.305,0.124,0.648,0.204,1.031h0.096c0.016-0.383,0.036-0.729,0.06-1.031c0.024-0.302,0.048-0.596,0.072-0.875
			c0.024-0.281,0.048-0.557,0.072-0.828c0.024-0.271,0.052-0.568,0.084-0.889l1.104-9.912h2.16l-2.304,15.768h-2.496l-1.536-6.334
			c-0.128-0.479-0.236-0.953-0.324-1.416c-0.088-0.465-0.172-0.938-0.252-1.416h-0.072c-0.08,0.479-0.16,0.951-0.24,1.416
			c-0.08,0.463-0.184,0.938-0.312,1.416l-1.536,6.334H74.775L74.775,76.223z"/>
	</g>
	<g id="H">
		<path fill="#007FFF" stroke="#000000" stroke-miterlimit="10" d="M96.632,25.678h25.944v25.945H96.632V25.678z"/>
		<path d="M104.3,46.523V30.779h2.017v6.601h6.575v-6.601h2.017v15.744h-2.017v-7.416h-6.575v7.416H104.3z"/>
	</g>
	<g id="R">
		<path fill="#007FFF" stroke="#000000" stroke-miterlimit="10" d="M109.602,81.984c7.164,0,12.972-5.81,12.972-12.974v-12.97
			H96.632v12.973C96.631,76.176,102.438,81.984,109.602,81.984z"/>
		<path d="M104.168,76.383V60.639h4.896c0.8,0,1.536,0.076,2.208,0.229s1.252,0.403,1.74,0.756c0.488,0.353,0.868,0.808,1.14,1.368
			c0.272,0.56,0.408,1.248,0.408,2.063c0,1.232-0.32,2.217-0.96,2.952c-0.64,0.736-1.496,1.24-2.568,1.513l4.008,6.863h-2.28
			l-3.792-6.646h-2.808v6.646H104.168z M106.16,68.104h2.616c1.232,0,2.172-0.252,2.82-0.756c0.648-0.505,0.972-1.269,0.972-2.293
			c0-1.039-0.324-1.768-0.972-2.184s-1.588-0.624-2.82-0.624h-2.616V68.104z"/>
	</g>
	<g id="A">
		<path fill="#007FFF" stroke="#000000" stroke-miterlimit="10" d="M92.307,114.322c7.164,0,12.972-5.809,12.972-12.973V88.377
			H79.334v12.973C79.334,108.514,85.142,114.322,92.307,114.322z"/>
		<path d="M85.875,108.721l5.304-15.744h2.257l5.303,15.744h-2.111l-1.488-4.799h-5.712l-1.512,4.799H85.875z M90.675,99.914
			l-0.743,2.398h4.703l-0.744-2.398c-0.271-0.881-0.539-1.756-0.804-2.629c-0.265-0.871-0.517-1.766-0.756-2.676h-0.097
			c-0.256,0.91-0.512,1.805-0.768,2.676C91.21,98.158,90.947,99.033,90.675,99.914z"/>
	</g>
	<g id="O">
		<path fill="#007FFF" stroke="#000000" stroke-miterlimit="10" d="M122.576,114.322c7.164,0,12.972-5.809,12.972-12.973l0,0V88.377
			h-25.944v12.973C109.604,108.514,115.411,114.322,122.576,114.322z"/>
		<path d="M122.574,109.01c-0.896,0-1.712-0.188-2.447-0.564c-0.736-0.375-1.373-0.909-1.908-1.614
			c-0.537-0.703-0.952-1.563-1.248-2.58c-0.297-1.021-0.444-2.172-0.444-3.474c0-1.264,0.147-2.396,0.444-3.401
			c0.296-1.015,0.711-1.854,1.248-2.545c0.535-0.688,1.172-1.22,1.908-1.584c0.735-0.367,1.551-0.558,2.447-0.558
			c0.88,0,1.692,0.188,2.437,0.558c0.743,0.364,1.384,0.896,1.92,1.584c0.536,0.688,0.952,1.53,1.248,2.545
			c0.296,1.008,0.444,2.146,0.444,3.401c0,1.302-0.148,2.453-0.444,3.474c-0.296,1.021-0.712,1.877-1.248,2.58
			c-0.536,0.705-1.177,1.239-1.92,1.614C124.267,108.822,123.454,109.01,122.574,109.01z M122.574,107.258
			c0.592,0,1.137-0.146,1.633-0.443c0.495-0.297,0.915-0.725,1.26-1.285c0.344-0.561,0.611-1.233,0.804-2.034
			c0.192-0.806,0.288-1.703,0.288-2.718c0-0.985-0.096-1.879-0.288-2.659c-0.192-0.783-0.46-1.447-0.804-1.99
			c-0.345-0.545-0.765-0.961-1.26-1.248c-0.496-0.289-1.041-0.438-1.633-0.438c-0.607,0-1.156,0.146-1.644,0.438
			c-0.488,0.287-0.904,0.703-1.248,1.248c-0.345,0.543-0.612,1.207-0.804,1.99c-0.192,0.78-0.289,1.674-0.289,2.659
			c0,1.015,0.097,1.912,0.289,2.718c0.191,0.801,0.459,1.479,0.804,2.034c0.344,0.563,0.76,0.988,1.248,1.285
			C121.418,107.111,121.967,107.258,122.574,107.258z"/>
	</g>
	<g id="_x2A_">
		<path fill="#007FFF" stroke="#000000" stroke-miterlimit="10" d="M139.871,81.891c7.164,0,12.972-5.808,12.972-12.972V25.678
			H126.9v43.24C126.899,76.084,132.707,81.891,139.871,81.891z"/>
		<path d="M136.992,59.125l-1.008-0.72l2.592-3.96l-3.889-1.681l0.385-1.104l4.008,1.32l0.216-4.536h1.151l0.217,4.536l4.008-1.32
			l0.384,1.104l-3.888,1.681l2.592,3.96l-1.008,0.72l-2.88-3.816L136.992,59.125z"/>
	</g>
	<g id="E">
		<path fill="#007FFF" stroke="#000000" stroke-miterlimit="10" d="M157.168,114.322c7.164,0,12.973-5.809,12.973-12.973V88.377
			H144.2v12.973C144.195,108.514,150.004,114.322,157.168,114.322z"/>
		<path d="M152.176,108.721V92.977h9.744v1.685h-7.729v4.94h6.527v1.703h-6.527v5.713h7.969v1.703H152.176z"/>
	</g>
	<g id="U">
		<path fill="#007FFF" stroke="#000000" stroke-miterlimit="10" d="M187.436,114.322c7.164,0,12.974-5.809,12.974-12.973V88.377
			h-25.944v12.973C174.465,108.514,180.271,114.322,187.436,114.322z"/>
		<path d="M187.459,108.865c-0.77,0-1.48-0.113-2.136-0.336c-0.656-0.225-1.222-0.588-1.692-1.094
			c-0.471-0.504-0.84-1.146-1.104-1.937c-0.271-0.778-0.396-1.744-0.396-2.881v-9.79h2.018v9.84c0,0.813,0.084,1.512,0.252,2.076
			s0.398,1.021,0.695,1.365c0.295,0.346,0.646,0.6,1.043,0.758c0.4,0.156,0.84,0.236,1.32,0.236c0.479,0,0.92-0.08,1.32-0.236
			c0.396-0.158,0.75-0.412,1.057-0.758c0.303-0.346,0.539-0.801,0.707-1.365s0.252-1.264,0.252-2.076v-9.84h1.944v9.791
			c0,1.137-0.134,2.102-0.396,2.881c-0.269,0.783-0.633,1.432-1.096,1.936c-0.466,0.506-1.021,0.869-1.669,1.094
			C188.934,108.752,188.227,108.865,187.459,108.865z"/>
	</g>
	<g id="f">
		<path fill="#007FFF" stroke="#000000" stroke-miterlimit="10" d="M157.168,25.678h25.943v25.945h-25.943V25.678z"/>
		<path d="M165.303,46.523V30.779h9.672v1.68h-7.654v5.328h6.479v1.681h-6.479v7.056L165.303,46.523z"/>
	</g>
	<g id="r">
		<path fill="#007FFF" stroke="#000000" stroke-miterlimit="10" d="M170.139,81.811c7.164,0,12.973-5.807,12.973-12.972l0,0V55.867
			H157.17l0.001,12.972C157.168,76.004,162.975,81.811,170.139,81.811z"/>
		<path d="M164.703,76.211V60.467h4.896c0.799,0,1.53,0.076,2.207,0.229c0.672,0.154,1.252,0.404,1.735,0.76
			c0.485,0.354,0.867,0.809,1.146,1.365c0.271,0.563,0.408,1.248,0.408,2.063c0,1.232-0.32,2.218-0.966,2.952
			c-0.642,0.734-1.491,1.24-2.563,1.514l4.009,6.862h-2.28l-3.791-6.646h-2.809v6.646L164.703,76.211z M166.695,67.932h2.615
			c1.229,0,2.172-0.252,2.815-0.757c0.646-0.504,0.978-1.268,0.978-2.292c0-1.04-0.324-1.768-0.978-2.184
			c-0.646-0.416-1.588-0.624-2.815-0.624h-2.615V67.932z"/>
	</g>
	<g id="p">
		<path fill="#007FFF" stroke="#000000" stroke-miterlimit="10" d="M187.404,25.678h25.945v25.945h-25.945V25.678L187.404,25.678z"
			/>
		<path d="M195.084,46.523V30.779h4.752c0.865,0,1.656,0.08,2.377,0.24c0.719,0.16,1.336,0.42,1.848,0.78
			c0.518,0.359,0.908,0.836,1.188,1.428c0.28,0.592,0.421,1.32,0.421,2.184c0,0.832-0.143,1.553-0.421,2.16
			c-0.278,0.608-0.681,1.112-1.198,1.512c-0.521,0.4-1.138,0.7-1.849,0.9c-0.713,0.2-1.5,0.3-2.364,0.3h-2.761v6.24H195.084z
			 M197.076,38.651h2.52c1.396,0,2.416-0.26,3.072-0.78s0.984-1.34,0.984-2.46c0-1.136-0.336-1.924-1.008-2.363
			c-0.672-0.44-1.689-0.66-3.049-0.66h-2.521L197.076,38.651z"/>
	</g>
	<g id="b">
		<path fill="#007FFF" stroke="#000000" stroke-miterlimit="10" d="M200.342,81.813c7.164,0,12.973-5.807,12.973-12.972V55.865
			h-25.941v12.972C187.369,76.001,193.178,81.813,200.342,81.813z"/>
		<path d="M194.967,76.29V60.546h4.463c0.801,0,1.533,0.072,2.197,0.218c0.662,0.146,1.23,0.366,1.703,0.672s0.84,0.698,1.104,1.188
			c0.27,0.487,0.396,1.076,0.396,1.765c0,0.784-0.225,1.491-0.672,2.125c-0.447,0.635-1.145,1.067-2.088,1.312v0.095
			c1.15,0.178,2.047,0.576,2.688,1.2s0.961,1.479,0.961,2.565c0,0.771-0.145,1.438-0.434,2.02c-0.287,0.574-0.691,1.057-1.211,1.438
			c-0.521,0.385-1.145,0.672-1.873,0.862c-0.729,0.188-1.531,0.287-2.41,0.287L194.967,76.29z M196.959,67.171h2.135
			c1.346,0,2.309-0.217,2.896-0.647c0.584-0.433,0.875-1.088,0.875-1.969c0-0.863-0.311-1.468-0.926-1.813
			c-0.613-0.344-1.529-0.518-2.748-0.518h-2.229L196.959,67.171z M196.959,74.609h2.543c1.359,0,2.408-0.235,3.146-0.707
			c0.73-0.473,1.104-1.243,1.104-2.315c0-0.978-0.361-1.676-1.08-2.101c-0.722-0.424-1.775-0.637-3.168-0.637h-2.545V74.609z"/>
	</g>
	<g id="l">
		<path fill="#007FFF" stroke="#000000" stroke-miterlimit="10" d="M217.705,25.678h25.943v25.945h-25.943V25.678L217.705,25.678z"
			/>
		<path d="M225.792,46.523V30.779h1.968v14.04h7.801v1.704H225.792z"/>
	</g>
	<g id="g">
		<path fill="#007FFF" stroke="#000000" stroke-miterlimit="10" d="M230.678,81.891c7.164,0,12.973-5.808,12.973-12.972V55.947
			h-25.941l0.002,12.972C217.705,76.084,223.512,81.891,230.678,81.891z"/>
		<path d="M231.732,76.58c-0.992,0-1.904-0.186-2.736-0.553s-1.551-0.9-2.16-1.598c-0.605-0.693-1.08-1.556-1.416-2.566
			c-0.336-1.018-0.504-2.164-0.504-3.444c0-1.265,0.172-2.403,0.518-3.42s0.822-1.872,1.439-2.567
			c0.615-0.695,1.352-1.229,2.207-1.604c0.857-0.376,1.797-0.564,2.82-0.564c0.529,0,1.008,0.057,1.438,0.168
			c0.436,0.112,0.828,0.257,1.188,0.444c0.357,0.188,0.684,0.39,0.959,0.608c0.277,0.228,0.529,0.455,0.76,0.695l-1.127,1.271
			c-0.389-0.416-0.824-0.76-1.319-1.032c-0.495-0.271-1.13-0.408-1.896-0.408c-0.734,0-1.402,0.148-2.004,0.444
			c-0.603,0.296-1.114,0.72-1.547,1.271c-0.438,0.553-0.77,1.221-0.996,2.004c-0.23,0.785-0.353,1.664-0.353,2.641
			c0,0.992,0.106,1.884,0.323,2.676c0.218,0.793,0.527,1.469,0.938,2.029c0.404,0.561,0.914,0.992,1.521,1.295
			c0.604,0.305,1.295,0.457,2.063,0.457c0.562,0,1.08-0.084,1.562-0.252s0.873-0.396,1.177-0.686v-4.104h-3.146V68.13h4.99v6.624
			c-0.496,0.514-1.146,0.945-1.955,1.297C233.67,76.402,232.756,76.58,231.732,76.58z"/>
	</g>
	<g id="t">
		<path fill="#007FFF" stroke="#000000" stroke-miterlimit="10" d="M247.973,25.678h25.942v25.945h-25.942V25.678z"/>
		<path d="M259.938,46.523V32.458h-5.186v-1.68h12.385v1.68h-5.185v14.064L259.938,46.523z"/>
	</g>
	<g id="s">
		<path fill="#007FFF" stroke="#000000" stroke-miterlimit="10" d="M260.945,81.891c7.164,0,12.972-5.808,12.972-12.972V55.947
			h-25.944v12.972C247.973,76.084,253.779,81.891,260.945,81.891z"/>
		<path d="M261.016,76.58c-1.146,0-2.211-0.209-3.18-0.625s-1.813-0.984-2.531-1.703l1.199-1.393
			c0.592,0.592,1.279,1.063,2.064,1.428c0.783,0.361,1.631,0.541,2.543,0.541c1.088,0,1.932-0.232,2.533-0.697
			c0.6-0.463,0.896-1.063,0.896-1.799c0-0.416-0.067-0.768-0.215-1.057c-0.146-0.287-0.345-0.535-0.603-0.744
			c-0.261-0.208-0.56-0.393-0.897-0.553c-0.345-0.16-0.718-0.328-1.116-0.504l-2.257-0.983c-0.397-0.16-0.8-0.353-1.198-0.576
			s-0.766-0.496-1.093-0.815c-0.328-0.32-0.599-0.699-0.806-1.141c-0.207-0.439-0.313-0.947-0.313-1.523
			c0-0.592,0.127-1.145,0.383-1.656c0.257-0.51,0.612-0.951,1.068-1.327c0.455-0.376,1-0.668,1.633-0.876
			c0.631-0.208,1.322-0.313,2.074-0.313c0.991,0,1.903,0.181,2.735,0.54c0.832,0.36,1.537,0.828,2.109,1.404l-1.061,1.296
			c-0.512-0.464-1.077-0.828-1.702-1.092c-0.622-0.269-1.347-0.396-2.157-0.396c-0.914,0-1.646,0.201-2.209,0.609
			s-0.841,0.975-0.841,1.689c0,0.387,0.085,0.709,0.253,0.975c0.168,0.264,0.383,0.496,0.646,0.693
			c0.266,0.201,0.563,0.373,0.896,0.519s0.672,0.288,1.008,0.435l2.207,0.959c0.479,0.19,0.936,0.412,1.354,0.658
			c0.424,0.248,0.793,0.536,1.104,0.864s0.562,0.712,0.743,1.151c0.188,0.438,0.271,0.945,0.271,1.521
			c0,0.625-0.129,1.209-0.385,1.752c-0.259,0.549-0.623,1.021-1.104,1.434c-0.479,0.402-1.063,0.729-1.754,0.961
			C262.657,76.463,261.881,76.58,261.016,76.58z"/>
	</g>
	<g id="d">
		<path fill="#007FFF" stroke="#000000" stroke-miterlimit="10" d="M278.232,25.678h25.938v25.945h-25.938V25.678z"/>
		<path d="M285.611,46.523V30.779h3.888c2.386,0,4.196,0.672,5.437,2.017c1.24,1.344,1.861,3.271,1.861,5.783
			c0,2.513-0.621,4.464-1.861,5.856c-1.234,1.392-3.021,2.088-5.34,2.088H285.611z M287.604,44.891h1.752
			c1.813,0,3.156-0.552,4.045-1.656c0.892-1.104,1.332-2.655,1.332-4.656c0-2-0.44-3.527-1.332-4.584
			c-0.889-1.056-2.232-1.584-4.045-1.584h-1.752V44.891z"/>
	</g>
	<g id="z">
		<path fill="#007FFF" stroke="#000000" stroke-miterlimit="10" d="M291.205,81.811c7.164,0,12.972-5.807,12.972-12.972l0,0V55.867
			h-25.94l0.003,12.972C278.23,76.004,284.039,81.811,291.205,81.811z"/>
		<path d="M285.516,76.223v-1.199l8.783-12.888h-8.017v-1.68h10.487v1.198l-8.813,12.863h8.933v1.705H285.516L285.516,76.223z"/>
	</g>
	<g id="_x23_">
		<path fill="#007FFF" stroke="#000000" stroke-miterlimit="10" d="M5.826,6.356h298.347v15H5.826V6.356z"/>
		<path d="M49.517,19.707l0.449-3.672H47.59l-0.449,3.672h-0.973l0.45-3.672h-1.439v-1.026h1.565l0.324-2.664h-1.53V11.3h1.657
			l0.414-3.294h0.954L48.167,11.3h2.376l0.414-3.294h0.953L51.514,11.3h1.438v1.044h-1.564l-0.324,2.664h1.53v1.026H50.94
			l-0.451,3.672L49.517,19.707z M50.093,15.007l0.323-2.664H48.04l-0.324,2.664H50.093z"/>
		<path d="M102.547,19.707l0.449-3.672h-2.376l-0.449,3.672h-0.973l0.45-3.672h-1.439v-1.026h1.565l0.324-2.664h-1.53V11.3h1.657
			l0.414-3.294h0.954l-0.396,3.294h2.376l0.414-3.294h0.953l-0.396,3.294h1.438v1.044h-1.564l-0.324,2.664h1.53v1.026h-1.655
			l-0.451,3.672L102.547,19.707z M103.123,15.007l0.323-2.664h-2.376l-0.324,2.664H103.123z"/>
		<path d="M155.451,19.707l0.449-3.672h-2.375l-0.449,3.672h-0.973l0.45-3.672h-1.439v-1.026h1.564l0.324-2.664h-1.529V11.3h1.656
			l0.414-3.294h0.955l-0.396,3.294h2.375l0.414-3.294h0.953l-0.395,3.294h1.438v1.044h-1.563L157,15.008h1.529v1.026h-1.654
			l-0.451,3.672L155.451,19.707z M156.027,15.007l0.322-2.664h-2.375l-0.324,2.664H156.027z"/>
		<path d="M208.302,19.707l0.449-3.672h-2.377l-0.449,3.672h-0.973l0.45-3.672h-1.438v-1.026h1.563l0.324-2.664h-1.529V11.3h1.656
			l0.414-3.294h0.955l-0.396,3.294h2.375l0.414-3.294h0.953l-0.396,3.294h1.438v1.044h-1.563l-0.322,2.664h1.529v1.026h-1.654
			l-0.451,3.672L208.302,19.707z M208.878,15.007l0.322-2.664h-2.375l-0.324,2.664H208.878z"/>
		<path d="M261.396,19.707l0.449-3.672h-2.38l-0.446,3.672h-0.976l0.45-3.672h-1.438v-1.026h1.563l0.322-2.664h-1.528V11.3h1.657
			l0.412-3.294h0.955l-0.396,3.294h2.375l0.414-3.294h0.953l-0.396,3.294h1.438v1.044h-1.563l-0.324,2.664h1.531v1.026h-1.656
			l-0.449,3.672L261.396,19.707z M261.973,15.007l0.322-2.664h-2.375l-0.324,2.664H261.973z"/>
	</g>
</g>
<g id="Numbers">
	<g id="AltS">
		<path fill="#007FFF" stroke="#000000" stroke-miterlimit="10" d="M18.798,81.891c7.165,0,12.972-5.808,12.972-12.972V25.678H5.825
			v43.24C5.825,76.084,11.634,81.891,18.798,81.891z"/>
		<g>
			<path d="M13.828,60.73v-1.631h4.416v-11.28h-3.432v-1.271c0.912-0.128,1.672-0.28,2.28-0.456c0.608-0.176,1.16-0.4,1.656-0.672
				h1.464V59.1h4.008v1.632H13.828V60.73z"/>
		</g>
	</g>
	<g id="AltT">
		<path fill="#007FFF" stroke="#000000" stroke-miterlimit="10" d="M36.094,25.678h25.945v25.945H36.094V25.678z"/>
		<path d="M43.726,46.451v-1.176c1.296-1.152,2.444-2.192,3.444-3.12c1-0.928,1.84-1.78,2.52-2.556s1.196-1.5,1.548-2.173
			c0.352-0.672,0.528-1.327,0.528-1.968c0-0.88-0.272-1.6-0.816-2.16s-1.384-0.84-2.52-0.84c-0.72,0-1.388,0.181-2.004,0.54
			c-0.616,0.36-1.172,0.796-1.668,1.309l-1.128-1.129c0.688-0.703,1.428-1.268,2.22-1.691c0.792-0.423,1.732-0.636,2.82-0.636
			c0.768,0,1.46,0.107,2.076,0.323c0.616,0.217,1.14,0.521,1.572,0.912c0.432,0.393,0.764,0.868,0.996,1.429
			c0.232,0.56,0.348,1.176,0.348,1.848c0,0.72-0.172,1.444-0.516,2.172c-0.344,0.729-0.828,1.48-1.452,2.256
			s-1.368,1.584-2.232,2.424c-0.864,0.84-1.816,1.732-2.856,2.677c0.48-0.032,0.96-0.064,1.44-0.097
			c0.48-0.031,0.952-0.048,1.416-0.048h5.04v1.704H43.726z"/>
	</g>
	<g id="AltP">
		<path fill="#007FFF" stroke="#000000" stroke-miterlimit="10" d="M66.362,25.678h25.945v25.945H66.362V25.678z"/>
		<path d="M79.323,46.594c-1.329,0-2.44-0.22-3.336-0.66c-0.896-0.439-1.624-0.939-2.184-1.5l1.008-1.296
			c0.512,0.479,1.124,0.904,1.836,1.271c0.712,0.369,1.564,0.553,2.556,0.553c0.528,0,1.016-0.068,1.464-0.204
			c0.448-0.136,0.836-0.324,1.164-0.564c0.328-0.239,0.584-0.531,0.768-0.876c0.184-0.344,0.276-0.731,0.276-1.164
			c0-0.447-0.1-0.859-0.3-1.235c-0.2-0.376-0.524-0.7-0.972-0.973c-0.448-0.271-1.024-0.479-1.728-0.624
			c-0.704-0.144-1.56-0.216-2.568-0.216v-1.512c0.912,0,1.684-0.072,2.316-0.216c0.632-0.145,1.148-0.344,1.548-0.601
			c0.4-0.256,0.692-0.56,0.876-0.912c0.184-0.352,0.276-0.728,0.276-1.128c0-0.752-0.285-1.344-0.852-1.775
			c-0.568-0.433-1.324-0.648-2.268-0.648c-0.72,0-1.4,0.145-2.04,0.433c-0.64,0.287-1.216,0.664-1.728,1.128l-1.056-1.248
			c0.64-0.561,1.368-1.021,2.184-1.38c0.816-0.36,1.72-0.54,2.712-0.54c0.72,0,1.388,0.088,2.004,0.264
			c0.616,0.176,1.152,0.428,1.608,0.756c0.456,0.328,0.812,0.732,1.068,1.212s0.384,1.032,0.384,1.656
			c0,0.928-0.304,1.688-0.912,2.28c-0.608,0.592-1.392,1.048-2.352,1.367v0.097c0.512,0.112,0.996,0.275,1.452,0.492
			c0.456,0.216,0.86,0.488,1.212,0.815c0.352,0.328,0.627,0.708,0.828,1.141c0.2,0.432,0.3,0.911,0.3,1.439
			c0,0.672-0.144,1.28-0.432,1.824s-0.684,1.004-1.188,1.38s-1.092,0.664-1.764,0.864S80.091,46.594,79.323,46.594z"/>
	</g>
	<g id="AltH">
		<path fill="#007FFF" stroke="#000000" stroke-miterlimit="10" d="M96.632,25.678h25.944v25.945H96.632V25.678z"/>
		<path d="M111.428,46.306v-4.224h-7.896v-1.32l7.656-9.768h2.112v9.504h2.376v1.584H113.3v4.224H111.428z M105.716,40.499h5.712
			v-4.752c0.016-0.416,0.031-0.868,0.048-1.356c0.016-0.488,0.04-0.939,0.072-1.356h-0.12c-0.24,0.369-0.496,0.74-0.768,1.116
			s-0.537,0.748-0.793,1.116L105.716,40.499z"/>
	</g>
	<g id="AltA">
		<path fill="#007FFF" stroke="#000000" stroke-miterlimit="10" d="M92.307,114.322c7.164,0,12.972-5.809,12.972-12.973V88.377
			H79.334v12.973C79.334,108.514,85.142,114.322,92.307,114.322z"/>
		<path d="M92.234,109.148c-0.688,0-1.308-0.063-1.86-0.183c-0.552-0.116-1.048-0.272-1.488-0.469c-0.44-0.188-0.84-0.411-1.2-0.659
			s-0.684-0.508-0.972-0.777l0.984-1.295c0.256,0.224,0.528,0.439,0.816,0.656c0.288,0.219,0.604,0.403,0.948,0.563
			c0.344,0.16,0.728,0.287,1.152,0.386c0.424,0.097,0.892,0.146,1.404,0.146c0.544,0,1.052-0.084,1.524-0.252
			s0.884-0.404,1.236-0.709c0.352-0.306,0.627-0.674,0.828-1.104c0.199-0.434,0.3-0.912,0.3-1.438c0-1.059-0.341-1.882-1.02-2.475
			c-0.68-0.592-1.596-0.891-2.748-0.891c-0.64,0-1.184,0.08-1.632,0.24c-0.448,0.159-0.944,0.395-1.488,0.694l-1.056-0.672
			l0.504-7.367h8.664v1.703h-6.912l-0.408,4.536c0.448-0.189,0.884-0.346,1.308-0.456c0.424-0.111,0.932-0.168,1.524-0.168
			c0.736,0,1.424,0.098,2.064,0.288c0.64,0.191,1.195,0.482,1.668,0.876c0.472,0.393,0.844,0.889,1.116,1.487
			c0.272,0.6,0.407,1.313,0.407,2.146c0,0.833-0.155,1.565-0.467,2.208c-0.313,0.645-0.732,1.184-1.261,1.62
			c-0.528,0.438-1.132,0.772-1.812,1.009C93.678,109.033,92.97,109.148,92.234,109.148z"/>
	</g>
	<g id="AltO">
		<path fill="#007FFF" stroke="#000000" stroke-miterlimit="10" d="M122.576,114.529c7.164,0,12.972-5.809,12.972-12.973l0,0V88.585
			h-25.944v12.974C109.604,108.723,115.411,114.529,122.576,114.529z"/>
		<path d="M126.607,95.422c-0.976-1.344-2.32-2.016-4.032-2.016c-1.712,0-3.056,0.672-4.031,2.016
			c-0.977,1.344-1.464,3.303-1.464,5.88c0,2.562,0.488,4.531,1.464,5.916c0.976,1.384,2.319,2.076,4.031,2.076
			c1.712,0,3.057-0.692,4.032-2.076c0.976-1.385,1.464-3.354,1.464-5.916C128.071,98.725,127.583,96.766,126.607,95.422z
			 M119.191,98.457c0.176-0.791,0.428-1.447,0.756-1.967c0.328-0.521,0.716-0.9,1.164-1.141c0.448-0.242,0.937-0.359,1.464-0.359
			c0.528,0,1.017,0.119,1.464,0.359c0.448,0.236,0.836,0.615,1.164,1.141c0.313,0.494,0.551,1.121,0.726,1.863l-6.957,4.017
			c-0.021-0.347-0.044-0.688-0.044-1.068C118.927,100.198,119.015,99.25,119.191,98.457z M125.203,106.148
			c-0.68,1.041-1.556,1.562-2.628,1.562c-1.072,0-1.948-0.521-2.628-1.562c-0.312-0.479-0.543-1.09-0.712-1.813l6.96-4.021
			c0.017,0.313,0.029,0.64,0.029,0.979C126.223,103.493,125.883,105.109,125.203,106.148z"/>
	</g>
	<g id="AltE">
		<path fill="#007FFF" stroke="#000000" stroke-miterlimit="10" d="M157.17,114.323c7.164,0,7.543,0,15.168,0V88.376H144.2v12.974
			C144.197,108.514,150.006,114.323,157.17,114.323z"/>
		<path id="LArrow_1_" d="M154.717,100.438l0.727,0.793l-3.474,3.232h42.938v1.176H151.97l3.474,3.23l-0.727,0.794L150,105.084
			v-0.068L154.717,100.438z"/>
		<path id="RArrow_1_" d="M190.189,100.438l-0.729-0.795l3.477-3.229H150v-1.177h42.938l-3.474-3.229l0.728-0.794l4.719,4.579v0.065
			L190.189,100.438z"/>
	</g>
	<g id="AltU">
		<path fill="#007FFF" stroke="#000000" stroke-miterlimit="10" d="M200.477,101.35V88.377h-28.139v25.947c7.625,0,8.004,0,15.168,0
			S200.479,108.514,200.477,101.35z"/>
		<path id="LArrow" d="M154.717,100.438l0.727,0.793l-3.474,3.232h42.938v1.176H151.97l3.474,3.23l-0.727,0.794L150,105.084v-0.068
			L154.717,100.438z"/>
		<path id="RArrow" d="M190.189,100.438l-0.729-0.795l3.477-3.229H150v-1.177h42.938l-3.474-3.229l0.728-0.794l4.719,4.579v0.065
			L190.189,100.438z"/>
	</g>
	<g id="Altf">
		<path fill="#007FFF" stroke="#000000" stroke-miterlimit="10" d="M157.168,25.678h25.943v25.945h-25.943V25.678z"/>
		<path d="M170.512,46.596c-0.832,0-1.604-0.152-2.316-0.457c-0.713-0.303-1.332-0.764-1.856-1.379
			c-0.524-0.617-0.938-1.385-1.231-2.305c-0.297-0.92-0.444-1.996-0.444-3.229c0-1.535,0.176-2.843,0.528-3.923
			c0.352-1.08,0.82-1.96,1.416-2.64c0.592-0.681,1.271-1.177,2.051-1.488c0.777-0.313,1.58-0.468,2.412-0.468
			c0.941,0,1.765,0.155,2.461,0.468c0.695,0.312,1.299,0.7,1.812,1.164l-1.104,1.224c-0.396-0.368-0.859-0.66-1.391-0.876
			c-0.529-0.216-1.08-0.324-1.656-0.324c-0.605,0-1.188,0.112-1.752,0.336c-0.561,0.225-1.053,0.593-1.477,1.104
			c-0.424,0.511-0.768,1.188-1.031,2.028c-0.265,0.84-0.404,1.875-0.421,3.108c0.624-0.607,1.312-1.092,2.063-1.453
			c0.752-0.359,1.513-0.539,2.281-0.539c0.701,0,1.348,0.1,1.932,0.301c0.584,0.199,1.088,0.496,1.512,0.887
			c0.424,0.393,0.752,0.885,0.984,1.477c0.229,0.592,0.348,1.279,0.348,2.064c0,0.736-0.141,1.404-0.42,2.004
			c-0.279,0.6-0.652,1.115-1.115,1.547c-0.465,0.432-1.005,0.77-1.621,1.008C171.852,46.475,171.199,46.596,170.512,46.596z
			 M170.512,45.035c0.447,0,0.871-0.08,1.271-0.24s0.744-0.387,1.031-0.684c0.289-0.297,0.517-0.648,0.685-1.057
			c0.168-0.409,0.252-0.867,0.252-1.379c0-1.057-0.28-1.861-0.84-2.412c-0.56-0.553-1.368-0.828-2.425-0.828
			c-0.607,0-1.26,0.16-1.955,0.48c-0.696,0.32-1.348,0.848-1.956,1.584c0.144,1.486,0.556,2.615,1.235,3.383
			C168.491,44.65,169.391,45.035,170.512,45.035z"/>
	</g>
	<g id="Altp">
		<path fill="#007FFF" stroke="#000000" stroke-miterlimit="10" d="M187.404,25.678h25.945v25.945h-25.945V25.678L187.404,25.678z"
			/>
		<path d="M198.545,46.306c0.063-1.455,0.199-2.779,0.408-3.971c0.207-1.193,0.512-2.324,0.912-3.396
			c0.398-1.072,0.906-2.113,1.523-3.121c0.611-1.008,1.359-2.048,2.24-3.12h-8.83v-1.703h11.09v1.224
			c-1.01,1.152-1.842,2.256-2.496,3.313c-0.656,1.057-1.186,2.133-1.584,3.229c-0.398,1.096-0.688,2.252-0.863,3.467
			c-0.178,1.217-0.287,2.576-0.338,4.08L198.545,46.306z"/>
	</g>
	<g id="Altb">
		<path fill="#007FFF" stroke="#000000" stroke-miterlimit="10" d="M200.342,81.813c7.164,0,7.543,0,15.168,0V55.865h-28.138v12.972
			C187.369,76.001,193.178,81.813,200.342,81.813z"/>
		<path d="M237.713,63.568c-0.876-1.207-2.085-1.811-3.623-1.811c-1.535,0-2.744,0.604-3.621,1.811s-1.314,2.969-1.314,5.281
			c0,2.299,0.438,4.07,1.314,5.313c0.875,1.241,2.083,1.864,3.621,1.864s2.747-0.623,3.623-1.864
			c0.876-1.243,1.313-3.015,1.313-5.313C239.025,66.537,238.589,64.775,237.713,63.568z M231.052,66.296
			c0.157-0.71,0.384-1.301,0.679-1.769c0.295-0.469,0.643-0.81,1.045-1.022c0.4-0.216,0.843-0.323,1.314-0.323
			c0.477,0,0.914,0.107,1.314,0.323c0.404,0.216,0.752,0.556,1.047,1.022c0.279,0.443,0.494,1.009,0.652,1.675l-6.25,3.61
			c-0.02-0.313-0.041-0.621-0.041-0.963C230.813,67.859,230.895,67.009,231.052,66.296z M236.451,73.203
			c-0.611,0.936-1.396,1.4-2.361,1.4c-0.963,0-1.748-0.467-2.359-1.4c-0.279-0.428-0.487-0.979-0.641-1.626l6.252-3.606
			c0.016,0.277,0.027,0.57,0.027,0.879C237.367,70.818,237.063,72.271,236.451,73.203z"/>
		<path d="M226.225,63.459c-0.873-1.208-2.082-1.811-3.621-1.811c-1.537,0-2.746,0.603-3.621,1.811
			c-0.879,1.207-1.313,2.967-1.313,5.281c0,2.3,0.437,4.07,1.313,5.313c0.875,1.242,2.082,1.865,3.621,1.865
			c1.537,0,2.746-0.623,3.621-1.865c0.877-1.242,1.316-3.014,1.316-5.313C227.537,66.426,227.102,64.666,226.225,63.459z
			 M219.563,66.186c0.158-0.709,0.386-1.301,0.68-1.767c0.294-0.469,0.645-0.812,1.047-1.024c0.4-0.218,0.839-0.322,1.313-0.322
			c0.475,0,0.916,0.105,1.315,0.322c0.403,0.217,0.75,0.557,1.046,1.024c0.28,0.442,0.494,1.006,0.653,1.673l-6.25,3.609
			c-0.021-0.313-0.04-0.618-0.04-0.961C219.327,67.749,219.406,66.898,219.563,66.186z M224.964,73.093
			c-0.612,0.937-1.397,1.404-2.36,1.404c-0.965,0-1.75-0.47-2.36-1.404c-0.28-0.424-0.487-0.977-0.64-1.624l6.252-3.607
			c0.017,0.279,0.024,0.572,0.024,0.878C225.878,70.709,225.575,72.16,224.964,73.093z"/>
		<path d="M211.344,66.854c-0.49,0-0.904-0.166-1.242-0.498c-0.338-0.33-0.508-0.771-0.508-1.317s0.17-0.989,0.508-1.327
			c0.338-0.339,0.752-0.508,1.242-0.508c0.488,0,0.903,0.169,1.24,0.508c0.339,0.338,0.509,0.78,0.509,1.327
			c0,0.548-0.17,0.987-0.509,1.317C212.247,66.688,211.832,66.854,211.344,66.854z M211.344,74.585c-0.49,0-0.904-0.166-1.242-0.497
			s-0.508-0.771-0.508-1.316c0-0.547,0.17-0.99,0.508-1.33c0.338-0.336,0.752-0.506,1.242-0.506c0.488,0,0.903,0.17,1.24,0.506
			c0.339,0.34,0.509,0.783,0.509,1.33s-0.17,0.985-0.509,1.316C212.247,74.419,211.832,74.585,211.344,74.585z"/>
		<path d="M202.588,75.729l0.539-4.405h-2.852l-0.539,4.405h-1.166l0.539-4.405h-1.728v-1.231h1.879l0.39-3.197h-1.836v-1.252h1.986
			l0.497-3.953h1.146l-0.477,3.953h2.852l0.496-3.953h1.146l-0.475,3.953h1.727v1.252h-1.878l-0.39,3.197h1.837v1.231h-1.987
			l-0.541,4.405H202.588z M203.279,70.092l0.389-3.197h-2.852l-0.39,3.197H203.279z"/>
	</g>
	<g id="Altl">
		<path fill="#007FFF" stroke="#000000" stroke-miterlimit="10" d="M217.705,25.678h25.943v25.945h-25.943V25.678L217.705,25.678z"
			/>
		<path d="M230.734,46.594c-0.865,0-1.646-0.104-2.34-0.313c-0.697-0.207-1.285-0.5-1.769-0.877
			c-0.479-0.375-0.854-0.818-1.112-1.332c-0.268-0.512-0.396-1.07-0.396-1.68c0-0.527,0.097-1,0.289-1.416
			c0.191-0.416,0.439-0.791,0.744-1.127c0.303-0.336,0.647-0.629,1.043-0.877c0.393-0.248,0.797-0.467,1.213-0.66v-0.096
			c-0.641-0.398-1.188-0.891-1.646-1.477c-0.455-0.583-0.685-1.283-0.685-2.099c0-0.592,0.112-1.128,0.348-1.608
			c0.231-0.479,0.563-0.892,0.984-1.235c0.423-0.343,0.924-0.612,1.5-0.804c0.573-0.192,1.206-0.288,1.896-0.288
			c0.752,0,1.42,0.1,2.006,0.3c0.582,0.2,1.078,0.479,1.485,0.84c0.408,0.361,0.722,0.792,0.938,1.296
			c0.215,0.504,0.322,1.053,0.322,1.645c0,0.72-0.229,1.396-0.687,2.027c-0.456,0.633-1.005,1.174-1.646,1.621v0.096
			c0.416,0.207,0.81,0.432,1.176,0.672c0.367,0.24,0.688,0.512,0.959,0.816c0.271,0.305,0.483,0.66,0.64,1.068
			c0.151,0.408,0.229,0.883,0.229,1.428c0,0.576-0.125,1.111-0.373,1.607s-0.604,0.928-1.066,1.297
			c-0.464,0.367-1.036,0.656-1.717,0.863C232.395,46.489,231.613,46.594,230.734,46.594z M230.781,45.129
			c1.152,0,2.031-0.248,2.641-0.744c0.607-0.496,0.912-1.143,0.912-1.943c0-0.527-0.125-0.973-0.372-1.332
			c-0.249-0.359-0.588-0.668-1.021-0.924c-0.436-0.256-0.939-0.484-1.523-0.684c-0.584-0.201-1.212-0.412-1.885-0.637
			c-0.752,0.416-1.375,0.885-1.871,1.404s-0.744,1.164-0.744,1.932c0,0.863,0.348,1.568,1.044,2.111
			C228.658,44.858,229.598,45.129,230.781,45.129z M231.934,37.954c1.28-0.928,1.92-1.952,1.92-3.072
			c0-0.769-0.264-1.412-0.791-1.933c-0.525-0.52-1.297-0.779-2.305-0.779c-0.863,0-1.561,0.224-2.088,0.672
			c-0.527,0.448-0.792,1.048-0.792,1.8c0,0.464,0.104,0.86,0.312,1.188c0.209,0.328,0.496,0.62,0.865,0.875
			c0.367,0.256,0.795,0.484,1.283,0.684C230.826,37.59,231.357,37.778,231.934,37.954z"/>
	</g>
	<g id="Altg">
		<path fill="#007FFF" stroke="#000000" stroke-miterlimit="10" d="M243.646,68.837V55.865H215.51v25.947c7.625,0,8.004,0,15.168,0
			S243.65,76.001,243.646,68.837z"/>
		<path d="M237.713,63.568c-0.876-1.207-2.085-1.811-3.623-1.811c-1.535,0-2.744,0.604-3.621,1.811s-1.314,2.969-1.314,5.281
			c0,2.299,0.438,4.07,1.314,5.313c0.875,1.241,2.083,1.864,3.621,1.864s2.747-0.623,3.623-1.864
			c0.876-1.243,1.313-3.015,1.313-5.313C239.025,66.537,238.589,64.775,237.713,63.568z M231.052,66.296
			c0.157-0.71,0.384-1.301,0.679-1.769c0.295-0.469,0.643-0.81,1.045-1.022c0.4-0.216,0.843-0.323,1.314-0.323
			c0.477,0,0.914,0.107,1.314,0.323c0.404,0.216,0.752,0.556,1.047,1.022c0.279,0.443,0.494,1.009,0.652,1.675l-6.25,3.61
			c-0.02-0.313-0.041-0.621-0.041-0.963C230.813,67.859,230.895,67.009,231.052,66.296z M236.451,73.203
			c-0.611,0.936-1.396,1.4-2.361,1.4c-0.963,0-1.748-0.467-2.359-1.4c-0.279-0.428-0.487-0.979-0.641-1.626l6.252-3.606
			c0.016,0.277,0.027,0.57,0.027,0.879C237.367,70.818,237.063,72.271,236.451,73.203z"/>
		<path d="M226.225,63.459c-0.873-1.208-2.082-1.811-3.621-1.811c-1.537,0-2.746,0.603-3.621,1.811
			c-0.879,1.207-1.313,2.967-1.313,5.281c0,2.3,0.437,4.07,1.313,5.313c0.875,1.242,2.082,1.865,3.621,1.865
			c1.537,0,2.746-0.623,3.621-1.865c0.877-1.242,1.316-3.014,1.316-5.313C227.537,66.426,227.102,64.666,226.225,63.459z
			 M219.563,66.186c0.158-0.709,0.386-1.301,0.68-1.767c0.294-0.469,0.645-0.812,1.047-1.024c0.4-0.218,0.839-0.322,1.313-0.322
			c0.475,0,0.916,0.105,1.315,0.322c0.403,0.217,0.75,0.557,1.046,1.024c0.28,0.442,0.494,1.006,0.653,1.673l-6.25,3.609
			c-0.021-0.313-0.04-0.618-0.04-0.961C219.327,67.749,219.406,66.898,219.563,66.186z M224.964,73.093
			c-0.612,0.937-1.397,1.404-2.36,1.404c-0.965,0-1.75-0.47-2.36-1.404c-0.28-0.424-0.487-0.977-0.64-1.624l6.252-3.607
			c0.017,0.279,0.024,0.572,0.024,0.878C225.878,70.709,225.575,72.16,224.964,73.093z"/>
		<path d="M211.344,66.854c-0.49,0-0.904-0.166-1.242-0.498c-0.338-0.33-0.508-0.771-0.508-1.317s0.17-0.989,0.508-1.327
			c0.338-0.339,0.752-0.508,1.242-0.508c0.488,0,0.903,0.169,1.24,0.508c0.339,0.338,0.509,0.78,0.509,1.327
			c0,0.548-0.17,0.987-0.509,1.317C212.247,66.688,211.832,66.854,211.344,66.854z M211.344,74.585c-0.49,0-0.904-0.166-1.242-0.497
			s-0.508-0.771-0.508-1.316c0-0.547,0.17-0.99,0.508-1.33c0.338-0.336,0.752-0.506,1.242-0.506c0.488,0,0.903,0.17,1.24,0.506
			c0.339,0.34,0.509,0.783,0.509,1.33s-0.17,0.985-0.509,1.316C212.247,74.419,211.832,74.585,211.344,74.585z"/>
		<path d="M202.588,75.729l0.539-4.405h-2.852l-0.539,4.405h-1.166l0.539-4.405h-1.728v-1.231h1.879l0.39-3.197h-1.836v-1.252h1.986
			l0.497-3.953h1.146l-0.477,3.953h2.852l0.496-3.953h1.146l-0.475,3.953h1.727v1.252h-1.878l-0.39,3.197h1.837v1.231h-1.987
			l-0.541,4.405H202.588z M203.279,70.092l0.389-3.197h-2.852l-0.39,3.197H203.279z"/>
	</g>
	<g id="Altt">
		<path fill="#007FFF" stroke="#000000" stroke-miterlimit="10" d="M247.973,25.678h25.942v25.945h-25.942V25.678z"/>
		<path d="M260.021,46.596c-0.944,0-1.769-0.152-2.461-0.457c-0.694-0.303-1.304-0.688-1.813-1.152l1.104-1.248
			c0.385,0.369,0.84,0.664,1.366,0.889s1.091,0.336,1.683,0.336c0.604,0,1.188-0.111,1.74-0.336
			c0.551-0.225,1.036-0.596,1.463-1.115c0.424-0.52,0.766-1.197,1.021-2.029c0.256-0.83,0.397-1.863,0.433-3.096
			c-0.623,0.609-1.31,1.088-2.054,1.439c-0.743,0.354-1.508,0.529-2.291,0.529c-0.705,0-1.351-0.1-1.933-0.301
			c-0.586-0.199-1.086-0.496-1.5-0.887c-0.418-0.393-0.739-0.885-0.973-1.477c-0.232-0.592-0.351-1.28-0.351-2.064
			c0-0.736,0.135-1.404,0.408-2.004c0.271-0.601,0.643-1.116,1.112-1.549c0.475-0.432,1.019-0.768,1.633-1.008
			c0.615-0.24,1.263-0.359,1.935-0.359c0.832,0,1.604,0.152,2.328,0.456c0.721,0.304,1.344,0.764,1.871,1.38
			c0.526,0.616,0.938,1.384,1.233,2.304c0.297,0.92,0.443,1.997,0.443,3.227c0,1.537-0.181,2.846-0.54,3.926
			c-0.358,1.08-0.836,1.959-1.428,2.639c-0.593,0.682-1.271,1.176-2.041,1.488C261.652,46.439,260.852,46.596,260.021,46.596z
			 M260.598,38.867c0.607,0,1.256-0.16,1.943-0.48c0.688-0.32,1.344-0.84,1.967-1.561c-0.158-1.502-0.57-2.639-1.234-3.407
			c-0.664-0.769-1.563-1.152-2.697-1.152c-0.467,0-0.896,0.08-1.283,0.24c-0.396,0.16-0.729,0.388-1.021,0.684
			c-0.289,0.297-0.519,0.652-0.687,1.068s-0.252,0.872-0.252,1.368c0,1.056,0.274,1.859,0.828,2.412
			C258.713,38.592,259.523,38.867,260.598,38.867z"/>
	</g>
	<g id="Altd">
		<path fill="#007FFF" stroke="#000000" stroke-miterlimit="10" d="M278.232,25.678h25.938v25.945h-25.938V25.678z"/>
		<path d="M286.868,44.5l0.448-3.672h-2.375l-0.449,3.672h-0.973l0.446-3.672h-1.438v-1.027h1.564l0.323-2.662h-1.53v-1.047h1.657
			l0.414-3.293h0.953l-0.396,3.293h2.375l0.414-3.293h0.951l-0.396,3.293h1.438v1.045h-1.563l-0.323,2.664h1.528v1.025h-1.653
			l-0.451,3.672h-0.972V44.5H286.868z M287.443,39.801l0.324-2.664h-2.377l-0.324,2.664H287.443z"/>
		<path d="M296.441,44.5l0.449-3.672h-2.377l-0.449,3.672h-0.975l0.449-3.672h-1.438v-1.026h1.563l0.324-2.663h-1.531v-1.046h1.658
			l0.413-3.294h0.953l-0.396,3.294h2.376l0.414-3.294h0.953l-0.396,3.294h1.438v1.044h-1.563l-0.324,2.664h1.531v1.026h-1.656
			l-0.449,3.672L296.441,44.5z M297.018,39.801l0.323-2.664h-2.376l-0.324,2.664H297.018z"/>
	</g>
	<g id="Altz">
		<path fill="#007FFF" stroke="#000000" stroke-miterlimit="10" d="M291.205,81.811c7.164,0,12.972-5.807,12.972-12.972l0,0V55.867
			h-25.94l0.003,12.972C278.23,76.004,284.039,81.811,291.205,81.811z"/>
		<path d="M289.436,64.073c-0.729-1.007-1.734-1.509-3.019-1.509c-1.28,0-2.287,0.502-3.017,1.509
			c-0.732,1.006-1.096,2.473-1.096,4.401c0,1.916,0.362,3.392,1.096,4.428c0.729,1.035,1.733,1.555,3.017,1.555
			s2.289-0.52,3.019-1.555c0.73-1.036,1.098-2.512,1.098-4.428C290.529,66.546,290.166,65.079,289.436,64.073z M283.885,66.346
			c0.131-0.592,0.32-1.084,0.565-1.473c0.245-0.391,0.536-0.675,0.872-0.854c0.334-0.183,0.699-0.271,1.095-0.271
			s0.763,0.089,1.097,0.271c0.336,0.18,0.625,0.463,0.871,0.854c0.233,0.369,0.412,0.839,0.545,1.395l-5.209,3.008
			c-0.016-0.26-0.033-0.516-0.033-0.801C283.688,67.648,283.754,66.939,283.885,66.346z M288.385,72.102
			c-0.51,0.779-1.164,1.17-1.968,1.17c-0.803,0-1.457-0.391-1.967-1.17c-0.233-0.354-0.406-0.813-0.533-1.354l5.21-3.007
			c0.014,0.233,0.021,0.477,0.021,0.731C289.146,70.115,288.895,71.324,288.385,72.102z"/>
		<path d="M299.009,64.165c-0.729-1.006-1.737-1.509-3.019-1.509c-1.28,0-2.287,0.503-3.018,1.509
			c-0.731,1.006-1.098,2.474-1.098,4.401c0,1.916,0.365,3.392,1.098,4.428c0.729,1.035,1.734,1.555,3.018,1.555
			c1.281,0,2.289-0.52,3.019-1.555c0.73-1.036,1.095-2.512,1.095-4.428C300.104,66.639,299.739,65.171,299.009,64.165z
			 M293.458,66.438c0.131-0.592,0.319-1.084,0.565-1.473c0.246-0.391,0.535-0.675,0.871-0.854c0.334-0.18,0.701-0.271,1.096-0.271
			c0.396,0,0.762,0.091,1.096,0.271c0.336,0.18,0.626,0.463,0.872,0.854c0.233,0.369,0.412,0.84,0.544,1.395l-5.208,3.01
			c-0.017-0.262-0.034-0.518-0.034-0.803C293.26,67.74,293.327,67.031,293.458,66.438z M297.958,72.193
			c-0.51,0.779-1.165,1.168-1.968,1.168s-1.457-0.389-1.967-1.168c-0.233-0.355-0.406-0.815-0.533-1.354l5.21-3.007
			c0.013,0.232,0.022,0.477,0.022,0.732C298.721,70.207,298.467,71.416,297.958,72.193z"/>
	</g>
</g>
</svg>
