<?xml version="1.0" encoding="utf-8"?>
<!DOCTYPE svg PUBLIC "-//W3C//DTD SVG 1.1//EN" "http://www.w3.org/Graphics/SVG/1.1/DTD/svg11.dtd">
<svg version="1.1" id="StenoBoard" xmlns="http://www.w3.org/2000/svg" xmlns:xlink="http://www.w3.org/1999/xlink" x="0px" y="0px" width="305px" height="120px" viewBox="0 0 305 120">
<defs>
    <!-- Font paths -->
    <style type="text/css">
        <![CDATA[
            path.font_normal {
                fill: #000000;
                transform: matrix(0.025, 0, 0, -0.025, 10.4, 20.6);
            }
        ]]>
    </style>
    <g id="Font">
        <path id="txt_A" class="font_normal" d="M232,367l-31,-100l196,0l-31,100C355,404 344,440 333,477C322,513 311,550 301,588l-4,0C286,550 276,513 265,477C254,440 243,404 232,367M32,0l221,656l94,0l221,-656l-88,0l-62,200l-238,0l-63,-200z"/>
        <path id="txt_B" class="font_normal" d="M99,0l0,656l186,0C318,656 349,653 377,647C404,641 428,632 448,619C467,606 483,590 494,570C505,549 510,525 510,496C510,463 501,434 482,408C463,381 434,363 395,353l0,-4C443,342 480,325 507,299C534,273 547,237 547,192C547,160 541,132 529,108C517,84 500,64 479,48C457,32 431,20 401,12C370,4 337,0 300,0M182,380l89,0C327,380 367,389 392,407C416,425 428,452 428,489C428,525 415,550 390,565C364,579 326,586 275,586l-93,0M182,70l106,0C345,70 388,80 419,100C450,119 465,151 465,196C465,237 450,266 420,284C390,301 346,310 288,310l-106,0z"/>
        <path id="txt_C" class="font_normal" d="M351,-12C310,-12 273,-4 238,11C203,26 173,49 148,78C122,107 102,142 87,185C72,227 65,275 65,328C65,381 72,428 87,470C102,512 122,548 148,577C174,606 205,629 241,645C277,660 316,668 359,668C398,668 433,660 464,644C494,628 519,609 538,588l-47,-53C474,553 454,568 433,579C412,590 387,595 359,595C328,595 299,589 274,577C248,564 226,547 208,524C190,501 176,473 166,440C156,407 151,371 151,330C151,289 156,252 166,219C176,186 190,157 208,134C226,111 248,93 274,80C299,67 328,61 359,61C389,61 416,67 440,80C463,93 486,111 507,134l47,-51C528,53 499,30 466,13C433,-4 395,-12 351,-12z"/>
        <path id="txt_D" class="font_normal" d="M87,0l0,656l162,0C348,656 424,628 476,572C527,516 553,436 553,331C553,226 527,145 476,87C424,29 350,0 253,0M170,68l73,0C318,68 375,91 412,137C449,183 467,248 467,331C467,414 449,478 412,522C375,566 318,588 243,588l-73,0z"/>
        <path id="txt_E" class="font_normal" d="M114,0l0,656l406,0l0,-70l-322,0l0,-206l272,0l0,-71l-272,0l0,-238l332,0l0,-71z"/>
        <path id="txt_F" class="font_normal" d="M133,0l0,656l403,0l0,-70l-319,0l0,-222l270,0l0,-70l-270,0l0,-294z"/>
        <path id="txt_G" class="font_normal" d="M337,-12C296,-12 258,-4 223,11C188,26 158,49 133,78C108,107 88,142 74,185C60,227 53,275 53,328C53,381 60,428 75,471C89,513 109,549 135,578C160,607 191,629 227,645C262,660 301,668 344,668C366,668 386,666 404,661C422,656 439,650 454,643C469,635 482,626 494,617C505,608 516,598 525,588l-47,-53C462,552 444,567 423,578C402,589 376,595 344,595C313,595 286,589 261,577C236,564 214,547 196,524C178,501 164,473 155,440C145,407 140,371 140,330C140,289 145,252 154,219C163,186 176,157 193,134C210,111 231,93 256,80C281,67 310,61 342,61C365,61 387,65 407,72C427,79 443,88 456,100l0,171l-131,0l0,69l208,0l0,-276C512,43 485,25 452,10C418,-5 380,-12 337,-12z"/>
        <path id="txt_H" class="font_normal" d="M79,0l0,656l84,0l0,-275l274,0l0,275l84,0l0,-656l-84,0l0,309l-274,0l0,-309z"/>
        <path id="txt_I" class="font_normal" d="M95,0l0,71l163,0l0,515l-163,0l0,70l410,0l0,-70l-163,0l0,-515l163,0l0,-71z"/>
        <path id="txt_J" class="font_normal" d="M276,-12C239,-12 203,-3 168,14C133,31 104,59 81,97l52,51C152,118 174,96 199,82C224,68 249,61 274,61C321,61 356,74 378,99C399,124 410,163 410,217l0,370l0,70l83,0l0,-447C493,179 489,151 482,124C475,97 463,73 446,53C429,33 406,17 379,6C351,-6 317,-12 276,-12z"/>
        <path id="txt_K" class="font_normal" d="M98,0l0,656l84,0l0,-329l3,0l276,329l95,0l-208,-249l232,-407l-94,0l-191,344l-113,-135l0,-209z"/>
        <path id="txt_L" class="font_normal" d="M134,0l0,656l82,0l0,-585l325,0l0,-71z"/>
        <path id="txt_M" class="font_normal" d="M72,0l0,656l102,0l92,-280l32,-106l4,0l31,106l93,280l102,0l0,-656l-80,0l0,328C448,344 449,363 450,384C451,405 452,426 454,447C455,468 457,489 458,509C459,529 461,546 462,560l-3,0l-37,-128l-94,-258l-60,0l-92,258l-38,128l-2,0C137,546 139,529 141,509C142,489 144,468 145,447C146,426 148,405 149,384C150,363 150,344 150,328l0,-328z"/>
        <path id="txt_N" class="font_normal" d="M82,0l0,656l92,0l210,-412l63,-136l2,0C448,141 446,175 443,211C440,246 438,281 438,316l0,340l80,0l0,-656l-92,0l-210,412l-63,136l-2,0C152,514 155,480 158,446C161,411 162,377 162,343l0,-343z"/>
        <path id="txt_O" class="font_normal" d="M300,-12C263,-12 229,-4 198,12C167,27 141,50 119,79C96,108 79,144 67,187C54,229 48,277 48,331C48,384 54,431 67,473C79,515 96,550 119,579C141,608 167,630 198,645C229,660 263,668 300,668C337,668 371,660 402,645C433,630 459,608 482,579C504,550 521,515 534,473C546,431 552,384 552,331C552,277 546,229 534,187C521,144 504,108 482,79C459,50 433,27 402,12C371,-4 337,-12 300,-12M300,61C325,61 347,67 368,80C389,92 406,110 421,133C435,156 446,185 454,218C462,251 466,289 466,331C466,372 462,409 454,442C446,475 435,502 421,525C406,548 389,565 368,577C347,589 325,595 300,595C275,595 252,589 232,577C211,565 194,548 180,525C165,502 154,475 146,442C138,409 134,372 134,331C134,289 138,251 146,218C154,185 165,156 180,133C194,110 211,92 232,80C252,67 275,61 300,61z"/>
        <path id="txt_P" class="font_normal" d="M102,0l0,656l198,0C336,656 369,653 399,646C429,639 455,629 476,614C497,599 514,579 526,554C537,529 543,499 543,463C543,428 537,398 526,373C514,348 497,327 476,310C454,293 428,281 399,273C369,264 336,260 300,260l-115,0l0,-260M185,328l105,0C348,328 391,339 418,361C445,382 459,416 459,463C459,510 445,543 417,562C389,580 347,589 290,589l-105,0z"/>
        <path id="txt_Q" class="font_normal" d="M300,57C351,57 391,81 421,129C450,177 465,244 465,331C465,414 450,479 421,526C391,573 351,597 300,597C249,597 209,573 180,526C150,479 135,414 135,331C135,244 150,177 180,129C209,81 249,57 300,57M481,-163C423,-163 376,-148 339,-119C302,-90 276,-53 260,-9C228,-4 199,8 174,26C148,44 126,68 108,97C89,126 75,160 65,199C55,238 50,282 50,331C50,384 56,431 68,473C80,515 97,551 119,580C141,609 167,631 198,646C229,661 263,669 300,669C337,669 371,661 402,646C433,631 459,609 481,580C503,551 520,515 532,473C544,431 550,384 550,331C550,284 545,241 536,202C526,163 512,129 495,100C477,71 456,48 431,30C406,11 379,-1 348,-7C359,-36 377,-57 402,-71C427,-85 456,-92 490,-92C500,-92 509,-91 518,-89C526,-87 533,-85 539,-82l16,-67C544,-153 532,-156 520,-159C508,-162 495,-163 481,-163z"/>
        <path id="txt_R" class="font_normal" d="M100,0l0,656l204,0C337,656 368,653 396,647C424,640 448,630 469,615C489,600 505,581 516,558C527,535 533,506 533,472C533,421 520,380 493,349C466,318 431,297 386,286l167,-286l-95,0l-158,277l-117,0l0,-277M183,345l109,0C343,345 383,356 410,377C437,398 450,429 450,472C450,515 437,546 410,563C383,580 343,589 292,589l-109,0z"/>
        <path id="txt_S" class="font_normal" d="M305,-12C257,-12 213,-3 173,14C132,31 97,55 67,85l50,58C142,118 170,99 203,84C236,69 271,61 309,61C354,61 390,71 415,90C440,109 452,134 452,165C452,182 449,197 443,209C437,221 429,231 418,240C407,249 395,256 381,263C366,270 351,277 334,284l-94,41C223,332 207,340 190,349C173,358 158,370 145,383C131,396 120,412 111,431C102,449 98,470 98,494C98,519 103,542 114,563C125,584 140,603 159,619C178,634 200,646 227,655C253,664 282,668 313,668C354,668 392,661 427,646C462,631 491,611 515,587l-44,-54C450,552 426,568 400,579C374,590 344,595 310,595C272,595 241,587 218,570C195,553 183,529 183,499C183,483 187,470 194,459C201,448 210,438 221,430C232,421 244,414 258,408C272,402 286,396 300,390l92,-40C412,342 431,333 449,323C466,312 482,300 495,287C508,273 518,257 526,239C533,220 537,199 537,175C537,149 532,125 521,102C510,79 495,60 475,43C455,26 431,12 402,3C373,-7 341,-12 305,-12z"/>
        <path id="txt_T" class="font_normal" d="M258,0l0,586l-216,0l0,70l516,0l0,-70l-216,0l0,-586z"/>
        <path id="txt_U" class="font_normal" d="M301,-12C269,-12 239,-7 212,2C185,11 161,27 142,48C122,69 107,95 96,128C85,161 79,201 79,248l0,408l84,0l0,-410C163,212 167,183 174,160C181,136 190,117 203,103C215,88 229,78 246,71C263,64 281,61 301,61C321,61 339,64 356,71C373,78 387,88 400,103C413,117 423,136 430,160C437,183 440,212 440,246l0,410l81,0l0,-408C521,201 516,161 505,128C494,95 478,69 459,48C440,27 417,11 390,2C363,-7 333,-12 301,-12z"/>
        <path id="txt_V" class="font_normal" d="M252,0l-209,656l88,0l106,-354C248,263 259,226 268,193C277,160 288,124 300,85l4,0C310,104 316,123 321,141C326,158 332,176 337,193C342,210 347,228 352,246C357,264 362,283 367,302l105,354l85,0l-208,-656z"/>
        <path id="txt_W" class="font_normal" d="M110,0l-100,657l94,0l48,-412C153,231 155,218 156,207C157,196 159,184 160,173C161,161 162,149 163,136C164,123 164,109 165,93l3,0C171,109 173,123 176,136C179,149 181,161 184,173C186,184 188,196 191,207C194,218 197,231 200,244l64,244l80,0l62,-244C409,231 412,218 415,207C418,196 420,184 423,173C425,161 427,149 430,136C432,123 435,109 438,93l4,0C443,109 444,123 445,136C446,149 447,161 448,173C449,184 450,196 451,207C452,218 453,231 454,244l46,413l90,0l-96,-657l-104,0l-64,264C321,284 316,304 313,323C309,342 305,362 302,382l-3,0C296,362 292,342 289,323C286,304 281,284 276,264l-64,-264z"/>
        <path id="txt_X" class="font_normal" d="M54,0l196,339l-183,317l92,0l92,-168C260,473 268,458 276,444C284,429 293,412 304,393l4,0C317,412 326,429 333,444C340,458 347,473 355,488l90,168l88,0l-183,-321l196,-335l-92,0l-99,177C346,193 337,210 328,227C319,244 308,262 297,282l-4,0C284,262 275,244 266,227C257,210 249,193 240,177l-98,-177z"/>
        <path id="txt_Y" class="font_normal" d="M258,0l0,234l-220,422l88,0l99,-195C238,436 250,411 262,386C274,361 287,335 300,308l4,0C317,335 330,361 343,386C356,411 368,437 381,462l95,194l86,0l-220,-422l0,-234z"/>
        <path id="txt_Z" class="font_normal" d="M65,0l0,50l366,537l-334,0l0,70l437,0l0,-50l-367,-536l372,0l0,-71z"/>
        <path id="txt_a" class="font_normal" d="M246,-12C223,-12 202,-9 182,-2C162,4 145,13 130,25C115,36 103,51 94,68C85,85 81,104 81,126C81,153 88,177 101,198C114,218 134,235 163,250C191,265 227,277 272,286C317,295 370,303 433,308C432,325 430,340 425,355C420,370 413,383 403,394C393,405 380,413 364,420C347,427 327,430 304,430C272,430 241,424 212,412C183,399 157,386 134,372l-32,56C114,436 128,444 145,453C161,461 178,468 197,475C215,482 234,487 255,492C276,496 297,498 318,498C385,498 434,480 467,444C499,407 515,359 515,298l0,-298l-67,0l-7,66l-3,0C411,45 381,26 348,11C315,-4 281,-12 246,-12M268,54C296,54 324,60 351,73C378,85 405,103 433,126l0,128C381,250 338,244 303,237C268,230 240,221 219,211C198,200 183,189 174,176C165,163 161,148 161,132C161,118 164,106 170,97C176,87 184,79 194,73C203,66 215,62 228,59C241,56 254,54 268,54z"/>
        <path id="txt_b" class="font_normal" d="M320,-12C297,-12 272,-6 245,6C218,17 192,33 169,54l-3,0l-7,-54l-66,0l0,712l82,0l0,-194l-3,-94l3,0C197,447 223,465 252,478C281,491 309,498 338,498C371,498 400,492 425,481C450,469 472,452 489,431C506,409 518,383 527,353C536,322 540,288 540,251C540,210 534,173 522,140C510,107 494,80 474,57C453,34 430,17 403,6C376,-6 349,-12 320,-12M307,57C328,57 348,62 366,71C384,80 400,92 413,109C426,125 437,145 444,169C451,193 455,220 455,250C455,277 452,301 447,323C442,345 434,364 423,380C412,395 397,407 380,416C363,425 342,429 318,429C297,429 274,423 250,412C225,400 200,381 175,356l0,-242C198,93 222,79 246,70C269,61 290,57 307,57z"/>
        <path id="txt_c" class="font_normal" d="M346,-12C308,-12 273,-6 241,5C208,16 180,33 156,55C132,76 113,103 100,135C87,166 80,202 80,242C80,283 87,319 102,351C116,382 135,409 160,431C185,453 214,470 247,481C280,492 314,498 351,498C391,498 426,491 455,477C484,463 508,446 528,427l-41,-53C467,391 446,405 425,415C403,425 379,430 354,430C326,430 300,426 277,417C254,408 234,395 218,378C201,361 188,342 179,319C170,296 165,270 165,242C165,214 170,189 179,166C188,143 200,124 217,108C233,91 253,79 276,70C299,61 324,56 352,56C382,56 410,62 435,74C460,85 482,100 502,117l37,-53C512,40 482,21 449,8C416,-5 382,-12 346,-12z"/>
        <path id="txt_d" class="font_normal" d="M271,-12C239,-12 210,-6 185,5C159,16 137,33 118,55C99,76 85,103 75,134C65,165 60,201 60,242C60,281 66,317 79,349C91,380 107,407 128,429C148,451 171,468 198,480C225,492 252,498 281,498C310,498 337,493 360,482C383,471 405,455 426,435l3,0l-4,90l0,187l82,0l0,-712l-68,0l-7,64l-3,0C409,43 385,26 358,11C330,-4 301,-12 271,-12M288,57C336,57 382,81 425,130l0,242C403,393 382,407 361,416C340,425 318,429 297,429C276,429 256,425 238,416C219,407 203,394 190,378C176,361 165,342 157,319C149,296 145,271 145,243C145,184 158,139 183,106C208,73 243,57 288,57z"/>
        <path id="txt_e" class="font_normal" d="M330,-12C293,-12 259,-6 228,5C196,16 168,33 145,55C121,77 102,104 89,136C75,167 68,203 68,244C68,283 75,319 89,350C102,381 121,408 144,430C167,452 193,469 223,481C252,492 283,498 316,498C351,498 382,493 410,482C437,471 461,455 480,435C499,415 513,391 523,363C533,335 538,304 538,270C538,261 538,252 537,243C536,234 535,227 534,220l-383,0C156,165 177,123 212,96C247,68 289,54 340,54C369,54 396,58 420,67C443,75 466,86 488,100l30,-54C494,30 467,16 436,5C405,-6 369,-12 330,-12M318,433C298,433 279,430 261,423C242,416 226,407 211,395C196,382 184,367 174,348C164,329 157,308 153,284l310,0C460,334 445,371 420,396C394,421 360,433 318,433z"/>
        <path id="txt_f" class="font_normal" d="M242,0l0,419l-139,0l0,62l139,5l0,41C242,586 258,634 290,670C321,706 371,724 438,724C486,724 533,715 578,696l-19,-62C539,643 521,650 504,653C487,656 467,657 446,657C402,657 371,646 352,624C333,601 323,570 323,530l0,-44l204,0l0,-67l-204,0l0,-419z"/>
        <path id="txt_g" class="font_normal" d="M296,-224C225,-224 170,-212 131,-189C92,-166 72,-132 72,-89C72,-70 79,-51 93,-32C106,-13 126,4 152,19l0,4C139,30 127,40 117,53C107,66 102,82 102,103C102,118 107,134 117,151C127,167 141,181 160,194l0,4C143,211 129,228 118,249C106,270 100,295 100,324C100,351 105,375 116,396C126,417 140,436 157,451C174,466 195,477 218,486C241,494 265,498 291,498C318,498 342,494 363,486l201,0l0,-67l-126,0C449,408 459,393 467,376C475,359 479,340 479,321C479,295 474,272 465,251C455,230 442,213 425,199C408,184 388,173 365,166C342,158 317,154 291,154C278,154 265,156 251,159C236,162 222,166 209,172C184,156 171,137 171,116C171,97 180,83 198,74C215,65 240,60 272,60l109,0C444,60 490,51 521,34C551,17 566,-13 566,-54C566,-77 560,-98 547,-119C534,-140 516,-158 493,-173C470,-188 441,-201 408,-210C375,-219 337,-224 296,-224M291,209C322,209 349,219 371,240C392,261 403,289 403,324C403,341 400,356 394,370C388,384 380,396 370,406C360,416 348,424 335,430C321,435 306,438 291,438C276,438 261,435 248,430C234,424 222,416 212,406C202,396 194,384 188,370C182,356 179,341 179,324C179,289 190,261 212,240C234,219 260,209 291,209M302,-164C330,-164 355,-161 378,-156C401,-151 420,-143 436,-134C452,-125 464,-115 473,-103C481,-92 485,-80 485,-67C485,-44 476,-28 458,-20C439,-12 411,-8 374,-8l-95,0C265,-8 252,-7 240,-6C227,-5 216,-3 205,0C182,-13 166,-26 157,-39C148,-53 143,-67 143,-81C143,-106 157,-126 184,-141C211,-156 250,-164 302,-164z"/>
        <path id="txt_h" class="font_normal" d="M93,0l0,712l82,0l0,-194l-5,-115l3,0C198,430 226,453 255,471C284,489 317,498 355,498C413,498 456,482 483,449C510,416 523,367 523,302l0,-302l-82,0l0,291C441,337 432,371 415,394C398,416 369,427 329,427C314,427 301,425 289,422C276,418 264,412 252,405C240,398 228,389 215,378C202,367 189,354 175,339l0,-339z"/>
        <path id="txt_i" class="font_normal" d="M316,0l0,419l0,67l82,0l0,-486M348,588C329,588 314,594 301,606C288,617 282,633 282,652C282,671 288,687 301,699C314,710 329,716 348,716C367,716 382,710 395,699C408,687 414,671 414,652C414,633 408,617 395,606C382,594 367,588 348,588z"/>
        <path id="txt_j" class="font_normal" d="M194,-217C169,-217 144,-214 120,-207C96,-201 74,-193 55,-184l27,61C99,-132 118,-138 137,-143C156,-148 174,-150 193,-150C217,-150 237,-147 253,-141C269,-135 282,-126 291,-115C300,-104 307,-90 311,-73C314,-57 316,-39 316,-18l0,437l0,67l82,0l0,-498C398,-42 395,-69 388,-94C381,-119 370,-141 355,-159C339,-178 318,-192 292,-202C266,-212 233,-217 194,-217M348,588C329,588 314,594 301,606C288,617 282,633 282,652C282,671 288,687 301,699C314,710 329,716 348,716C367,716 382,710 395,699C408,687 414,671 414,652C414,633 408,617 395,606C382,594 367,588 348,588z"/>
        <path id="txt_k" class="font_normal" d="M106,0l0,712l82,0l0,-482l4,0l262,256l94,0l-194,-191l220,-295l-92,0l-179,245l-115,-113l0,-132z"/>
        <path id="txt_l" class="font_normal" d="M407,-12C355,-12 315,3 288,32C261,61 247,105 247,163l0,482l-173,0l0,67l255,0l0,-555C329,121 338,95 355,80C372,64 396,56 425,56C454,56 484,63 516,78l21,-61C514,8 494,1 475,-4C456,-9 434,-12 407,-12z"/>
        <path id="txt_m" class="font_normal" d="M58,0l0,486l66,0l7,-64l2,0C146,445 160,463 177,477C194,491 216,498 244,498C291,498 322,470 336,414C350,440 366,461 383,476C400,491 422,498 450,498C484,498 511,485 530,460C549,434 558,397 558,348l0,-348l-82,0l0,342C476,399 459,427 424,427C407,427 393,421 382,409C371,396 359,377 346,352l0,-352l-76,0l0,342C270,370 266,391 259,406C251,420 238,427 220,427C203,427 188,421 176,409C164,396 152,377 140,352l0,-352z"/>
        <path id="txt_n" class="font_normal" d="M93,0l0,486l68,0l7,-83l4,0C197,430 225,453 254,471C283,489 317,498 355,498C413,498 456,482 483,449C510,416 523,367 523,302l0,-302l-82,0l0,291C441,337 432,371 415,394C398,416 369,427 329,427C314,427 301,425 289,422C276,418 264,412 252,405C240,398 228,389 215,378C202,367 189,354 175,339l0,-339z"/>
        <path id="txt_o" class="font_normal" d="M300,-12C268,-12 238,-6 209,5C180,16 154,33 132,55C110,76 93,103 80,135C67,166 60,202 60,242C60,283 67,319 80,351C93,382 110,409 132,431C154,453 180,470 209,481C238,492 268,498 300,498C332,498 363,492 392,481C421,470 446,453 468,431C490,409 508,382 521,351C534,319 540,283 540,242C540,202 534,166 521,135C508,103 490,76 468,55C446,33 421,16 392,5C363,-6 332,-12 300,-12M300,56C323,56 345,61 364,70C383,79 399,91 413,108C426,124 437,143 444,166C451,189 455,214 455,242C455,270 451,296 444,319C437,342 426,361 413,378C399,395 383,408 364,417C345,426 323,430 300,430C277,430 256,426 237,417C218,408 201,395 188,378C174,361 163,342 156,319C149,296 145,270 145,242C145,214 149,189 156,166C163,143 174,124 188,108C201,91 218,79 237,70C256,61 277,56 300,56z"/>
        <path id="txt_p" class="font_normal" d="M93,-205l0,691l68,0l7,-62l3,0C194,445 220,463 250,477C279,491 309,498 339,498C372,498 401,492 426,481C451,469 472,452 489,431C506,409 518,383 527,353C536,322 540,288 540,250C540,209 534,172 522,140C510,107 494,80 474,57C453,34 430,17 403,6C376,-6 348,-12 319,-12C296,-12 272,-6 246,5C219,16 195,31 174,51l-3,0l4,-92l0,-164M305,57C349,57 385,74 413,108C441,142 455,189 455,250C455,277 452,301 447,323C442,345 434,364 423,380C412,395 397,407 380,416C363,425 342,429 318,429C297,429 274,423 250,412C225,400 200,381 175,356l0,-242C198,93 222,79 245,70C268,61 288,57 305,57z"/>
        <path id="txt_q" class="font_normal" d="M425,-205l0,177l4,90l-3,0C406,41 383,24 356,10C329,-5 300,-12 270,-12C239,-12 210,-6 184,5C158,16 136,33 118,55C99,76 85,103 75,134C65,165 60,201 60,242C60,281 66,317 79,349C91,380 107,407 128,429C148,451 171,468 198,480C225,492 252,498 281,498C311,498 338,492 361,481C384,470 408,453 431,432l3,0l7,54l66,0l0,-691M288,57C336,57 382,81 425,130l0,242C403,393 382,407 361,416C340,425 318,429 297,429C276,429 256,425 238,416C219,407 203,394 190,378C176,361 165,342 157,319C149,296 145,271 145,243C145,184 158,139 183,106C208,73 243,57 288,57z"/>
        <path id="txt_r" class="font_normal" d="M146,0l0,486l68,0l7,-115l3,0C249,410 281,441 318,464C355,487 396,498 441,498C459,498 476,497 491,494C506,491 522,485 537,478l-19,-71C501,413 486,417 475,420C463,423 447,424 428,424C391,424 356,414 323,393C289,372 257,336 228,285l0,-285z"/>
        <path id="txt_s" class="font_normal" d="M310,-12C262,-12 218,-4 177,11C136,26 101,43 71,64l38,54C137,98 168,82 202,70C235,58 275,52 320,52C361,52 392,60 413,75C433,90 443,107 443,128C443,137 441,146 438,154C435,162 428,170 417,177C406,184 390,191 370,198C350,205 324,211 291,218C228,231 180,249 149,272C117,294 101,323 101,360C101,379 105,398 114,415C123,432 136,446 153,459C170,471 191,481 216,488C241,495 270,498 303,498C340,498 376,492 411,480C446,467 475,453 499,436l-40,-53C436,398 411,411 384,420C357,429 327,434 296,434C255,434 226,427 209,413C192,399 184,383 184,364C184,343 195,327 217,316C239,305 275,294 325,283C366,274 399,265 425,256C451,246 472,235 487,223C502,211 512,198 518,183C523,168 526,152 526,133C526,113 521,94 512,77C503,60 489,44 471,31C452,18 430,7 403,0C376,-8 345,-12 310,-12z"/>
        <path id="txt_t" class="font_normal" d="M394,-12C359,-12 329,-7 305,3C281,12 262,26 247,44C232,61 222,82 216,107C209,132 206,159 206,189l0,230l-137,0l0,62l140,5l11,156l68,0l0,-156l239,0l0,-67l-239,0l0,-231C288,166 290,147 294,131C298,114 305,100 314,89C323,78 336,69 352,64C368,58 388,55 411,55C434,55 455,57 474,61C493,65 511,70 528,77l18,-60C524,9 501,2 477,-3C452,-9 425,-12 394,-12z"/>
        <path id="txt_u" class="font_normal" d="M246,-12C187,-12 145,5 118,38C91,71 77,119 77,184l0,302l83,0l0,-291C160,149 169,115 186,93C203,70 231,59 272,59C300,59 325,66 348,81C371,95 396,118 423,149l0,337l82,0l0,-486l-67,0l-7,85l-4,0C402,56 376,33 347,15C318,-3 284,-12 246,-12z"/>
        <path id="txt_v" class="font_normal" d="M256,0l-205,486l83,0l112,-276C256,185 266,161 275,138C284,114 292,90 301,67l4,0C314,90 322,114 331,138C339,161 348,185 358,210l112,276l79,0l-201,-486z"/>
        <path id="txt_w" class="font_normal" d="M114,0l-106,486l82,0l58,-282C153,181 157,158 160,137C163,116 167,93 170,70l4,0C177,93 182,116 187,138C192,159 197,181 202,204l60,252l82,0l58,-252C407,181 413,158 419,137C424,116 429,93 432,70l4,0C440,93 444,116 447,137C450,158 453,181 458,204l58,282l76,0l-104,-486l-106,0l-56,232C318,266 310,314 302,376l-4,0C290,314 282,266 274,232l-54,-232z"/>
        <path id="txt_x" class="font_normal" d="M64,0l185,252l-171,234l91,0l77,-107C255,366 264,352 274,338C283,324 293,310 303,297l4,0C316,310 326,324 335,339C344,354 353,368 362,381l73,105l87,0l-173,-241l186,-245l-90,0l-85,112C350,126 340,141 329,156C318,171 307,186 296,200l-4,0C282,185 272,171 262,157C252,142 242,127 232,112l-80,-112z"/>
        <path id="txt_y" class="font_normal" d="M131,-209C107,-209 86,-206 67,-199l17,65C91,-136 98,-138 106,-139C113,-140 121,-141 128,-141C162,-141 190,-131 211,-111C232,-92 249,-67 261,-37l15,36l-227,487l83,0l119,-269C260,196 270,173 281,148C291,123 301,99 311,76l4,0C324,99 333,123 342,148C351,172 359,195 367,217l106,269l78,0l-214,-526C328,-64 317,-86 305,-107C293,-128 279,-145 262,-160C245,-175 226,-187 205,-196C183,-205 158,-209 131,-209z"/>
        <path id="txt_z" class="font_normal" d="M71,0l0,44l333,375l-296,0l0,67l414,0l0,-44l-334,-375l343,0l0,-67z"/>
        <path id="txt_0" class="font_normal" d="M300,-12C229,-12 173,17 132,75C91,132 71,214 71,321C71,428 91,510 132,566C173,622 229,650 300,650C371,650 427,622 468,566C509,510 529,428 529,321C529,214 509,132 468,75C427,17 371,-12 300,-12M300,54C345,54 381,76 410,119C438,162 452,230 452,321C452,367 448,407 441,440C434,473 423,500 410,522C396,543 380,559 361,569C342,579 322,584 300,584C278,584 258,579 239,569C220,559 204,543 191,522C177,500 166,473 159,440C152,407 148,367 148,321C148,230 162,162 191,119C219,76 255,54 300,54z"/>
        <path id="txt_1" class="font_normal" d="M97,0l0,68l184,0l0,470l-143,0l0,53C176,596 208,603 233,610C258,617 281,627 302,638l61,0l0,-570l167,0l0,-68z"/>
        <path id="txt_2" class="font_normal" d="M73,0l0,49C127,97 175,140 217,179C258,218 293,253 322,286C350,318 371,348 386,376C401,404 408,431 408,458C408,495 397,525 374,548C351,571 316,583 269,583C239,583 211,576 186,561C160,546 137,527 116,506l-47,47C98,582 129,606 162,624C195,641 234,650 279,650C311,650 340,646 366,637C391,628 413,615 431,599C449,582 463,562 473,539C482,516 487,490 487,462C487,432 480,402 466,372C451,341 431,310 405,278C379,245 348,212 312,177C276,142 236,104 193,65C213,66 233,68 253,69C273,70 293,71 312,71l210,0l0,-71z"/>
        <path id="txt_3" class="font_normal" d="M287,-12C232,-12 185,-3 148,16C111,34 80,55 57,78l42,54C120,112 146,94 176,79C205,64 241,56 282,56C304,56 324,59 343,65C362,70 378,78 392,88C405,98 416,110 424,125C431,139 435,155 435,173C435,192 431,209 423,225C414,240 401,254 382,265C363,276 339,285 310,291C281,297 245,300 203,300l0,63C241,363 273,366 300,372C326,378 347,386 364,397C381,408 393,420 401,435C408,450 412,465 412,482C412,513 400,538 377,556C353,574 321,583 282,583C252,583 224,577 197,565C170,553 146,537 125,518l-44,52C108,593 138,613 172,628C206,643 244,650 285,650C315,650 343,646 369,639C394,632 417,621 436,608C455,594 469,577 480,557C491,537 496,514 496,488C496,449 483,418 458,393C433,368 400,349 360,336l0,-4C381,327 402,321 421,312C440,303 456,291 471,278C486,264 497,248 506,230C514,212 518,192 518,170C518,142 512,117 500,94C488,71 472,52 451,37C430,21 405,9 377,1C349,-8 319,-12 287,-12z"/>
        <path id="txt_4" class="font_normal" d="M368,0l0,176l-329,0l0,55l319,407l88,0l0,-396l99,0l0,-66l-99,0l0,-176M130,242l238,0l0,198C369,457 369,476 370,497C371,517 372,536 373,553l-5,0C358,538 347,522 336,507C325,491 314,475 303,460z"/>
        <path id="txt_5" class="font_normal" d="M286,-12C257,-12 232,-9 209,-4C186,1 165,7 147,15C128,23 112,32 97,43C82,53 68,64 56,75l41,54C108,120 119,111 131,102C143,93 156,85 171,78C185,71 201,66 219,62C236,58 256,56 277,56C300,56 321,60 341,67C360,74 377,83 392,96C407,109 418,124 427,142C435,160 439,180 439,202C439,246 425,280 397,305C368,330 330,342 282,342C255,342 233,339 214,332C195,325 175,316 152,303l-44,28l21,307l361,0l0,-71l-288,0l-17,-189C204,386 222,392 240,397C257,402 278,404 303,404C334,404 362,400 389,392C416,384 439,372 459,356C478,339 494,319 505,294C516,269 522,239 522,204C522,169 516,139 503,112C490,85 472,63 450,45C428,26 403,12 375,3C346,-7 317,-12 286,-12z"/>
        <path id="txt_6" class="font_normal" d="M321,-12C286,-12 254,-6 225,7C195,20 169,39 147,65C125,90 108,122 96,161C83,199 77,244 77,295C77,359 84,414 99,459C114,504 133,540 158,569C183,597 211,618 244,631C276,644 309,650 344,650C383,650 418,644 447,631C476,618 501,601 522,582l-46,-51C459,546 440,559 418,568C396,577 373,581 349,581C324,581 299,576 276,567C253,558 232,542 215,521C197,500 183,472 172,437C161,402 155,358 154,307C180,332 209,353 240,368C271,383 303,390 335,390C364,390 391,386 416,378C440,369 461,357 479,341C496,324 510,304 520,279C529,254 534,226 534,193C534,162 528,135 517,110C505,85 489,63 470,45C451,27 428,13 403,3C377,-7 350,-12 321,-12M321,53C340,53 357,56 374,63C391,70 405,79 417,92C429,104 439,119 446,136C453,153 456,172 456,193C456,237 444,271 421,294C398,317 364,328 320,328C295,328 268,321 239,308C210,295 182,273 157,242C163,180 180,133 209,101C237,69 274,53 321,53z"/>
        <path id="txt_7" class="font_normal" d="M226,0C229,61 234,116 243,166C252,215 264,262 281,307C298,352 319,395 345,437C370,479 401,522 438,567l-368,0l0,71l462,0l0,-51C490,539 455,493 428,449C401,405 379,360 362,315C345,269 333,221 326,170C319,119 314,63 312,0z"/>
        <path id="txt_8" class="font_normal" d="M302,-12C266,-12 234,-8 205,1C176,10 151,22 131,38C111,53 96,72 85,93C74,114 68,138 68,163C68,185 72,205 80,222C88,239 98,255 111,269C124,283 138,295 155,306C171,316 188,325 205,333l0,4C178,354 156,374 137,399C118,423 108,452 108,486C108,511 113,533 123,553C132,573 146,590 164,605C181,619 202,630 226,638C250,646 276,650 305,650C336,650 364,646 389,638C413,629 434,618 451,603C468,588 481,570 490,549C499,528 503,505 503,480C503,450 494,422 475,396C456,369 433,347 406,328l0,-4C423,315 440,306 455,296C470,286 484,275 495,262C506,249 515,235 522,218C528,201 531,181 531,158C531,134 526,112 516,91C505,70 490,52 471,37C452,22 428,10 400,1C371,-8 339,-12 302,-12M352,348C405,387 432,429 432,476C432,508 421,535 399,557C377,578 345,589 303,589C267,589 238,580 216,561C194,542 183,517 183,486C183,467 187,450 196,437C205,423 217,411 232,400C247,389 265,380 286,372C306,363 328,355 352,348M304,49C352,49 389,59 414,80C439,101 452,128 452,161C452,183 447,202 437,217C426,232 412,244 394,255C376,266 355,275 331,284C306,292 280,301 252,310C221,293 195,273 174,252C153,230 143,203 143,171C143,135 158,106 187,83C216,60 255,49 304,49z"/>
        <path id="txt_9" class="font_normal" d="M281,310C306,310 333,317 362,330C391,343 418,365 444,395C437,458 420,505 393,537C365,569 327,585 280,585C261,585 243,582 227,575C210,568 196,559 184,547C172,534 163,519 156,502C149,485 145,466 145,445C145,401 157,368 180,345C203,322 236,310 281,310M257,-12C218,-12 184,-6 155,7C126,20 100,36 79,55l46,52C141,92 160,79 182,70C204,61 227,56 252,56C277,56 302,61 325,70C348,79 368,95 386,117C403,138 417,166 428,201C439,236 445,279 446,330C420,305 392,285 361,270C330,255 298,248 265,248C236,248 209,252 185,261C160,269 139,281 122,298C105,314 91,334 82,359C72,384 67,412 67,445C67,476 73,504 84,529C95,554 111,575 131,593C150,611 173,625 199,635C224,645 251,650 279,650C314,650 346,644 376,631C406,618 432,599 454,574C476,548 493,516 506,478C518,439 524,394 524,343C524,279 517,225 502,180C487,135 467,98 442,70C417,41 389,21 357,8C325,-5 292,-12 257,-12z"/>
        <path id="txt_*" class="font_normal" d="M180,111l-42,30l108,165l-162,70l16,46l167,-55l9,189l48,0l9,-189l167,55l16,-46l-162,-70l108,-165l-42,-30l-120,159z"/>
        <path id="txt_#" class="font_normal" d="M328,0l25,204l-132,0l-25,-204l-54,0l25,204l-80,0l0,57l87,0l18,148l-85,0l0,58l92,0l23,183l53,0l-22,-183l132,0l23,183l53,0l-22,-183l80,0l0,-58l-87,0l-18,-148l85,0l0,-57l-92,0l-25,-204M360,261l18,148l-132,0l-18,-148z"/>
    </g>
    <!-- Compound text symbols -->
    <g id="txt_#bar">
        <use id="txt_#s" transform="scale(0.7)" xlink:href="#txt_#"/>
        <use x="49"  xlink:href="#txt_#s"/>
        <use x="98"  xlink:href="#txt_#s"/>
        <use x="147" xlink:href="#txt_#s"/>
        <use x="196" xlink:href="#txt_#s"/>
    </g>
    <g id="txt_##">
        <use id="txt_#m" transform="scale(0.8)" xlink:href="#txt_#"/>
        <use x="10" xlink:href="#txt_#m"/>
    </g>
    <g id="txt_00">
        <use id="txt_0m" transform="scale(0.8)" xlink:href="#txt_0"/>
        <use x="10" xlink:href="#txt_0m"/>
    </g>
    <g id="txt_:">
        <path id="ColonDot" fill="#000000" d="M0,0c2.4,0,2.4,3.6,0,3.6c-2.4,0,-2.4,-3.6,0,-3.6z"/>
        <use y="8" xlink:href="#ColonDot"/>
    </g>
    <g id="txt_arrows">
        <path id="right_arrow" fill="#000000" d="M0,0l-4.8,4.8l-0.8,-0.8 3.5,-3.5h-44v-1.2h44l-3.5,-3.5l0.8,-0.8l4.8,4.8z"/>
        <use transform="rotate(-180)" x="47" y="-9" xlink:href="#right_arrow"/>
    </g>
    <!-- Basic key shapes -->
    <g id="Keys">
        <path id="key_number" stroke="#000000" d="M0,0h296v16h-296v-16z"/>
        <path id="key_square" stroke="#000000" d="M0,0h26v26h-26v-26z"/>
        <path id="key_round"  stroke="#000000"
            d="M0,0h26v13c0,7.2,-5.8,13,-13,13c-7.2,0,-13,-5.8,-13,-13v-13z"/>
        <path id="key_tall"   stroke="#000000"
            d="M0,0h26v43c0,7.2,-5.8,13,-13,13c-7.2,0,-13,-5.8,-13,-13v-43z"/>
        <path id="key_rect"   stroke="#000000" d="M0,0h56v26h-56v-26z"/>
        <path id="key_wide"   stroke="#000000" 
            d="M0,0h56v13c0,7.2,-5.8,13,-13,13h-30c-7.2,0,-13,-5.8,-13,-13v-13z"/>
        <path id="key_3rect"  stroke="#000000" d="M0,0h86v26h-86v-26z"/>
        <path id="key_3wide"  stroke="#000000"
            d="M0,0h86v13c0,7.2,-5.8,13,-13,13h-60c-7.2,0,-13,-5.8,-13,-13v-13z"/>
        <path id="key_4wide"  stroke="#000000"
            d="M0,0h116v13c0,7.2,-5.8,13,-13,13h-90c-7.2,0,-13,-5.8,-13,-13v-13z"/>
        <path id="key_2x2"    stroke="#000000"
            d="M0,0h56v43c0,7.2,-5.8,13,-13,13h-30c-7.2,0,-13,-5.8,-13,-13v-43z"/>
    </g>
</defs>
<!-- Keys in basic positions, defined in main output in gray for background -->
<g id="Base" fill="#7F7F7F">
    <use id="base_#" x="5"   y="5"  xlink:href="#key_number"/>
    <use id="base_S" x="5"   y="25" xlink:href="#key_tall"/>
    <use id="base_T" x="35"  y="25" xlink:href="#key_square"/>
    <use id="base_K" x="35"  y="55" xlink:href="#key_round"/>
    <use id="base_P" x="65"  y="25" xlink:href="#key_square"/>
    <use id="base_W" x="65"  y="55" xlink:href="#key_round"/>
    <use id="base_H" x="95"  y="25" xlink:href="#key_square"/>
    <use id="base_R" x="95"  y="55" xlink:href="#key_round"/>
    <use id="base_A" x="77"  y="88" xlink:href="#key_round"/>
    <use id="base_O" x="107" y="88" xlink:href="#key_round"/>
    <use id="base_*" x="125" y="25" xlink:href="#key_tall"/>
    <use id="base_E" x="143" y="88" xlink:href="#key_round"/>
    <use id="base_U" x="173" y="88" xlink:href="#key_round"/>
    <use id="base_f" x="155" y="25" xlink:href="#key_square"/>
    <use id="base_r" x="155" y="55" xlink:href="#key_round"/>
    <use id="base_p" x="185" y="25" xlink:href="#key_square"/>
    <use id="base_b" x="185" y="55" xlink:href="#key_round"/>
    <use id="base_l" x="215" y="25" xlink:href="#key_square"/>
    <use id="base_g" x="215" y="55" xlink:href="#key_round"/>
    <use id="base_t" x="245" y="25" xlink:href="#key_square"/>
    <use id="base_s" x="245" y="55" xlink:href="#key_round"/>
    <use id="base_d" x="275" y="25" xlink:href="#key_square"/>
    <use id="base_z" x="275" y="55" xlink:href="#key_round"/>
</g>
<defs>
    <!-- Compound keys in basic positions -->
    <g id="Base_Compound">
        <use id="base_TP"    x="35"  y="25" xlink:href="#key_rect"/>
        <use id="base_KW"    x="35"  y="55" xlink:href="#key_wide"/>
        <use id="base_PH"    x="65"  y="25" xlink:href="#key_rect"/>
        <use id="base_WR"    x="65"  y="55" xlink:href="#key_wide"/>
        <use id="base_AO"    x="77"  y="88" xlink:href="#key_wide"/>
        <use id="base_EU"    x="143" y="88" xlink:href="#key_wide"/>
        <use id="base_fp"    x="155" y="25" xlink:href="#key_rect"/>
        <use id="base_rb"    x="155" y="55" xlink:href="#key_wide"/>
        <use id="base_pl"    x="185" y="25" xlink:href="#key_rect"/>
        <use id="base_bg"    x="185" y="55" xlink:href="#key_wide"/>
        <use id="base_lt"    x="215" y="25" xlink:href="#key_rect"/>
        <use id="base_gs"    x="215" y="55" xlink:href="#key_wide"/>
        <use id="base_TK"    x="35"  y="25" xlink:href="#key_tall"/>
        <use id="base_PW"    x="65"  y="25" xlink:href="#key_tall"/>
        <use id="base_HR"    x="95"  y="25" xlink:href="#key_tall"/>
        <use id="base_pb"    x="185" y="25" xlink:href="#key_tall"/>
        <use id="base_lg"    x="215" y="25" xlink:href="#key_tall"/>
        <use id="base_TPH"   x="35"  y="25" xlink:href="#key_3rect"/>
        <use id="base_KWR"   x="35"  y="55" xlink:href="#key_3wide"/>
        <use id="base_bgs"   x="185" y="55" xlink:href="#key_3wide"/>
        <use id="base_SKWR"  x="5"   y="55" xlink:href="#key_4wide"/>
        <use id="base_TKPW"  x="35"  y="25" xlink:href="#key_2x2"/>
        <use id="base_pblg"  x="185" y="25" xlink:href="#key_2x2"/>
    </g>
</defs>
<!-- Standard steno keys with capital letter labels -->
<g id="Single" fill="#007FFF">
    <g id="#"><use xlink:href="#base_#"/>
        <use x="39" y="4.5" xlink:href="#txt_#bar"/>
    </g>
    <g id="S"><use xlink:href="#base_S"/>
        <use x="0" y="40"   xlink:href="#txt_S"/>
    </g>
    <g id="T"><use xlink:href="#base_T"/>
        <use x="30" y="25"  xlink:href="#txt_T"/>
    </g>
    <g id="K"><use xlink:href="#base_K"/>
        <use x="30" y="55"  xlink:href="#txt_K"/>
    </g>
    <g id="P"><use xlink:href="#base_P"/>
        <use x="60" y="25"  xlink:href="#txt_P"/>
    </g>
    <g id="W"><use xlink:href="#base_W"/>
        <use x="60" y="55"  xlink:href="#txt_W"/>
    </g>
    <g id="H"><use xlink:href="#base_H"/>
        <use x="90" y="25"  xlink:href="#txt_H"/>
    </g>
    <g id="R"><use xlink:href="#base_R"/>
        <use x="90" y="55"  xlink:href="#txt_R"/>
    </g>
    <g id="A"><use xlink:href="#base_A"/>
        <use x="72" y="88"  xlink:href="#txt_A"/>
    </g>
    <g id="O"><use xlink:href="#base_O"/>
        <use x="102" y="88" xlink:href="#txt_O"/>
    </g>
    <g id="*"><use xlink:href="#base_*"/>
        <use x="120" y="40" xlink:href="#txt_*"/>
    </g>
    <g id="E"><use xlink:href="#base_E"/>
        <use x="138" y="88" xlink:href="#txt_E"/>
    </g>
    <g id="U"><use xlink:href="#base_U"/>
        <use x="168" y="88" xlink:href="#txt_U"/>
    </g>
    <g id="f"><use xlink:href="#base_f"/>
        <use x="150" y="25" xlink:href="#txt_F"/>
    </g>
    <g id="r"><use xlink:href="#base_r"/>
        <use x="150" y="55" xlink:href="#txt_R"/>
    </g>
    <g id="p"><use xlink:href="#base_p"/>
        <use x="180" y="25" xlink:href="#txt_P"/>
    </g>
    <g id="b"><use xlink:href="#base_b"/>
        <use x="180" y="55" xlink:href="#txt_B"/>
    </g>
    <g id="l"><use xlink:href="#base_l"/>
        <use x="210" y="25" xlink:href="#txt_L"/>
    </g>
    <g id="g"><use xlink:href="#base_g"/>
        <use x="210" y="55" xlink:href="#txt_G"/>
    </g>
    <g id="t"><use xlink:href="#base_t"/>
        <use x="240" y="25" xlink:href="#txt_T"/>
    </g>
    <g id="s"><use xlink:href="#base_s"/>
        <use x="240" y="55" xlink:href="#txt_S"/>
    </g>
    <g id="d"><use xlink:href="#base_d"/>
        <use x="270" y="25" xlink:href="#txt_D"/>
    </g>
    <g id="z"><use xlink:href="#base_z"/>
        <use x="270" y="55" xlink:href="#txt_Z"/>
    </g>
</g>
<g id="Compound" fill="#00AFFF">
    <!-- Double-wide horizontal compound keys -->
    <g id="f."><use xlink:href="#base_TP"/>
        <use x="45" y="26.5" xlink:href="#txt_f"/>
    </g>
    <g id="m."><use xlink:href="#base_PH"/>
        <use x="75" y="25"  xlink:href="#txt_m"/>
    </g>
    <g id="i"><use xlink:href="#base_EU"/>
        <use x="152" y="89.5" xlink:href="#txt_i"/>
    </g>
    <g id="y"><use xlink:href="#base_EU"/>
        <use x="152" y="85" xlink:href="#txt_y"/>
    </g>
    <g id=".ch"><use xlink:href="#base_fp"/>
        <use x="158" y="26"  xlink:href="#txt_c"/>
        <use x="172" y="26"  xlink:href="#txt_h"/>
    </g>
    <g id=".sh"><use xlink:href="#base_rb"/>
        <use x="158" y="56"  xlink:href="#txt_s"/>
        <use x="172" y="56"  xlink:href="#txt_h"/>
    </g>
    <g id=".m"><use xlink:href="#base_pl"/>
        <use x="195" y="25"  xlink:href="#txt_m"/>
    </g>
    <g id=".k"><use xlink:href="#base_bg"/>
        <use x="195" y="56.5"  xlink:href="#txt_k"/>
    </g>
    <!-- Double-long vertical compound keys -->
    <g id="d."><use xlink:href="#base_TK"/>
        <use x="30" y="40"  xlink:href="#txt_d"/>
    </g>
    <g id="b."><use xlink:href="#base_PW"/>
        <use x="60" y="40"  xlink:href="#txt_b"/>
    </g>
    <g id="l."><use xlink:href="#base_HR"/>
        <use x="90" y="40"  xlink:href="#txt_l"/>
    </g>
    <g id=".n"><use xlink:href="#base_pb"/>
        <use x="180" y="40" xlink:href="#txt_n"/>
    </g>
    <!-- Triple-wide horizontal compound keys -->
    <g id="n."><use xlink:href="#base_TPH"/>
        <use x="60" y="25"  xlink:href="#txt_n"/>
    </g>
    <g id="y."><use xlink:href="#base_KWR"/>
        <use x="60" y="52"  xlink:href="#txt_y"/>
    </g>
    <g id=".x"><use xlink:href="#base_bgs"/>
        <use x="210" y="55" xlink:href="#txt_x"/>
    </g>
    <!-- 4-wide horizontal compound keys -->
    <g id="j."><use xlink:href="#base_SKWR"/>
        <use x="45" y="54"  xlink:href="#txt_j"/>
    </g>
    <!-- 2x2 square compound keys -->
    <g id="g."><use xlink:href="#base_TKPW"/>
        <use x="45" y="38.5"  xlink:href="#txt_g"/>
    </g>
    <g id=".j"><use xlink:href="#base_pblg"/>
        <use x="195" y="38.5" xlink:href="#txt_j"/>
    </g>
    <g id=".G"><use xlink:href="#base_pblg"/>
        <use x="195" y="38.5" xlink:href="#txt_g"/>
    </g>
</g>
<!-- Special meanings for single keys -->
<g id="Single_Alt" fill="#00AFFF">
    <g id="C."><use xlink:href="#base_S"/>
        <use x="0" y="38.5"   xlink:href="#txt_c"/>
    </g>
    <g id="c."><use xlink:href="#base_K"/>
        <use x="30" y="55"  xlink:href="#txt_c"/>
    </g>
    <g id="q."><use xlink:href="#base_K"/>
        <use x="30" y="52"  xlink:href="#txt_q"/>
    </g>
    <g id=".v"><use xlink:href="#base_f"/>
        <use x="150" y="25" xlink:href="#txt_v"/>
    </g>
    <g id=".s."><use xlink:href="#base_f"/>
        <use x="150" y="25" xlink:href="#txt_s"/>
    </g>
    <g id=".s+"><use xlink:href="#base_z"/>
        <use x="270" y="55" xlink:href="#txt_s"/>
    </g>
</g>
<!-- Special meanings for compound keys -->
<g id="Compound_Alt" fill="#00AFFF">
    <!-- Double-wide horizontal compound keys -->
    <g id=".c"><use xlink:href="#base_bg"/>
        <use x="195" y="55"  xlink:href="#txt_c"/>
    </g>
    <g id=".q"><use xlink:href="#base_bg"/>
        <use x="195" y="55"  xlink:href="#txt_q"/>
    </g>
    <!-- 4-wide horizontal compound keys -->
    <g id="G."><use xlink:href="#base_SKWR"/>
        <use x="45" y="52"  xlink:href="#txt_g"/>
    </g>
    <!-- 2x2 square compound keys -->
    <g id=".G"><use xlink:href="#base_pblg"/>
        <use x="195" y="38.5" xlink:href="#txt_g"/>
    </g>
</g>
<!-- Number keys and specific number-based modifiers -->
<g id="Numbers" fill="#00BFBF">
    <use id="#:NM" xlink:href="##"/>
    <g id="1"><use xlink:href="#base_S"/>
        <use x="0" y="40"   xlink:href="#txt_1"/>
    </g>
    <g id="2"><use xlink:href="#base_T"/>
        <use x="30" y="25"  xlink:href="#txt_2"/>
    </g>
    <g id="3"><use xlink:href="#base_P"/>
        <use x="60" y="25"  xlink:href="#txt_3"/>
    </g>
    <g id="4"><use xlink:href="#base_H"/>
        <use x="90" y="25"  xlink:href="#txt_4"/>
    </g>
    <g id="5"><use xlink:href="#base_A"/>
        <use x="72" y="88"  xlink:href="#txt_5"/>
    </g>
    <g id="0"><use xlink:href="#base_O"/>
        <use x="102" y="88" xlink:href="#txt_0"/>
    </g>
    <g id="EU:NM"><use xlink:href="#base_EU"/>
        <use x="195" y="96" xlink:href="#txt_arrows"/>
    </g>
    <g id="6"><use xlink:href="#base_f"/>
        <use x="150" y="25" xlink:href="#txt_6"/>
    </g>
    <g id="7"><use xlink:href="#base_p"/>
        <use x="180" y="25" xlink:href="#txt_7"/>
    </g>
    <g id=":00"><use xlink:href="#base_bg"/>
        <use x="180"   y="58"   xlink:href="#txt_##"/>
        <use x="213.3" y="62.5" xlink:href="#txt_:"/>
        <use x="207.8" y="58"   xlink:href="#txt_00"/>
    </g>
    <g id="8"><use xlink:href="#base_l"/>
        <use x="210" y="25" xlink:href="#txt_8"/>
    </g>
    <g id="9"><use xlink:href="#base_t"/>
        <use x="240" y="25" xlink:href="#txt_9"/>
    </g>
    <g id="-D:NM"><use xlink:href="#base_d"/>
        <use x="268.5" y="28" xlink:href="#txt_##"/>
    </g>
    <g id="00"><use xlink:href="#base_z"/>
        <use x="268.8" y="58" xlink:href="#txt_00"/>
    </g>
</g>
</svg>
