<?xml version="1.0" encoding="utf-8"?>
<svg version="1.1" id="_Icons" xmlns="http://www.w3.org/2000/svg" width="64px" height="64px" viewBox="0 0 64 64" enable-background="new 0 0 64 64">
<g id="object">
	<radialGradient id="_grad1" cx="40" cy="24" r="32" gradientUnits="userSpaceOnUse">
		<stop offset="0" style="stop-color:#D47000"/>
		<stop offset="1" style="stop-color:#2A2100"/>
	</radialGradient>
	<circle fill="url(#_grad1)" stroke="#000000" stroke-width="2" stroke-miterlimit="10" cx="32" cy="32" r="25"/>
</g>
<g id="module">
	<path fill="#007000" stroke="#000000" stroke-width="2" stroke-miterlimit="10" d="M32,16.5c-11.018,0-19.95-2.854-19.95-6.375
		v43.75c0,3.521,8.932,6.375,19.95,6.375c11.018,0,19.95-2.854,19.95-6.375v-43.75C51.95,13.646,43.018,16.5,32,16.5z"/>
	<ellipse opacity="0.5" cx="32" cy="53.875" rx="19.95" ry="6.375"/>
	<ellipse stroke="#000000" stroke-width="2" stroke-miterlimit="10" cx="32" cy="10.125" rx="19.95" ry="6.375"/>
	<g opacity="0.5">
		<radialGradient id="_grad2" cx="35.2" cy="28.8" r="12.8" gradientUnits="userSpaceOnUse">
			<stop offset="0" style="stop-color:#D47000"/>
			<stop offset="1" style="stop-color:#2A2100"/>
		</radialGradient>
		<circle fill="url(#_grad2)" stroke="#000000" stroke-miterlimit="10" cx="32" cy="32" r="10"/>
	</g>
	<ellipse fill="#004400" cx="32" cy="10.125" rx="13.965" ry="4.462"/>
</g>
<g id="type">
	<polygon fill="#0040D0" stroke="#000000" stroke-width="2" stroke-miterlimit="10" points="42,13 4,13 4,51 60,51 60,30 42,30 	"/>
	<g>
		<radialGradient id="_grad3" cx="27.8" cy="27.2" r="19.2" gradientUnits="userSpaceOnUse">
			<stop offset="0" style="stop-color:#D47000"/>
			<stop offset="1" style="stop-color:#2A2100"/>
		</radialGradient>
		<circle fill="url(#_grad3)" stroke="#000000" stroke-width="2" stroke-miterlimit="10" cx="23" cy="32" r="15"/>
	</g>
	<rect x="36.334" y="44.75" fill="#FFFFFF" width="20.5" height="3"/>
	<rect x="42.167" y="39.021" fill="#FFFFFF" width="14.667" height="3"/>
	<rect x="44.834" y="33.292" fill="#FFFFFF" width="12" height="3"/>
</g>
<g id="function+method+builtin_function_or_method">
	<path d="M7.362,55.4V37.145H1.086v-5.222l6.278-0.287v-0.625c0-1.373,0.207-2.651,0.622-3.833c0.416-1.183,1.056-2.213,1.917-3.092
		c0.861-0.877,1.966-1.573,3.305-2.083c1.341-0.511,2.939-0.768,4.791-0.768c1.375,0,2.66,0.127,3.859,0.384
		c1.198,0.255,2.308,0.56,3.33,0.91l-1.341,5.173c-1.565-0.605-3.228-0.91-4.984-0.91c-1.534,0-2.66,0.336-3.376,1.008
		c-0.721,0.67-1.08,1.724-1.08,3.161v0.67h8.194v5.51h-8.194v18.256L7.362,55.4L7.362,55.4z"/>
	<path d="M38.735,55.4c-2.433-2.161-4.352-4.655-5.756-7.486c-1.402-2.83-2.104-6.011-2.104-9.536c0-3.524,0.702-6.703,2.104-9.536
		c1.401-2.831,3.323-5.325,5.756-7.486l3.055,2.422c-2.21,2.159-3.818,4.4-4.822,6.722c-1.007,2.323-1.511,4.948-1.511,7.878
		c0,1.467,0.125,2.849,0.373,4.153c0.25,1.304,0.629,2.553,1.138,3.742c0.508,1.19,1.161,2.34,1.953,3.446
		c0.798,1.102,1.753,2.189,2.872,3.255L38.735,55.4z"/>
	<path d="M54.229,55.4l-3.056-2.425c1.118-1.065,2.074-2.154,2.868-3.256c0.796-1.105,1.444-2.255,1.954-3.444
		c0.511-1.191,0.887-2.44,1.14-3.743c0.245-1.305,0.371-2.688,0.371-4.153c0-2.93-0.5-5.555-1.508-7.878
		c-1.007-2.321-2.61-4.563-4.823-6.722l3.056-2.422c2.435,2.162,4.35,4.656,5.753,7.486c1.403,2.832,2.109,6.01,2.109,9.536
		c0,3.527-0.709,6.706-2.109,9.535C58.58,50.744,56.661,53.239,54.229,55.4z"/>
</g>
<g id="dict+set+frozenset">
	<path d="M23.288,52.641c-3.071,0-5.327-0.488-6.768-1.465c-1.44-0.977-2.16-2.76-2.16-5.352c0-0.864,0.024-1.633,0.071-2.305
		c0.049-0.672,0.104-1.319,0.168-1.943s0.121-1.248,0.168-1.873c0.049-0.623,0.072-1.319,0.072-2.088
		c0-0.415-0.096-0.831-0.287-1.248c-0.192-0.415-0.545-0.791-1.057-1.127c-0.512-0.336-1.192-0.607-2.04-0.816
		c-0.849-0.208-1.912-0.328-3.192-0.359v-4.126c1.28-0.031,2.344-0.151,3.192-0.36c0.848-0.207,1.528-0.479,2.04-0.815
		c0.512-0.336,0.864-0.712,1.057-1.128c0.191-0.416,0.287-0.832,0.287-1.248c0-0.736-0.023-1.424-0.072-2.064
		c-0.047-0.639-0.104-1.271-0.168-1.896s-0.119-1.28-0.168-1.968c-0.047-0.688-0.071-1.447-0.071-2.28
		c0-2.592,0.72-4.376,2.16-5.353c1.44-0.975,3.696-1.463,6.768-1.463h3.696v3.743h-1.968c-0.992,0-1.809,0.048-2.448,0.144
		c-0.641,0.097-1.137,0.273-1.488,0.529c-0.353,0.256-0.6,0.6-0.744,1.031c-0.144,0.432-0.216,0.984-0.216,1.656
		c0,1.28,0.04,2.544,0.12,3.792c0.08,1.248,0.12,2.592,0.12,4.032c0,1.824-0.368,3.144-1.104,3.959
		c-0.736,0.816-1.968,1.369-3.695,1.656v0.192c1.728,0.288,2.959,0.838,3.695,1.656c0.736,0.813,1.104,2.138,1.104,3.96
		c0,1.475-0.04,2.814-0.12,4.032c-0.08,1.216-0.12,2.479-0.12,3.792c0,0.672,0.072,1.224,0.216,1.652
		c0.145,0.436,0.392,0.775,0.744,1.033c0.352,0.256,0.848,0.432,1.488,0.527c0.64,0.096,1.456,0.145,2.448,0.145h1.968v3.744
		h-3.696V52.641z"/>
	<path d="M37.016,52.641v-3.744h1.969c0.99,0,1.802-0.049,2.426-0.145c0.624-0.098,1.109-0.271,1.465-0.527
		c0.354-0.258,0.602-0.601,0.743-1.033c0.146-0.432,0.217-0.98,0.217-1.652c0-1.313-0.032-2.576-0.099-3.792
		c-0.063-1.218-0.096-2.563-0.096-4.032c0-1.822,0.366-3.146,1.104-3.96c0.735-0.813,1.969-1.368,3.694-1.656v-0.192
		c-1.729-0.287-2.959-0.84-3.694-1.656c-0.736-0.815-1.104-2.135-1.104-3.959c0-1.44,0.03-2.784,0.096-4.032
		c0.064-1.248,0.099-2.512,0.099-3.792c0-0.672-0.069-1.225-0.217-1.656c-0.146-0.432-0.394-0.775-0.743-1.031
		c-0.354-0.256-0.841-0.433-1.465-0.529c-0.624-0.096-1.436-0.144-2.426-0.144h-1.969V11.36h3.696c3.071,0,5.328,0.488,6.769,1.463
		c1.439,0.977,2.16,2.761,2.16,5.353c0,0.833-0.022,1.593-0.072,2.28c-0.049,0.687-0.11,1.344-0.189,1.968
		c-0.081,0.624-0.146,1.257-0.189,1.896c-0.049,0.641-0.072,1.328-0.072,2.064c0,0.416,0.097,0.832,0.287,1.248
		c0.191,0.416,0.545,0.792,1.058,1.128c0.511,0.336,1.19,0.608,2.039,0.815c0.849,0.209,1.929,0.329,3.239,0.36v4.129
		c-1.313,0.031-2.393,0.148-3.239,0.356c-0.849,0.209-1.528,0.479-2.039,0.815c-0.513,0.337-0.864,0.713-1.058,1.128
		c-0.19,0.417-0.287,0.833-0.287,1.247c0,0.77,0.023,1.466,0.072,2.089c0.047,0.625,0.108,1.249,0.189,1.873
		c0.079,0.624,0.146,1.271,0.189,1.94c0.048,0.672,0.072,1.44,0.072,2.307c0,2.593-0.721,4.375-2.16,5.353
		c-1.438,0.978-3.694,1.466-6.769,1.466h-3.696V52.641z"/>
</g>
<g id="list">
	<path d="M12.8,52.641V11.36h14.208v3.744h-8.832v33.792h8.832v3.744H12.8L12.8,52.641z"/>
	<path d="M36.991,52.641v-3.744h8.832V15.104h-8.832V11.36H51.2v41.281H36.991z"/>
</g>
<g id="tuple">
	<path d="M22.017,53.936c-3.137-2.783-5.609-6-7.416-9.646c-1.809-3.647-2.712-7.744-2.712-12.288s0.903-8.641,2.712-12.288
		c1.807-3.648,4.279-6.864,7.416-9.648l3.936,3.12c-2.849,2.784-4.92,5.673-6.216,8.664c-1.296,2.992-1.944,6.377-1.944,10.152
		c0,1.889,0.16,3.671,0.48,5.352c0.319,1.684,0.808,3.289,1.464,4.823c0.655,1.537,1.495,3.019,2.52,4.441
		c1.024,1.422,2.256,2.821,3.696,4.198L22.017,53.936z"/>
	<path d="M41.984,53.936l-3.938-3.119c1.438-1.377,2.672-2.774,3.696-4.196c1.021-1.427,1.861-2.904,2.521-4.44
		c0.653-1.533,1.145-3.144,1.463-4.822c0.318-1.683,0.479-3.463,0.479-5.354c0-3.775-0.646-7.16-1.941-10.152
		c-1.299-2.991-3.369-5.88-6.219-8.664l3.938-3.12c3.137,2.784,5.605,6,7.416,9.648c1.808,3.647,2.711,7.744,2.711,12.288
		s-0.903,8.641-2.711,12.287C47.592,47.936,45.12,51.152,41.984,53.936z"/>
</g>
<g id="bytes+bytearray">
	<path d="M19.2,28.453c-1.32,0-2.52-0.258-3.6-0.774c-1.08-0.516-2.004-1.278-2.772-2.286c-0.769-1.008-1.362-2.256-1.781-3.744
		c-0.421-1.488-0.631-3.204-0.631-5.148s0.21-3.648,0.631-5.112c0.419-1.464,1.013-2.694,1.781-3.69
		c0.769-0.996,1.692-1.74,2.772-2.232c1.08-0.491,2.279-0.738,3.6-0.738c1.319,0,2.521,0.247,3.601,0.738
		c1.08,0.492,2.003,1.237,2.771,2.232c0.768,0.996,1.362,2.226,1.782,3.69s0.63,3.168,0.63,5.112s-0.21,3.66-0.63,5.148
		c-0.42,1.488-1.015,2.736-1.782,3.744c-0.769,1.008-1.691,1.77-2.771,2.286C21.721,28.195,20.52,28.453,19.2,28.453z M19.2,24.349
		c0.576,0,1.11-0.132,1.603-0.396c0.491-0.264,0.918-0.702,1.277-1.314c0.36-0.612,0.648-1.416,0.864-2.412
		c0.216-0.996,0.324-2.238,0.324-3.726c0-1.488-0.108-2.724-0.324-3.708c-0.216-0.984-0.504-1.77-0.864-2.358
		c-0.359-0.588-0.786-1.002-1.277-1.242c-0.492-0.239-1.026-0.36-1.603-0.36s-1.11,0.121-1.602,0.36
		c-0.492,0.24-0.918,0.654-1.278,1.242c-0.36,0.588-0.647,1.374-0.864,2.358c-0.216,0.984-0.323,2.22-0.323,3.708
		c0,1.488,0.107,2.73,0.323,3.726c0.217,0.996,0.504,1.8,0.864,2.412c0.36,0.612,0.786,1.05,1.278,1.314
		C18.09,24.217,18.624,24.349,19.2,24.349z"/>
	<path d="M36.844,28.021v-4.284H43V10.525h-5.076V7.249c0.768-0.12,1.458-0.246,2.07-0.378c0.612-0.132,1.17-0.282,1.674-0.45
		c0.504-0.167,0.978-0.354,1.422-0.558c0.444-0.204,0.882-0.438,1.314-0.702h3.888v18.576h5.184v4.284H36.844z"/>
	<path d="M11.244,58.839v-4.285H17.4V41.343h-5.076v-3.277c0.768-0.119,1.458-0.244,2.07-0.377s1.17-0.281,1.674-0.451
		c0.504-0.166,0.978-0.354,1.422-0.557c0.444-0.205,0.882-0.438,1.314-0.703h3.888v18.576h5.184v4.285H11.244z"/>
	<path d="M44.8,59.271c-1.32,0-2.52-0.258-3.6-0.773c-1.08-0.518-2.004-1.279-2.772-2.287s-1.362-2.256-1.781-3.744
		c-0.421-1.488-0.631-3.203-0.631-5.148c0-1.943,0.21-3.646,0.631-5.111c0.419-1.463,1.013-2.693,1.781-3.689
		s1.692-1.74,2.772-2.232s2.279-0.738,3.6-0.738c1.319,0,2.521,0.246,3.601,0.738s2.003,1.236,2.771,2.232
		c0.768,0.996,1.362,2.227,1.782,3.689c0.42,1.465,0.63,3.168,0.63,5.111c0,1.945-0.21,3.66-0.63,5.148s-1.015,2.736-1.782,3.744
		c-0.769,1.008-1.691,1.77-2.771,2.287C47.32,59.013,46.119,59.271,44.8,59.271z M44.8,55.167c0.576,0,1.11-0.133,1.603-0.396
		c0.491-0.264,0.918-0.703,1.277-1.314c0.36-0.611,0.648-1.416,0.864-2.412s0.324-2.238,0.324-3.727
		c0-1.486-0.108-2.723-0.324-3.707s-0.504-1.77-0.864-2.357c-0.359-0.588-0.786-1.002-1.277-1.242
		c-0.492-0.24-1.026-0.361-1.603-0.361s-1.11,0.121-1.602,0.361c-0.492,0.24-0.918,0.654-1.278,1.242s-0.647,1.373-0.864,2.357
		c-0.216,0.984-0.323,2.221-0.323,3.707c0,1.488,0.107,2.73,0.323,3.727c0.217,0.996,0.504,1.801,0.864,2.412
		s0.786,1.051,1.278,1.314C43.689,55.034,44.224,55.167,44.8,55.167z"/>
</g>
<g id="str">
	<path d="M13.616,51.948c-1.217,0-2.304-0.188-3.264-0.551c-0.961-0.367-1.776-0.883-2.448-1.537
		c-0.672-0.654-1.192-1.416-1.56-2.279c-0.369-0.863-0.553-1.809-0.553-2.832c0-1.344,0.288-2.52,0.864-3.527
		c0.576-1.009,1.495-1.863,2.76-2.568c1.265-0.697,2.888-1.271,4.872-1.698c1.984-0.438,4.384-0.729,7.2-0.894
		c-0.128-1.084-0.601-1.936-1.416-2.541c-0.815-0.605-2.04-0.911-3.672-0.911c-1.152,0-2.313,0.198-3.479,0.6
		c-1.169,0.399-2.425,0.937-3.769,1.606l-2.496-4.607c1.632-0.93,3.384-1.696,5.256-2.304c1.872-0.607,3.832-0.912,5.88-0.912
		c3.328,0,5.952,0.88,7.872,2.64c1.921,1.762,2.88,4.463,2.88,8.109v13.635h-5.76l-0.527-2.688h-0.192
		c-1.217,0.93-2.544,1.705-3.984,2.325C16.64,51.638,15.152,51.948,13.616,51.948z M15.872,46.478c1.057,0,2.048-0.217,2.977-0.646
		c0.928-0.435,1.807-0.97,2.64-1.606v-3.938c-1.761,0.096-3.216,0.257-4.368,0.479c-1.152,0.225-2.064,0.504-2.736,0.84
		c-0.672,0.336-1.145,0.729-1.416,1.178c-0.271,0.447-0.408,0.931-0.408,1.438c0,0.771,0.297,1.339,0.889,1.703
		C14.04,46.294,14.848,46.478,15.872,46.478z"/>
	<path d="M47.889,51.948c-1.121,0-2.229-0.271-3.337-0.815c-1.104-0.544-2.151-1.327-3.145-2.353h-0.191l-0.575,2.593H35.12V17.725
		h7.056v8.256l-0.24,3.745h0.146c0.896-0.865,1.92-1.537,3.07-2.017c1.152-0.48,2.307-0.72,3.455-0.72
		c1.475,0,2.811,0.288,4.012,0.864c1.197,0.576,2.207,1.384,3.021,2.423c0.813,1.041,1.443,2.305,1.896,3.792
		c0.444,1.487,0.672,3.145,0.672,4.967c0,2.05-0.289,3.873-0.865,5.474c-0.573,1.603-1.344,2.952-2.303,4.058
		c-0.961,1.104-2.06,1.942-3.289,2.521C50.52,51.661,49.23,51.948,47.889,51.948z M46.305,46.188c1.313,0,2.416-0.551,3.313-1.649
		c0.896-1.104,1.344-2.894,1.344-5.354c0-4.287-1.457-6.432-4.368-6.432c-1.505,0-2.976,0.734-4.416,2.208v9.646
		c0.674,0.573,1.368,0.981,2.09,1.228C44.984,46.069,45.663,46.188,46.305,46.188z"/>
</g>
<g id="float">
	<path d="M11.874,55.4c-1.917,0-3.467-0.618-4.645-1.854c-1.182-1.233-1.771-2.772-1.771-4.616c0-0.92,0.156-1.777,0.471-2.572
		c0.313-0.791,0.746-1.482,1.299-2.071c0.553-0.59,1.225-1.052,2.018-1.385c0.793-0.33,1.668-0.497,2.627-0.497
		c0.957,0,1.834,0.167,2.625,0.497c0.793,0.333,1.467,0.795,2.02,1.385c0.553,0.589,0.986,1.28,1.299,2.071
		c0.313,0.795,0.47,1.652,0.47,2.572c0,1.844-0.589,3.383-1.769,4.616C15.337,54.782,13.79,55.4,11.874,55.4z"/>
	<path d="M42.483,55.4l1.656-13.465h-7.488L34.997,55.4h-6.12l1.655-13.465h-5.399v-6.769h6.265l0.937-7.92h-5.76V20.48h6.622
		l1.44-11.88h6.048l-1.438,11.88h7.56l1.44-11.88h6.048l-1.439,11.88h5.688v6.768h-6.48l-1.008,7.92h6.049v6.77h-6.841L48.604,55.4
		H42.483z M45.005,35.168l0.936-7.92h-7.486l-1.01,7.92H45.005z"/>
</g>
<g id="int">
	<path d="M32.647,55.4l1.656-13.464h-7.488L25.16,55.4h-6.12l1.656-13.464h-5.4v-6.769h6.264l0.937-7.92h-5.76V20.48h6.623
		l1.44-11.88h6.048l-1.439,11.88h7.56l1.44-11.88h6.048l-1.44,11.88h5.688v6.768h-6.48l-1.008,7.92h6.048v6.769h-6.84L38.768,55.4
		H32.647z M35.168,35.168l0.936-7.92h-7.487l-1.009,7.92H35.168z"/>
</g>
<g id="bool">
	<path d="M9.146,51.4V28.399H0.651v-5.402h23.436v5.402h-8.495V51.4H9.146z"/>
	<path d="M23.589,51.4l11.464-28.404h4.286L27.876,51.4H23.589z"/>
	<path d="M44.488,51.4V22.997h18.859v5.402H50.891v6.578H61.52v5.399H50.891V51.4H44.488z"/>
</g>
<g id="NoneType">
	<path d="M11.64,48.992l5.465-5.467c-2.546-3.286-3.942-7.359-3.942-11.526c0-10.387,8.45-18.837,18.837-18.837
		c4.167,0,8.238,1.396,11.525,3.942l5.467-5.465l3.367,3.368l-5.465,5.466c2.547,3.288,3.94,7.361,3.94,11.527
		c0,10.387-8.448,18.838-18.838,18.838c-4.166,0-8.239-1.396-11.527-3.941l-5.466,5.465L11.64,48.992z M23.881,43.486
		c2.391,1.697,5.185,2.593,8.119,2.593c7.764,0,14.08-6.315,14.08-14.08c0-2.935-0.895-5.729-2.594-8.119L23.881,43.486z M32,17.919
		c-7.763,0-14.08,6.316-14.08,14.08c0,2.935,0.894,5.729,2.592,8.12L40.12,20.512C37.729,18.814,34.936,17.919,32,17.919z"/>
</g>
</svg>
