<?xml version="1.0" encoding="utf-8"?>
<svg version="1.1" id="_Icons" xmlns="http://www.w3.org/2000/svg" width="64px" height="64px" viewBox="0 0 64 64" enable-background="new 0 0 64 64">
<g id="default">
	<radialGradient id="_grad1" cx="522" cy="571" r="32" gradientTransform="matrix(1 0 0 1 -482 -547)" gradientUnits="userSpaceOnUse">
		<stop offset="0" style="stop-color:#D47000"/>
		<stop offset="1" style="stop-color:#2A2100"/>
	</radialGradient>
	<circle fill="url(#_grad1)" stroke="#000000" stroke-width="2" stroke-miterlimit="10" cx="32" cy="32" r="25"/>
</g>
<g id="module">
	<path fill="#007000" stroke="#000000" stroke-width="2" stroke-miterlimit="10" d="M32,16.5c-11.018,0-19.95-2.854-19.95-6.375
		v43.75c0,3.521,8.932,6.375,19.95,6.375c11.018,0,19.95-2.854,19.95-6.375v-43.75C51.95,13.646,43.018,16.5,32,16.5z"/>
	<ellipse opacity="0.5" cx="32" cy="53.875" rx="19.95" ry="6.375"/>
	<ellipse stroke="#000000" stroke-width="2" stroke-miterlimit="10" cx="32" cy="10.125" rx="19.95" ry="6.375"/>
	<g opacity="0.5">
		<radialGradient id="_grad2" cx="517.2002" cy="575.7998" r="12.8001" gradientTransform="matrix(1 0 0 1 -482 -547)" gradientUnits="userSpaceOnUse">
			<stop offset="0" style="stop-color:#D47000"/>
			<stop offset="1" style="stop-color:#2A2100"/>
		</radialGradient>
		<circle fill="url(#_grad2)" stroke="#000000" stroke-miterlimit="10" cx="32" cy="32" r="10"/>
	</g>
	<ellipse fill="#004400" cx="32" cy="10.125" rx="13.965" ry="4.462"/>
</g>
<g id="type">
	<polygon fill="#0040D0" stroke="#000000" stroke-width="2" stroke-miterlimit="10" points="42,13 4,13 4,51 60,51 60,30 42,30 	"/>
	<g>
		<radialGradient id="_grad3" cx="509.7998" cy="574.2002" r="19.2004" gradientTransform="matrix(1 0 0 1 -482 -547)" gradientUnits="userSpaceOnUse">
			<stop offset="0" style="stop-color:#D47000"/>
			<stop offset="1" style="stop-color:#2A2100"/>
		</radialGradient>
		<circle fill="url(#_grad3)" stroke="#000000" stroke-width="2" stroke-miterlimit="10" cx="23" cy="32" r="15"/>
	</g>
	<rect x="36.334" y="44.75" fill="#FFFFFF" width="20.5" height="3"/>
	<rect x="42.167" y="39.021" fill="#FFFFFF" width="14.667" height="3"/>
	<rect x="44.834" y="33.292" fill="#FFFFFF" width="12" height="3"/>
</g>
<g id="function_method">
	<g>
		<path d="M9.069,46.116V31.029H3.882v-4.316l5.188-0.238V25.96c0-1.135,0.17-2.191,0.514-3.168
			c0.344-0.977,0.873-1.828,1.584-2.554c0.712-0.726,1.624-1.3,2.732-1.722c1.108-0.422,2.429-0.634,3.96-0.634
			c1.135,0,2.198,0.105,3.188,0.317c0.99,0.211,1.908,0.462,2.752,0.752l-1.108,4.276c-1.293-0.501-2.667-0.752-4.119-0.752
			c-1.268,0-2.198,0.277-2.791,0.832c-0.595,0.554-0.892,1.425-0.892,2.613v0.554h6.772v4.554H14.89v15.087L9.069,46.116
			L9.069,46.116z"/>
		<path d="M37.547,48.452c-2.352-2.088-4.207-4.5-5.563-7.236c-1.356-2.735-2.034-5.809-2.034-9.217
			c0-3.407,0.678-6.479,2.034-9.216c1.355-2.736,3.211-5.148,5.563-7.236l2.953,2.34c-2.137,2.088-3.691,4.254-4.662,6.498
			c-0.973,2.245-1.459,4.782-1.459,7.614c0,1.417,0.119,2.754,0.359,4.015c0.24,1.26,0.607,2.467,1.1,3.618
			c0.49,1.15,1.121,2.263,1.889,3.33c0.771,1.065,1.693,2.117,2.773,3.147L37.547,48.452z"/>
		<path d="M52.523,48.452l-2.953-2.343c1.08-1.03,2.004-2.082,2.771-3.147c0.771-1.067,1.397-2.18,1.892-3.33
			c0.492-1.151,0.856-2.358,1.1-3.618c0.238-1.261,0.359-2.599,0.359-4.015c0-2.832-0.484-5.369-1.459-7.614
			c-0.974-2.244-2.523-4.41-4.662-6.498l2.953-2.34c2.354,2.088,4.205,4.5,5.563,7.236c1.354,2.736,2.035,5.809,2.035,9.216
			c0,3.409-0.682,6.481-2.035,9.217C56.729,43.952,54.875,46.364,52.523,48.452z"/>
	</g>
</g>
<g id="dict_set_frozenset">
	<g>
		<path d="M23.288,52.641c-3.071,0-5.327-0.488-6.768-1.465c-1.44-0.977-2.16-2.76-2.16-5.352c0-0.864,0.024-1.633,0.071-2.305
			c0.049-0.672,0.104-1.319,0.168-1.943s0.121-1.248,0.168-1.873c0.049-0.623,0.072-1.319,0.072-2.088
			c0-0.415-0.096-0.831-0.287-1.248c-0.192-0.415-0.545-0.791-1.057-1.127c-0.512-0.336-1.192-0.607-2.04-0.816
			c-0.849-0.208-1.912-0.328-3.192-0.359v-4.126c1.28-0.031,2.344-0.151,3.192-0.36c0.848-0.207,1.528-0.479,2.04-0.815
			c0.512-0.336,0.864-0.712,1.057-1.128c0.191-0.416,0.287-0.832,0.287-1.248c0-0.736-0.023-1.424-0.072-2.064
			c-0.047-0.639-0.104-1.271-0.168-1.896s-0.119-1.28-0.168-1.968c-0.047-0.688-0.071-1.447-0.071-2.28
			c0-2.592,0.72-4.376,2.16-5.353c1.44-0.975,3.696-1.463,6.768-1.463h3.696v3.743h-1.968c-0.992,0-1.809,0.048-2.448,0.144
			c-0.641,0.097-1.137,0.273-1.488,0.529c-0.353,0.256-0.6,0.6-0.744,1.031c-0.144,0.432-0.216,0.984-0.216,1.656
			c0,1.28,0.04,2.544,0.12,3.792c0.08,1.248,0.12,2.592,0.12,4.032c0,1.824-0.368,3.144-1.104,3.959
			c-0.736,0.816-1.968,1.369-3.695,1.656v0.192c1.728,0.288,2.959,0.838,3.695,1.656c0.736,0.813,1.104,2.138,1.104,3.96
			c0,1.475-0.04,2.814-0.12,4.032c-0.08,1.216-0.12,2.479-0.12,3.792c0,0.672,0.072,1.224,0.216,1.652
			c0.145,0.436,0.392,0.775,0.744,1.033c0.352,0.256,0.848,0.432,1.488,0.527c0.64,0.096,1.456,0.145,2.448,0.145h1.968v3.744
			h-3.696V52.641z"/>
		<path d="M37.016,52.641v-3.744h1.969c0.99,0,1.802-0.049,2.426-0.145c0.624-0.098,1.109-0.271,1.465-0.527
			c0.354-0.258,0.602-0.601,0.743-1.033c0.146-0.432,0.217-0.98,0.217-1.652c0-1.313-0.032-2.576-0.099-3.792
			c-0.063-1.218-0.096-2.563-0.096-4.032c0-1.822,0.366-3.146,1.104-3.96c0.735-0.813,1.969-1.368,3.694-1.656v-0.192
			c-1.729-0.287-2.959-0.84-3.694-1.656c-0.736-0.815-1.104-2.135-1.104-3.959c0-1.44,0.03-2.784,0.096-4.032
			c0.064-1.248,0.099-2.512,0.099-3.792c0-0.672-0.069-1.225-0.217-1.656c-0.146-0.432-0.394-0.775-0.743-1.031
			c-0.354-0.256-0.841-0.433-1.465-0.529c-0.624-0.096-1.436-0.144-2.426-0.144h-1.969V11.36h3.696c3.071,0,5.328,0.488,6.769,1.463
			c1.439,0.977,2.16,2.761,2.16,5.353c0,0.833-0.022,1.593-0.072,2.28c-0.049,0.687-0.11,1.344-0.189,1.968
			c-0.081,0.624-0.146,1.257-0.189,1.896c-0.049,0.641-0.072,1.328-0.072,2.064c0,0.416,0.097,0.832,0.287,1.248
			c0.191,0.416,0.545,0.792,1.058,1.128c0.511,0.336,1.19,0.608,2.039,0.815c0.849,0.209,1.929,0.329,3.239,0.36v4.129
			c-1.313,0.031-2.393,0.148-3.239,0.356c-0.849,0.209-1.528,0.479-2.039,0.815c-0.513,0.337-0.864,0.713-1.058,1.128
			c-0.19,0.417-0.287,0.833-0.287,1.247c0,0.77,0.023,1.466,0.072,2.089c0.047,0.625,0.108,1.249,0.189,1.873
			c0.079,0.624,0.146,1.271,0.189,1.94c0.048,0.672,0.072,1.44,0.072,2.307c0,2.593-0.721,4.375-2.16,5.353
			c-1.438,0.978-3.694,1.466-6.769,1.466h-3.696V52.641z"/>
	</g>
</g>
<g id="list">
	<g>
		<path d="M12.8,52.641V11.36h14.208v3.744h-8.832v33.792h8.832v3.744H12.8L12.8,52.641z"/>
		<path d="M36.991,52.641v-3.744h8.832V15.104h-8.832V11.36H51.2v41.281H36.991z"/>
	</g>
</g>
<g id="tuple">
	<g>
		<path d="M22.017,53.936c-3.137-2.783-5.609-6-7.416-9.646c-1.809-3.647-2.712-7.744-2.712-12.288s0.903-8.641,2.712-12.288
			c1.807-3.648,4.279-6.864,7.416-9.648l3.936,3.12c-2.849,2.784-4.92,5.673-6.216,8.664c-1.296,2.992-1.944,6.377-1.944,10.152
			c0,1.889,0.16,3.671,0.48,5.352c0.319,1.684,0.808,3.289,1.464,4.823c0.655,1.537,1.495,3.019,2.52,4.441
			c1.024,1.422,2.256,2.821,3.696,4.198L22.017,53.936z"/>
		<path d="M41.984,53.936l-3.938-3.119c1.438-1.377,2.672-2.774,3.696-4.196c1.021-1.427,1.861-2.904,2.521-4.44
			c0.653-1.533,1.145-3.144,1.463-4.822c0.318-1.683,0.479-3.463,0.479-5.354c0-3.775-0.646-7.16-1.941-10.152
			c-1.299-2.991-3.369-5.88-6.219-8.664l3.938-3.12c3.137,2.784,5.605,6,7.416,9.648c1.808,3.647,2.711,7.744,2.711,12.288
			s-0.903,8.641-2.711,12.287C47.592,47.936,45.12,51.152,41.984,53.936z"/>
	</g>
</g>
<g id="bytes_bytearray">
	<path d="M19.2,28.453c-1.32,0-2.52-0.258-3.6-0.774c-1.08-0.516-2.004-1.278-2.772-2.286c-0.769-1.008-1.362-2.256-1.781-3.744
		c-0.421-1.488-0.631-3.204-0.631-5.148s0.21-3.648,0.631-5.112c0.419-1.464,1.013-2.694,1.781-3.69
		c0.769-0.996,1.692-1.74,2.772-2.232c1.08-0.491,2.279-0.738,3.6-0.738c1.319,0,2.521,0.247,3.601,0.738
		c1.08,0.492,2.003,1.237,2.771,2.232c0.768,0.996,1.362,2.226,1.782,3.69s0.63,3.168,0.63,5.112s-0.21,3.66-0.63,5.148
		c-0.42,1.488-1.015,2.736-1.782,3.744c-0.769,1.008-1.691,1.77-2.771,2.286C21.721,28.195,20.52,28.453,19.2,28.453z M19.2,24.349
		c0.576,0,1.11-0.132,1.603-0.396c0.491-0.264,0.918-0.702,1.277-1.314c0.36-0.612,0.648-1.416,0.864-2.412
		c0.216-0.996,0.324-2.238,0.324-3.726c0-1.488-0.108-2.724-0.324-3.708c-0.216-0.984-0.504-1.77-0.864-2.358
		c-0.359-0.588-0.786-1.002-1.277-1.242c-0.492-0.239-1.026-0.36-1.603-0.36s-1.11,0.121-1.602,0.36
		c-0.492,0.24-0.918,0.654-1.278,1.242c-0.36,0.588-0.647,1.374-0.864,2.358c-0.216,0.984-0.323,2.22-0.323,3.708
		c0,1.488,0.107,2.73,0.323,3.726c0.217,0.996,0.504,1.8,0.864,2.412c0.36,0.612,0.786,1.05,1.278,1.314
		C18.09,24.217,18.624,24.349,19.2,24.349z"/>
	<path d="M36.844,28.021v-4.284H43V10.525h-5.076V7.249c0.768-0.12,1.458-0.246,2.07-0.378c0.612-0.132,1.17-0.282,1.674-0.45
		c0.504-0.167,0.978-0.354,1.422-0.558c0.444-0.204,0.882-0.438,1.314-0.702h3.888v18.576h5.184v4.284H36.844z"/>
	<path d="M11.244,58.839v-4.285H17.4V41.343h-5.076v-3.277c0.768-0.119,1.458-0.244,2.07-0.377s1.17-0.281,1.674-0.451
		c0.504-0.166,0.978-0.354,1.422-0.557c0.444-0.205,0.882-0.438,1.314-0.703h3.888v18.576h5.184v4.285H11.244z"/>
	<path d="M44.8,59.271c-1.32,0-2.52-0.258-3.6-0.773c-1.08-0.518-2.004-1.279-2.772-2.287s-1.362-2.256-1.781-3.744
		c-0.421-1.488-0.631-3.203-0.631-5.148c0-1.943,0.21-3.646,0.631-5.111c0.419-1.463,1.013-2.693,1.781-3.689
		s1.692-1.74,2.772-2.232s2.279-0.738,3.6-0.738c1.319,0,2.521,0.246,3.601,0.738s2.003,1.236,2.771,2.232
		c0.768,0.996,1.362,2.227,1.782,3.689c0.42,1.465,0.63,3.168,0.63,5.111c0,1.945-0.21,3.66-0.63,5.148s-1.015,2.736-1.782,3.744
		c-0.769,1.008-1.691,1.77-2.771,2.287C47.32,59.013,46.119,59.271,44.8,59.271z M44.8,55.167c0.576,0,1.11-0.133,1.603-0.396
		c0.491-0.264,0.918-0.703,1.277-1.314c0.36-0.611,0.648-1.416,0.864-2.412s0.324-2.238,0.324-3.727
		c0-1.486-0.108-2.723-0.324-3.707s-0.504-1.77-0.864-2.357c-0.359-0.588-0.786-1.002-1.277-1.242
		c-0.492-0.24-1.026-0.361-1.603-0.361s-1.11,0.121-1.602,0.361c-0.492,0.24-0.918,0.654-1.278,1.242s-0.647,1.373-0.864,2.357
		c-0.216,0.984-0.323,2.221-0.323,3.707c0,1.488,0.107,2.73,0.323,3.727c0.217,0.996,0.504,1.801,0.864,2.412
		s0.786,1.051,1.278,1.314C43.689,55.034,44.224,55.167,44.8,55.167z"/>
</g>
<g id="str">
	<g>
		<path d="M13.616,49.111c-1.217,0-2.304-0.187-3.264-0.551c-0.961-0.367-1.776-0.881-2.448-1.537
			c-0.672-0.654-1.192-1.416-1.56-2.279c-0.369-0.863-0.553-1.809-0.553-2.832c0-1.344,0.288-2.52,0.864-3.527
			c0.576-1.009,1.495-1.863,2.76-2.568c1.265-0.7,2.888-1.271,4.872-1.701c1.984-0.436,4.384-0.729,7.2-0.891
			c-0.128-1.085-0.601-1.936-1.416-2.542c-0.815-0.607-2.04-0.912-3.672-0.912c-1.152,0-2.313,0.2-3.479,0.6
			c-1.169,0.4-2.425,0.936-3.769,1.608L6.655,27.37c1.632-0.928,3.384-1.696,5.256-2.304c1.872-0.607,3.832-0.912,5.88-0.912
			c3.328,0,5.952,0.88,7.872,2.64c1.921,1.76,2.88,4.464,2.88,8.11v13.634h-5.76l-0.527-2.688h-0.192
			c-1.217,0.93-2.544,1.705-3.984,2.327C16.64,48.801,15.152,49.111,13.616,49.111z M15.872,43.641c1.057,0,2.048-0.217,2.977-0.646
			c0.928-0.435,1.807-0.97,2.64-1.606V37.45c-1.761,0.096-3.216,0.257-4.368,0.479c-1.152,0.225-2.064,0.504-2.736,0.84
			c-0.672,0.336-1.145,0.729-1.416,1.178c-0.271,0.447-0.408,0.929-0.408,1.438c0,0.77,0.297,1.338,0.889,1.703
			C14.04,43.457,14.848,43.641,15.872,43.641z"/>
		<path d="M47.889,49.111c-1.121,0-2.23-0.271-3.337-0.815c-1.104-0.544-2.151-1.327-3.145-2.353h-0.191l-0.575,2.593H35.12V14.888
			h7.056v8.256l-0.24,3.744h0.146c0.896-0.864,1.92-1.536,3.07-2.016c1.152-0.48,2.307-0.72,3.455-0.72
			c1.475,0,2.811,0.288,4.012,0.864c1.197,0.576,2.207,1.384,3.021,2.424c0.815,1.041,1.446,2.304,1.896,3.792
			c0.445,1.489,0.672,3.144,0.672,4.968c0,2.048-0.289,3.872-0.865,5.472c-0.574,1.602-1.344,2.952-2.303,4.057
			c-0.961,1.104-2.059,1.943-3.289,2.521C50.52,48.824,49.23,49.111,47.889,49.111z M46.305,43.352c1.313,0,2.416-0.551,3.313-1.652
			c0.896-1.104,1.344-2.891,1.344-5.354c0-4.289-1.457-6.433-4.368-6.433c-1.505,0-2.976,0.736-4.416,2.208v9.646
			c0.674,0.574,1.368,0.982,2.09,1.226C44.984,43.232,45.663,43.352,46.305,43.352z"/>
	</g>
</g>
<g id="float">
	<g>
		<path d="M14.769,47.888c-1.664,0-3.009-0.536-4.032-1.608C9.712,45.208,9.2,43.872,9.2,42.271c0-0.799,0.136-1.543,0.408-2.232
			c0.271-0.688,0.648-1.287,1.128-1.799s1.063-0.912,1.752-1.201c0.688-0.287,1.447-0.432,2.28-0.432
			c0.831,0,1.591,0.145,2.279,0.432c0.688,0.289,1.272,0.689,1.752,1.201c0.48,0.512,0.856,1.111,1.128,1.799
			c0.271,0.689,0.408,1.434,0.408,2.232c0,1.601-0.512,2.937-1.536,4.008C17.775,47.352,16.432,47.888,14.769,47.888z"/>
		<path d="M44.096,47.312l1.104-8.976h-4.992l-1.104,8.976h-4.079l1.104-8.976h-3.6v-4.512h4.176l0.624-5.281h-3.84v-4.512h4.416
			l0.96-7.92h4.031l-0.96,7.92h5.04l0.96-7.92h4.032l-0.96,7.92H54.8v4.512h-4.32l-0.672,5.281h4.032v4.512h-4.56l-1.104,8.976
			H44.096z M45.776,33.824l0.624-5.281h-4.992l-0.672,5.281H45.776z"/>
	</g>
</g>
<g id="int">
	<path d="M18.031,47.6l1.104-8.976h-4.992L13.039,47.6H8.96l1.104-8.976h-3.6v-4.512h4.176l0.624-5.28h-3.84V24.32h4.416l0.96-7.92
		h4.031l-0.96,7.92h5.04l0.96-7.92h4.032l-0.96,7.92h3.792v4.512h-4.32l-0.672,5.28h4.032v4.512h-4.56L22.111,47.6H18.031z
		 M19.712,34.112l0.624-5.28h-4.992l-0.672,5.28H19.712z"/>
	<path d="M46.831,47.6l1.104-8.976h-4.992L41.839,47.6H37.76l1.104-8.976h-3.6v-4.512h4.176l0.624-5.28h-3.84V24.32h4.416l0.96-7.92
		h4.031l-0.96,7.92h5.04l0.96-7.92h4.032l-0.96,7.92h3.792v4.512h-4.32l-0.672,5.28h4.032v4.512h-4.56L50.911,47.6H46.831z
		 M48.512,34.112l0.624-5.28h-4.992l-0.672,5.28H48.512z"/>
</g>
<g id="bool">
	<g>
		<path d="M11.294,43.736V24.728h-7.02v-4.464h19.368v4.464h-7.02v19.008H11.294z"/>
		<path d="M23.422,43.736l11.844-23.473h4.428L27.85,43.736H23.422z"/>
		<path d="M44.139,43.736V20.264h15.588v4.464H49.43v5.436h8.784v4.463H49.43v9.109H44.139z"/>
	</g>
</g>
<g id="NoneType">
	<path d="M11.64,48.992l5.465-5.467c-2.546-3.286-3.942-7.359-3.942-11.526c0-10.387,8.45-18.837,18.837-18.837
		c4.167,0,8.238,1.396,11.525,3.942l5.467-5.465l3.367,3.368l-5.465,5.466c2.547,3.288,3.94,7.361,3.94,11.527
		c0,10.387-8.448,18.838-18.838,18.838c-4.166,0-8.239-1.396-11.527-3.941l-5.466,5.465L11.64,48.992z M23.881,43.486
		c2.391,1.697,5.185,2.593,8.119,2.593c7.764,0,14.08-6.315,14.08-14.08c0-2.935-0.895-5.729-2.594-8.119L23.881,43.486z M32,17.919
		c-7.763,0-14.08,6.316-14.08,14.08c0,2.935,0.894,5.729,2.592,8.12L40.12,20.512C37.729,18.814,34.936,17.919,32,17.919z"/>
</g>
</svg>
