<?xml version="1.0" encoding="utf-8"?>
<svg version="1.1" id="_Icons" xmlns="http://www.w3.org/2000/svg" xmlns:xlink="http://www.w3.org/1999/xlink"
	 width="64px" height="64px" viewBox="0 0 64 64">
<defs>
	<g id="_ball">
		<radialGradient id="_ballgrad" cx="6" cy="-6" r="50" gradientUnits="userSpaceOnUse">
			<stop offset="0" stop-color="#D07000"/>
			<stop offset="1" stop-color="#000000"/>
		</radialGradient>
		<circle fill="url(#_ballgrad)" stroke="#000000" stroke-width="2" cx="0" cy="0" r="25"/>
	</g>
</defs>
<g transform="translate(64 0)">
	<use id="object" spectra_types="object" transform="translate(32 32)" xlink:href="#_ball"/>
</g>
<g transform="translate(128 0)">
	<g id="type" spectra_types="type">
      <rect fill="#0060ff" stroke="#000000" stroke-width="2" x="2" y="15" width="60" height="34"/>
      <use transform="matrix(0.55 0 0 0.55 19 32)" xlink:href="#_ball"/>
      <path fill="#ffffff" stroke="#000000" stroke-width="1.5" d="m47,20v8h-11v8h11v8l12,-12l-12,-12z"/>
	</g>
</g>
<g transform="translate(0 64)">
	<g id="function" spectra_types="function builtin_function_or_method method classmethod staticmethod">
		<path d="M7.36,55.4V37.15H1.09v-5.22l6.28-0.29v-0.63c0-1.37,0.21-2.65,0.62-3.83c0.42-1.18,1.06-2.21,1.92-3.09c0.86-0.88,1.97-1.57,3.31-2.08c1.34-0.51,2.94-0.77,4.79-0.77c1.38,0,2.66,0.13,3.86,0.38c1.2,0.26,2.31,0.56,3.33,0.91l-1.34,5.17c-1.57-0.61-3.23-0.91-4.98-0.91c-1.53,0-2.66,0.34-3.38,1c-0.72,0.67-1.08,1.72-1.08,3.16v0.67h8.19v5.51h-8.19v18.26L7.36,55.4L7.36,55.4z"/>
		<path d="M38.74,55.4c-2.43-2.16-4.35-4.66-5.76-7.49c-1.40-2.83-2.10-6-2.10-9.54c0-3.52,0.70-6.70,2.10-9.54c1.40-2.83,3.32-5.33,5.76-7.49l3.06,2.42c-2.21,2.16-3.82,4.4-4.82,6.72c-1,2.32-1.51,4.95-1.51,7.88c0,1.47,0.13,2.85,0.37,4.15c0.25,1.30,0.63,2.55,1.14,3.74c0.51,1.19,1.16,2.34,1.95,3.45c0.8,1.10,1.75,2.19,2.87,3.26L38.74,55.4z"/>
		<path d="M54.23,55.4l-3.06-2.43c1.12-1.07,2.07-2.15,2.87-3.26c0.8-1.11,1.44-2.26,1.95-3.44c0.51-1.19,0.89-2.44,1.14-3.74c0.25-1.31,0.37-2.69,0.37-4.15c0-2.93-0.5-5.56-1.51-7.88c-1-2.32-2.61-4.56-4.82-6.72l3.06-2.42c2.44,2.16,4.35,4.66,5.75,7.49c1.40,2.83,2.11,6,2.11,9.54c0,3.53-0.71,6.71-2.11,9.54C58.58,50.74,56.66,53.24,54.23,55.4z"/>
	</g>
</g>
<g transform="translate(64 64)">
    <g id="wrapper" spectra_types="partial partialmethod method-wrapper">
        <rect fill="#c6c6e0" stroke="#000000" stroke-width="2" x="4" y="16" width="56" height="38"/>
        <path d="M12.67,47.66V33.40H7.77V29.32L12.67,29.1V28.61C12.67,27.54 12.83,26.54 13.16,25.62C13.48,24.69 13.98,23.89 14.65,23.20C15.33,22.52 16.19,21.97 17.23,21.58C18.28,21.18 19.53,20.98 20.98,20.98C22.05,20.98 23.05,21.08 24,21.28C24.93,21.48 25.79,21.71 26.59,22L25.54,26.03C24.32,25.55 23.02,25.32 21.65,25.32C20.45,25.32 19.57,25.58 19,26.10C18.45,26.63 18.17,27.45 18.17,28.57V29.1H24.57V33.4H18.17V47.66Z"/>
        <path d="M37.17,47.66C35.27,45.97 33.77,44.02 32.67,41.81C31.58,39.60 31.03,37.12 31.03,34.36C31.03,31.61 31.58,29.13 32.67,26.92C33.77,24.71 35.27,22.76 37.17,21.07L39.56,22.96C37.83,24.65 36.57,26.4 35.79,28.21C35.00,30.03 34.61,32.08 34.61,34.36C34.61,35.51 34.71,36.59 34.90,37.61C35.1,38.63 35.39,39.60 35.79,40.53C36.19,41.46 36.7,42.36 37.32,43.22C37.94,44.08 38.68,44.93 39.56,45.76Z"/>
        <path d="M49.27,47.66L46.88,45.76C47.76,44.93 48.50,44.08 49.12,43.22C49.74,42.36 50.25,41.46 50.65,40.53C51.05,39.60 51.34,38.63 51.54,37.61C51.73,36.59 51.83,35.51 51.83,34.37C51.83,32.08 51.44,30.03 50.65,28.21C49.87,26.40 48.61,24.65 46.89,22.96L49.27,21.07C51.17,22.76 52.67,24.71 53.76,26.92C54.86,29.13 55.41,31.61 55.41,34.37C55.41,37.12 54.86,39.60 53.76,41.81C52.67,44.02 51.17,45.97 49.27,47.66Z"/>
    </g>
</g>
<g transform="translate(128 64)">
    <g id="descriptor" spectra_types="property getset_descriptor member_descriptor method_descriptor wrapper_descriptor">
        <path d="m9.22,55.59c-2.69,0 -5.54,-1.23 -6.76,-3.73c-1.37,-2.71 -0.85,-6.47 1.69,-8.32c2.44,-1.79 5.52,-2.31 8.44,-2.77c1.31,-0.32 3.19,-0.1 4.15,-0.59c-0.21,-1.72 -1.85,-2.9 -3.5,-3.03c-2.92,-0.44 -5.73,0.78 -8.29,2.03c-0.8,-1.47 -1.59,-2.94 -2.39,-4.41c3.66,-2.08 7.87,-3.42 12.11,-3.02c3.13,0.22 6.39,1.79 7.77,4.75c1.38,2.79 1.03,5.96 1.08,8.98v9.56h-5.52c-0.17,-0.86 -0.33,-1.72 -0.5,-2.57c-0.72,0.22 -1.3,0.9 -2,1.22c-1.89,1.15 -4.03,1.93 -6.27,1.9z m7.54,-7.4v-3.77c-2.53,0.2 -5.23,0.28 -7.45,1.66c-1.39,0.8 -1.58,3.32 0.07,3.94c0.64,0.26 1.33,0.33 2.67,0.38c1.35,0.1 3.16,-1.03 4.71,-2.21z"/>
        <path d="m32.81,55.59c-1.42,0 -2.9,-0.53 -3.79,-1.67c-1.17,-1.41 -1.39,-3.45 -0.79,-5.15c0.49,-1.32 1.56,-2.44 2.91,-2.86c1.69,-0.53 3.69,-0.24 5,1c0.82,0.76 1.3,1.83 1.5,2.92c0.25,1.63 -0.23,3.41 -1.46,4.55c-0.9,0.86 -2.16,1.23 -3.38,1.22z"/>
        <path d="m54.9,31.74l-3.6,7.86l-4,-7.82h-7.5l6.6,11.92l-6.6,11.9h7.6l3.9,-7.9l3.7,7.9h7.3l-6.7,-12l6.6,-11.86z"/>
    </g>
</g>
<g transform="translate(192 64)">
	<g id="module" spectra_types="module">
		<path fill="#007000" stroke="#000000" stroke-width="2" d="M32,16.5c-11.02,0-19.95-2.85-19.95-6.38v43.75c0,3.52,8.93,6.38,19.95,6.38c11.02,0,19.95-2.85,19.95-6.38v-43.75C51.95,13.65,43.02,16.5,32,16.5z"/>
		<ellipse opacity="0.5" cx="32" cy="53.88" rx="19.95" ry="6.38"/>
		<ellipse stroke="#000000" stroke-width="2" cx="32" cy="10.13" rx="19.95" ry="6.38"/>
		<use opacity="0.5" transform="matrix(0.45 0 0 0.45 32 33)" xlink:href="#_ball"/>
		<ellipse fill="#004400" cx="32" cy="10.13" rx="13.97" ry="4.46"/>
	</g>
</g>
<g transform="translate(256 64)">
	<g id="package" spectra_types="package _package">
		<g stroke="#000000" stroke-width="2" stroke-linejoin="round">
			<linearGradient id="_pkggrad1" x1="0" y1="20" x2="0" y2="11" gradientUnits="userSpaceOnUse">
			  <stop offset="0" stop-color="#deaa87"/>
			  <stop offset="1" stop-color="#764222"/>
			</linearGradient>
			<linearGradient id="_pkggrad2" x1="18" y1="0" x2="6" y2="0" gradientUnits="userSpaceOnUse">
			  <stop offset="0" stop-color="#deaa87"/>
			  <stop offset="1" stop-color="#764222"/>
			</linearGradient>
			<path fill="url(#_pkggrad1)" d="m57.38,19.84 -12.65,-8.63h-38.54l12.66,8.63z"/>
			<path fill="url(#_pkggrad2)" d="m6.18,11.22v37.72l12.66,8.63v-37.72z"/>
			<path stroke-width="1" d="m57.38,19.84 -51.19,-8.63z"/>
			<path stroke-width="1" d="m44.73,11.21 -25.88,8.63z"/>
			<path fill="#deaa87" d="m18.85,19.84h38.53v37.72h-38.53z"/>
		</g>
		<path d="m23.5,50.96v-19.85h2.3l0.3,1.73h0.1q0.9,-0.93 2.2,-1.5q1.2,-0.58 2.5,-0.58q1.3,0 2.4,0.52q1.1,0.49 1.8,1.44q0.8,0.92 1.2,2.24q0.4,1.32 0.4,2.96q0,1.82 -0.6,3.23q-0.5,1.42 -1.4,2.4q-0.8,0.95 -2,1.47q-1.1,0.51 -2.4,0.51q-1,0 -2,-0.43q-1.1,-0.46 -2,-1.3h-0.1l0.1,2.54v4.6z m6.3,-7.78q1.7,0 2.8,-1.32q1.1,-1.36 1.1,-3.89q0,-2.22 -0.9,-3.51q-0.8,-1.3 -2.7,-1.3q-0.9,0 -1.8,0.46q-1,0.43 -1.9,1.44v6.64q0.9,0.81 1.8,1.16q0.9,0.31 1.6,0.31z"/>
		<path d="m42.1,50.79q-0.5,0 -1,-0.12q-0.5,-0.12 -0.9,-0.2l0.6,-2.22q0.3,0.12 0.6,0.14q0.3,0.12 0.6,0.12q1.4,0 2.3,-0.78q0.9,-0.74 1.3,-1.93l0.4,-0.98l-6.4,-14h2.9l3.1,7.35q0.4,0.95 0.8,2.01q0.4,1.07 0.9,2.1h0.1q0.3,-1 0.7,-2.07q0.4,-1.07 0.7,-2.04l2.8,-7.35h2.7l-6,14.98q-0.4,1.13 -1,2.04q-0.5,0.92 -1.3,1.58q-0.7,0.66 -1.6,1.01q-1,0.37 -2.2,0.37z"/>
	</g>
</g>
<g transform="translate(0 128)">
	<path id="null" spectra_types="NoneType" d="M11.64,49l5.47-5.47c-2.55-3.29-3.94-7.36-3.94-11.53c0-10.39,8.45-18.84,18.84-18.84c4.17,0,8.24,1.4,11.53,3.94l5.47-5.47l3.37,3.37l-5.47,5.47c2.55,3.29,3.94,7.36,3.94,11.53c0,10.39-8.45,18.84-18.84,18.84c-4.17,0-8.24-1.4-11.53-3.94l-5.47,5.47L11.64,49z M23.88,43.49c2.39,1.7,5.19,2.59,8.12,2.59c7.76,0,14.08-6.32,14.08-14.08c0-2.94-0.9-5.73-2.59-8.12L23.88,43.49z M32,17.92c-7.76,0-14.08,6.32-14.08,14.08c0,2.94,0.89,5.73,2.59,8.12L40.12,20.51C37.73,18.81,34.94,17.92,32,17.92z"/>
</g>
<g transform="translate(64 128)">
	<g id="bool" spectra_types="bool">
		<path d="M9.15,51.4V28.4H0.65v-5.40h23.44v5.40h-8.5V51.4H9.15z"/>
		<path d="M23.59,51.4l11.46-28.40h4.29L27.88,51.4H23.59z"/>
		<path d="M44.49,51.4V23h18.86v5.40H50.89v6.58H61.52v5.4H50.89V51.4H44.49z"/>
	</g>
</g>
<g transform="translate(128 128)">
	<path id="int" spectra_types="int" d="M32.65,55.4l1.66-13.46h-7.49L25.16,55.4h-6.12l1.66-13.46h-5.4v-6.77h6.26l0.94-7.92h-5.76V20.48h6.62l1.44-11.88h6.05l-1.44,11.88h7.56l1.44-11.88h6.05l-1.44,11.88h5.69v6.77h-6.48l-1,7.92h6.05v6.77h-6.84L38.77,55.4H32.65z M35.17,35.17l0.94-7.92h-7.49l-1,7.92H35.17z"/>
</g>
<g transform="translate(192 128)">
	<g id="float" spectra_types="float complex">
		<path d="M11.87,55.4c-1.92,0-3.47-0.62-4.65-1.85c-1.18-1.23-1.77-2.77-1.77-4.62c0-0.92,0.16-1.78,0.47-2.57c0.31-0.79,0.75-1.48,1.3-2.07c0.55-0.59,1.23-1.05,2.02-1.39c0.79-0.33,1.67-0.5,2.63-0.5c0.96,0,1.83,0.17,2.63,0.5c0.79,0.33,1.47,0.8,2.02,1.39c0.55,0.59,1,1.28,1.3,2.07c0.31,0.8,0.47,1.65,0.47,2.57c0,1.84-0.59,3.38-1.77,4.62C15.34,54.78,13.79,55.4,11.87,55.4z"/>
		<path d="M42.48,55.4l1.66-13.47h-7.49L35,55.4h-6.12l1.66-13.47h-5.4v-6.77h6.27l0.94-7.92h-5.76V20.48h6.62l1.44-11.88h6.05l-1.44,11.88h7.56l1.44-11.88h6.05l-1.44,11.88h5.69v6.77h-6.48l-1,7.92h6.05v6.77h-6.84L48.60,55.4H42.48z M45,35.17l0.94-7.92h-7.49l-1,7.92H45z"/>
	</g>
</g>
<g transform="translate(0 192)">
	<path id="string" spectra_types="str" d="m27.54,37.22h8.65l-4.23,-17.03z m-13.88,16.9c4.26,-13.69 8.53,-27.4 12.8,-41.09h11.14c4.25,13.69 8.48,27.4 12.74,41.09h-9.86c-0.78,-3.24 -1.56,-6.49 -2.35,-9.74h-12.48c-0.84,3.25 -1.69,6.5 -2.53,9.74z"/>
</g>
<g transform="translate(64 192)">
	<g id="binary" spectra_types="bytes bytearray memoryview code">
		<path d="M19.2,28.45c-1.32,0-2.52-0.26-3.6-0.77c-1.08-0.52-2.00-1.28-2.77-2.29c-0.77-1-1.36-2.26-1.78-3.74c-0.42-1.49-0.63-3.20-0.63-5.15s0.21-3.65,0.63-5.11c0.42-1.46,1-2.69,1.78-3.69c0.77-1,1.69-1.74,2.77-2.23c1.08-0.49,2.28-0.74,3.6-0.74c1.32,0,2.52,0.25,3.60,0.74c1.08,0.49,2.00,1.24,2.77,2.23c0.77,1,1.36,2.23,1.78,3.69s0.63,3.17,0.63,5.11s-0.21,3.66-0.63,5.15c-0.42,1.49-1.02,2.74-1.78,3.74c-0.77,1-1.69,1.77-2.77,2.29C21.72,28.2,20.52,28.45,19.2,28.45z M19.2,24.35c0.58,0,1.11-0.13,1.60-0.4c0.49-0.26,0.92-0.70,1.28-1.31c0.36-0.61,0.65-1.42,0.86-2.41c0.22-1,0.32-2.24,0.32-3.73c0-1.49-0.11-2.72-0.32-3.71c-0.22-0.98-0.50-1.77-0.86-2.36c-0.36-0.59-0.79-1.00-1.28-1.24c-0.49-0.24-1.03-0.36-1.60-0.36s-1.11,0.12-1.60,0.36c-0.49,0.24-0.92,0.65-1.28,1.24c-0.36,0.59-0.65,1.37-0.86,2.36c-0.22,0.98-0.32,2.22-0.32,3.71c0,1.49,0.11,2.73,0.32,3.73c0.22,1,0.50,1.8,0.86,2.41c0.36,0.61,0.79,1.05,1.28,1.31C18.09,24.22,18.62,24.35,19.2,24.35z"/>
		<path d="M36.84,28.02v-4.28H43V10.53h-5.08V7.25c0.77-0.12,1.46-0.25,2.07-0.38c0.61-0.13,1.17-0.28,1.67-0.45c0.50-0.17,0.98-0.35,1.42-0.56c0.44-0.20,0.88-0.44,1.31-0.70h3.89v18.58h5.18v4.28H36.84z"/>
		<path d="M11.24,58.84v-4.29H17.4V41.34h-5.08v-3.28c0.77-0.12,1.46-0.24,2.07-0.38s1.17-0.28,1.67-0.45c0.50-0.17,0.98-0.35,1.42-0.56c0.44-0.21,0.88-0.44,1.31-0.70h3.89v18.58h5.18v4.29H11.24z"/>
		<path d="M44.8,59.27c-1.32,0-2.52-0.26-3.6-0.77c-1.08-0.52-2.00-1.28-2.77-2.29s-1.36-2.26-1.78-3.74c-0.42-1.49-0.63-3.20-0.63-5.15c0-1.94,0.21-3.65,0.63-5.11c0.42-1.46,1-2.69,1.78-3.69s1.69-1.74,2.77-2.23s2.28-0.74,3.6-0.74c1.32,0,2.52,0.25,3.60,0.74s2.00,1.24,2.77,2.23c0.77,1,1.36,2.23,1.78,3.69c0.42,1.47,0.63,3.17,0.63,5.11c0,1.95-0.21,3.66-0.63,5.15s-1.02,2.74-1.78,3.74c-0.77,1-1.69,1.77-2.77,2.29C47.32,59,46.12,59.27,44.8,59.27z M44.8,55.17c0.58,0,1.11-0.13,1.60-0.4c0.49-0.26,0.92-0.70,1.28-1.31c0.36-0.61,0.65-1.42,0.86-2.41s0.32-2.24,0.32-3.73c0-1.49-0.11-2.72-0.32-3.71s-0.50-1.77-0.86-2.36c-0.36-0.59-0.79-1.00-1.28-1.24c-0.49-0.24-1.03-0.36-1.60-0.36s-1.11,0.12-1.60,0.36c-0.49,0.24-0.92,0.65-1.28,1.24s-0.65,1.37-0.86,2.36c-0.22,0.98-0.32,2.22-0.32,3.71c0,1.49,0.11,2.73,0.32,3.73c0.22,1,0.50,1.80,0.86,2.41s0.79,1.05,1.28,1.31C43.69,55.03,44.22,55.17,44.8,55.17z"/>
	</g>
</g>
<g transform="translate(0 256)">
	<g id="tuple" spectra_types="tuple">
		<path d="M22.02,53.94c-3.14-2.78-5.61-6-7.42-9.65c-1.81-3.65-2.71-7.74-2.71-12.29s0.90-8.64,2.71-12.29c1.81-3.65,4.28-6.86,7.42-9.65l3.94,3.12c-2.85,2.78-4.92,5.67-6.22,8.66c-1.3,3-1.94,6.38-1.94,10.15c0,1.89,0.16,3.67,0.48,5.35c0.32,1.68,0.81,3.29,1.46,4.82c0.66,1.54,1.5,3.02,2.52,4.44c1.02,1.42,2.26,2.82,3.7,4.2L22.02,53.94z"/>
		<path d="M41.98,53.94l-3.94-3.12c1.44-1.38,2.67-2.77,3.7-4.2c1.02-1.43,1.86-2.90,2.52-4.44c0.65-1.53,1.15-3.14,1.46-4.82c0.32-1.68,0.48-3.46,0.48-5.35c0-3.78-0.65-7.16-1.94-10.15c-1.3-3-3.37-5.88-6.22-8.66l3.94-3.12c3.14,2.78,5.61,6,7.42,9.65c1.81,3.65,2.71,7.74,2.71,12.29s-0.90,8.64-2.71,12.29C47.59,47.94,45.12,51.15,41.98,53.94z"/>
	</g>
</g>
<g transform="translate(64 256)">
	<g id="list" spectra_types="list array">
		<path d="M12.8,52.64V11.36h14.21v3.74h-8.83v33.79h8.83v3.74H12.8L12.8,52.64z"/>
		<path d="M37,52.64v-3.74h8.83V15.10h-8.83V11.36H51.2v41.28H37z"/>
	</g>
</g>
<g transform="translate(128 256)">
	<g id="dict" spectra_types="dict mappingproxy">
		<path d="M23.29,52.64c-3.07,0-5.33-0.49-6.77-1.47c-1.44-0.98-2.16-2.76-2.16-5.35c0-0.86,0.02-1.63,0.07-2.31c0.05-0.67,0.10-1.32,0.17-1.94s0.12-1.25,0.17-1.87c0.05-0.62,0.07-1.32,0.07-2.09c0-0.42-0.1-0.83-0.29-1.25c-0.19-0.42-0.55-0.79-1.06-1.13c-0.51-0.34-1.19-0.61-2.04-0.82c-0.85-0.21-1.91-0.33-3.19-0.36v-4.13c1.28-0.03,2.34-0.15,3.19-0.36c0.85-0.21,1.53-0.48,2.04-0.82c0.51-0.34,0.86-0.71,1.06-1.13c0.19-0.42,0.29-0.83,0.29-1.25c0-0.74-0.02-1.42-0.07-2.06c-0.05-0.64-0.10-1.27-0.17-1.9s-0.12-1.28-0.17-1.97c-0.05-0.69-0.07-1.45-0.07-2.28c0-2.59,0.72-4.38,2.16-5.35c1.44-0.98,3.7-1.46,6.77-1.46h3.7v3.74h-1.97c-1,0-1.81,0.05-2.45,0.14c-0.64,0.1-1.14,0.27-1.49,0.53c-0.35,0.26-0.6,0.6-0.74,1.03c-0.14,0.43-0.22,0.98-0.22,1.66c0,1.28,0.04,2.54,0.12,3.79c0.08,1.25,0.12,2.59,0.12,4.03c0,1.82-0.37,3.14-1.10,3.96c-0.74,0.82-1.97,1.37-3.7,1.66v0.19c1.73,0.29,2.96,0.84,3.7,1.66c0.74,0.81,1.10,2.14,1.10,3.96c0,1.48-0.04,2.81-0.12,4.03c-0.08,1.22-0.12,2.48-0.12,3.79c0,0.67,0.07,1.22,0.22,1.65c0.15,0.44,0.39,0.78,0.74,1.03c0.35,0.26,0.85,0.43,1.49,0.53c0.64,0.1,1.46,0.15,2.45,0.15h1.97v3.74h-3.7V52.64z"/>
		<path d="M37.02,52.64v-3.74h1.97c1,0,1.80-0.05,2.43-0.15c0.62-0.1,1.11-0.27,1.47-0.53c0.35-0.26,0.60-0.60,0.74-1.03c0.15-0.43,0.22-0.98,0.22-1.65c0-1.31-0.03-2.58-0.1-3.79c-0.06-1.22-0.1-2.56-0.1-4.03c0-1.82,0.37-3.15,1.10-3.96c0.74-0.81,1.97-1.37,3.69-1.66v-0.19c-1.73-0.29-2.96-0.84-3.69-1.66c-0.74-0.82-1.10-2.14-1.10-3.96c0-1.44,0.03-2.78,0.1-4.03c0.06-1.25,0.1-2.51,0.1-3.79c0-0.67-0.07-1.23-0.22-1.66c-0.15-0.43-0.39-0.78-0.74-1.03c-0.35-0.26-0.84-0.43-1.47-0.53c-0.62-0.1-1.44-0.14-2.43-0.14h-1.97V11.36h3.7c3.07,0,5.33,0.49,6.77,1.46c1.44,0.98,2.16,2.76,2.16,5.35c0,0.83-0.02,1.59-0.07,2.28c-0.05,0.69-0.11,1.34-0.19,1.97c-0.08,0.62-0.15,1.26-0.19,1.9c-0.05,0.64-0.07,1.33-0.07,2.06c0,0.42,0.1,0.83,0.29,1.25c0.19,0.42,0.55,0.79,1.06,1.13c0.51,0.34,1.19,0.61,2.04,0.82c0.85,0.21,1.93,0.33,3.24,0.36v4.13c-1.31,0.03-2.39,0.15-3.24,0.36c-0.85,0.21-1.53,0.48-2.04,0.82c-0.51,0.34-0.86,0.71-1.06,1.13c-0.19,0.42-0.29,0.83-0.29,1.25c0,0.77,0.02,1.47,0.07,2.09c0.05,0.63,0.11,1.25,0.19,1.87c0.08,0.62,0.15,1.27,0.19,1.94c0.05,0.67,0.07,1.44,0.07,2.31c0,2.59-0.72,4.38-2.16,5.35c-1.44,0.98-3.69,1.47-6.77,1.47h-3.7V52.64z"/>
	</g>
</g>
<g transform="translate(192 256)">
	<use id="set" spectra_types="set frozenset" xlink:href="#dict"/>
</g>
<path id="_grid_h" stroke="#000000" stroke-width="1" d="M0,0h320z"/>
<use y="64" xlink:href="#_grid_h"/><use y="128" xlink:href="#_grid_h"/><use y="192" xlink:href="#_grid_h"/>
<use y="256" xlink:href="#_grid_h"/><use y="320" xlink:href="#_grid_h"/>
<path id="_grid_v" stroke="#000000" stroke-width="1" d="M0,0v320z"/>
<use x="64" xlink:href="#_grid_v"/><use x="128" xlink:href="#_grid_v"/><use x="192" xlink:href="#_grid_v"/>
<use x="256" xlink:href="#_grid_v"/><use x="320" xlink:href="#_grid_v"/>
</svg>
